DINishCondensed-Regular.ufo
<glyph name="dollar" format="2">
  <advance width="380"/>
  <unicode hex="0024"/>
  <outline>
    <contour>
      <point x="163" y="-74" type="line"/>
      <point x="217" y="-74" type="line"/>
      <point x="217" y="28" type="line"/>
      <point x="259" y="34"/>
      <point x="291" y="52"/>
      <point x="312" y="82" type="curve" smooth="yes"/>
      <point x="333" y="111"/>
      <point x="344" y="151"/>
      <point x="344" y="202" type="curve" smooth="yes"/>
      <point x="344" y="248"/>
      <point x="334" y="286"/>
      <point x="314" y="315" type="curve" smooth="yes"/>
      <point x="293" y="344"/>
      <point x="261" y="367"/>
      <point x="217" y="386" type="curve"/>
      <point x="217" y="608" type="line"/>
      <point x="252" y="597"/>
      <point x="271" y="561"/>
      <point x="273" y="502" type="curve"/>
      <point x="337" y="502" type="line"/>
      <point x="331" y="605"/>
      <point x="291" y="663"/>
      <point x="217" y="674" type="curve"/>
      <point x="217" y="771" type="line"/>
      <point x="163" y="771" type="line"/>
      <point x="163" y="675" type="line"/>
      <point x="122" y="670"/>
      <point x="89" y="653"/>
      <point x="65" y="624" type="curve" smooth="yes"/>
      <point x="41" y="595"/>
      <point x="29" y="554"/>
      <point x="29" y="502" type="curve" smooth="yes"/>
      <point x="29" y="459"/>
      <point x="38" y="425"/>
      <point x="57" y="400" type="curve" smooth="yes"/>
      <point x="75" y="374"/>
      <point x="107" y="351"/>
      <point x="152" y="332" type="curve" smooth="yes"/>
      <point x="163" y="327" type="line"/>
      <point x="163" y="88" type="line"/>
      <point x="122" y="99"/>
      <point x="100" y="137"/>
      <point x="97" y="200" type="curve"/>
      <point x="27" y="200" type="line"/>
      <point x="31" y="91"/>
      <point x="76" y="34"/>
      <point x="163" y="27" type="curve"/>
    </contour>
    <contour>
      <point x="163" y="408" type="line"/>
      <point x="140" y="419"/>
      <point x="124" y="432"/>
      <point x="113" y="448" type="curve" smooth="yes"/>
      <point x="102" y="464"/>
      <point x="97" y="485"/>
      <point x="97" y="512" type="curve" smooth="yes"/>
      <point x="97" y="539"/>
      <point x="103" y="562"/>
      <point x="114" y="579" type="curve" smooth="yes"/>
      <point x="125" y="596"/>
      <point x="142" y="606"/>
      <point x="163" y="611" type="curve"/>
    </contour>
    <contour>
      <point x="217" y="89" type="curve"/>
      <point x="217" y="301" type="line"/>
      <point x="238" y="290"/>
      <point x="253" y="276"/>
      <point x="262" y="260" type="curve" smooth="yes"/>
      <point x="271" y="243"/>
      <point x="275" y="221"/>
      <point x="275" y="193" type="curve" smooth="yes"/>
      <point x="275" y="136"/>
      <point x="256" y="101"/>
    </contour>
  </outline>
</glyph>
<glyph name="percent" format="2">
  <advance width="707"/>
  <unicode hex="0025"/>
  <outline>
    <contour>
      <point x="141" y="270" type="curve" smooth="yes"/>
      <point x="215" y="270"/>
      <point x="249" y="312"/>
      <point x="249" y="400" type="curve" smooth="yes"/>
      <point x="249" y="586" type="line" smooth="yes"/>
      <point x="249" y="673"/>
      <point x="214" y="714"/>
      <point x="141" y="714" type="curve" smooth="yes"/>
      <point x="68" y="714"/>
      <point x="34" y="671"/>
      <point x="34" y="586" type="curve" smooth="yes"/>
      <point x="34" y="400" type="line" smooth="yes"/>
      <point x="34" y="313"/>
      <point x="68" y="270"/>
    </contour>
    <contour>
      <point x="104" y="400" type="curve" smooth="yes"/>
      <point x="104" y="586" type="line" smooth="yes"/>
      <point x="104" y="629"/>
      <point x="113" y="650"/>
      <point x="141" y="650" type="curve" smooth="yes"/>
      <point x="170" y="650"/>
      <point x="178" y="630"/>
      <point x="178" y="586" type="curve" smooth="yes"/>
      <point x="178" y="400" type="line" smooth="yes"/>
      <point x="178" y="352"/>
      <point x="168" y="334"/>
      <point x="141" y="334" type="curve" smooth="yes"/>
      <point x="114" y="334"/>
      <point x="104" y="353"/>
    </contour>
    <contour>
      <point x="196" y="0" type="line"/>
      <point x="260" y="0" type="line"/>
      <point x="514" y="707" type="line"/>
      <point x="450" y="707" type="line"/>
    </contour>
    <contour>
      <point x="567" y="-8" type="curve" smooth="yes"/>
      <point x="641" y="-8"/>
      <point x="675" y="34"/>
      <point x="675" y="122" type="curve" smooth="yes"/>
      <point x="675" y="307" type="line" smooth="yes"/>
      <point x="675" y="394"/>
      <point x="640" y="435"/>
      <point x="567" y="435" type="curve" smooth="yes"/>
      <point x="494" y="435"/>
      <point x="460" y="392"/>
      <point x="460" y="307" type="curve" smooth="yes"/>
      <point x="460" y="122" type="line" smooth="yes"/>
      <point x="460" y="34"/>
      <point x="493" y="-8"/>
    </contour>
    <contour>
      <point x="530" y="122" type="curve" smooth="yes"/>
      <point x="530" y="307" type="line" smooth="yes"/>
      <point x="530" y="352"/>
      <point x="540" y="372"/>
      <point x="567" y="372" type="curve" smooth="yes"/>
      <point x="595" y="372"/>
      <point x="604" y="353"/>
      <point x="604" y="307" type="curve" smooth="yes"/>
      <point x="604" y="122" type="line" smooth="yes"/>
      <point x="604" y="72"/>
      <point x="594" y="55"/>
      <point x="567" y="55" type="curve" smooth="yes"/>
      <point x="541" y="55"/>
      <point x="530" y="73"/>
    </contour>
  </outline>
</glyph>
<glyph name="ampersand" format="2">
  <advance width="531"/>
  <unicode hex="0026"/>
  <outline>
    <contour>
      <point x="202" y="-10" type="curve" smooth="yes"/>
      <point x="266" y="-10"/>
      <point x="314" y="17"/>
      <point x="356" y="79" type="curve"/>
      <point x="388" y="8"/>
      <point x="413" y="-1"/>
      <point x="446" y="-1" type="curve" smooth="yes"/>
      <point x="480" y="-1" type="line"/>
      <point x="480" y="69" type="line"/>
      <point x="469" y="69" type="line" smooth="yes"/>
      <point x="452" y="69"/>
      <point x="443" y="76"/>
      <point x="428" y="99" type="curve" smooth="yes"/>
      <point x="399" y="148" type="line"/>
      <point x="472" y="268" type="line"/>
      <point x="417" y="304" type="line"/>
      <point x="361" y="212" type="line"/>
      <point x="265" y="376" type="line"/>
      <point x="345" y="460"/>
      <point x="373" y="512"/>
      <point x="373" y="575" type="curve" smooth="yes"/>
      <point x="373" y="661"/>
      <point x="316" y="717"/>
      <point x="234" y="717" type="curve" smooth="yes"/>
      <point x="153" y="717"/>
      <point x="96" y="658"/>
      <point x="96" y="575" type="curve" smooth="yes"/>
      <point x="96" y="528"/>
      <point x="114" y="483"/>
      <point x="176" y="384" type="curve"/>
      <point x="87" y="285"/>
      <point x="51" y="221"/>
      <point x="51" y="151" type="curve" smooth="yes"/>
      <point x="51" y="53"/>
      <point x="108" y="-10"/>
    </contour>
    <contour>
      <point x="208" y="60" type="curve" smooth="yes"/>
      <point x="158" y="60"/>
      <point x="126" y="95"/>
      <point x="126" y="155" type="curve" smooth="yes"/>
      <point x="126" y="205"/>
      <point x="150" y="251"/>
      <point x="214" y="321" type="curve"/>
      <point x="318" y="142" type="line"/>
      <point x="280" y="80"/>
      <point x="248" y="60"/>
    </contour>
    <contour>
      <point x="227" y="440" type="curve"/>
      <point x="183" y="517"/>
      <point x="171" y="548"/>
      <point x="171" y="578" type="curve" smooth="yes"/>
      <point x="171" y="622"/>
      <point x="194" y="653"/>
      <point x="236" y="653" type="curve" smooth="yes"/>
      <point x="274" y="653"/>
      <point x="299" y="626"/>
      <point x="299" y="578" type="curve" smooth="yes"/>
      <point x="299" y="536"/>
      <point x="283" y="504"/>
    </contour>
  </outline>
</glyph>
<glyph name="parenleft" format="2">
  <advance width="265"/>
  <unicode hex="0028"/>
  <outline>
    <contour>
      <point x="51" y="336" type="curve" smooth="yes"/>
      <point x="51" y="409"/>
      <point x="60" y="481"/>
      <point x="77" y="552" type="curve" smooth="yes"/>
      <point x="94" y="623"/>
      <point x="120" y="692"/>
      <point x="154" y="758" type="curve"/>
      <point x="214" y="758" type="line"/>
      <point x="184" y="691"/>
      <point x="161" y="621"/>
      <point x="146" y="549" type="curve" smooth="yes"/>
      <point x="130" y="477"/>
      <point x="122" y="406"/>
      <point x="122" y="336" type="curve" smooth="yes"/>
      <point x="122" y="266"/>
      <point x="130" y="195"/>
      <point x="146" y="123" type="curve" smooth="yes"/>
      <point x="161" y="50"/>
      <point x="184" y="-19"/>
      <point x="214" y="-86" type="curve"/>
      <point x="154" y="-86" type="line"/>
      <point x="120" y="-20"/>
      <point x="94" y="49"/>
      <point x="77" y="121" type="curve" smooth="yes"/>
      <point x="60" y="192"/>
      <point x="51" y="264"/>
    </contour>
  </outline>
</glyph>
<glyph name="parenright" format="2">
  <advance width="265"/>
  <unicode hex="0029"/>
  <outline>
    <contour>
      <point x="51" y="-86" type="curve"/>
      <point x="112" y="-86" type="line"/>
      <point x="178" y="45"/>
      <point x="214" y="191"/>
      <point x="214" y="336" type="curve" smooth="yes"/>
      <point x="214" y="480"/>
      <point x="178" y="628"/>
      <point x="112" y="758" type="curve"/>
      <point x="51" y="758" type="line"/>
      <point x="111" y="621"/>
      <point x="143" y="475"/>
      <point x="143" y="336" type="curve" smooth="yes"/>
      <point x="143" y="194"/>
      <point x="111" y="48"/>
    </contour>
  </outline>
</glyph>
<glyph name="asterisk" format="2">
  <advance width="356"/>
  <unicode hex="002A"/>
  <outline>
    <contour>
      <point x="153" y="419" type="line"/>
      <point x="204" y="419" type="line"/>
      <point x="204" y="524" type="line"/>
      <point x="282" y="479" type="line"/>
      <point x="305" y="519" type="line"/>
      <point x="224" y="565" type="line"/>
      <point x="304" y="611" type="line"/>
      <point x="282" y="651" type="line"/>
      <point x="204" y="606" type="line"/>
      <point x="204" y="707" type="line"/>
      <point x="153" y="707" type="line"/>
      <point x="153" y="607" type="line"/>
      <point x="75" y="652" type="line"/>
      <point x="51" y="611" type="line"/>
      <point x="131" y="565" type="line"/>
      <point x="51" y="519" type="line"/>
      <point x="75" y="479" type="line"/>
      <point x="153" y="524" type="line"/>
    </contour>
  </outline>
</glyph>
<glyph name="zero" format="2">
  <advance width="412"/>
  <unicode hex="0030"/>
  <outline>
    <contour>
      <point x="207" y="-9" type="curve" smooth="yes"/>
      <point x="308" y="-9"/>
      <point x="359" y="53"/>
      <point x="359" y="178" type="curve" smooth="yes"/>
      <point x="359" y="529" type="line" smooth="yes"/>
      <point x="359" y="654"/>
      <point x="310" y="716"/>
      <point x="207" y="716" type="curve" smooth="yes"/>
      <point x="104" y="715"/>
      <point x="53" y="653"/>
      <point x="53" y="529" type="curve" smooth="yes"/>
      <point x="53" y="178" type="line" smooth="yes"/>
      <point x="53" y="53"/>
      <point x="104" y="-9"/>
    </contour>
    <contour>
      <point x="128" y="189" type="curve" smooth="yes"/>
      <point x="128" y="517" type="line" smooth="yes"/>
      <point x="128" y="612"/>
      <point x="147" y="649"/>
      <point x="207" y="649" type="curve" smooth="yes"/>
      <point x="266" y="649"/>
      <point x="285" y="613"/>
      <point x="285" y="517" type="curve" smooth="yes"/>
      <point x="285" y="189" type="line" smooth="yes"/>
      <point x="285" y="93"/>
      <point x="265" y="57"/>
      <point x="207" y="57" type="curve" smooth="yes"/>
      <point x="149" y="57"/>
      <point x="128" y="90"/>
    </contour>
  </outline>
</glyph>
<glyph name="two" format="2">
  <advance width="401"/>
  <unicode hex="0032"/>
  <outline>
    <contour>
      <point x="48" y="0" type="line"/>
      <point x="350" y="0" type="line"/>
      <point x="350" y="67" type="line"/>
      <point x="134" y="67" type="line"/>
      <point x="306" y="372" type="line" smooth="yes"/>
      <point x="323" y="400"/>
      <point x="335" y="426"/>
      <point x="342" y="449" type="curve" smooth="yes"/>
      <point x="349" y="472"/>
      <point x="353" y="498"/>
      <point x="353" y="527" type="curve" smooth="yes"/>
      <point x="353" y="565" type="line" smooth="yes"/>
      <point x="353" y="611"/>
      <point x="340" y="648"/>
      <point x="313" y="675" type="curve" smooth="yes"/>
      <point x="286" y="702"/>
      <point x="248" y="716"/>
      <point x="201" y="716" type="curve" smooth="yes"/>
      <point x="154" y="716"/>
      <point x="116" y="702"/>
      <point x="89" y="675" type="curve" smooth="yes"/>
      <point x="62" y="648"/>
      <point x="48" y="611"/>
      <point x="48" y="564" type="curve" smooth="yes"/>
      <point x="48" y="516" type="line"/>
      <point x="122" y="516" type="line"/>
      <point x="122" y="557" type="line" smooth="yes"/>
      <point x="122" y="586"/>
      <point x="129" y="609"/>
      <point x="143" y="625" type="curve" smooth="yes"/>
      <point x="156" y="641"/>
      <point x="175" y="649"/>
      <point x="198" y="649" type="curve" smooth="yes"/>
      <point x="225" y="649"/>
      <point x="246" y="641"/>
      <point x="259" y="625" type="curve" smooth="yes"/>
      <point x="272" y="609"/>
      <point x="279" y="586"/>
      <point x="279" y="556" type="curve" smooth="yes"/>
      <point x="279" y="527" type="line" smooth="yes"/>
      <point x="279" y="504"/>
      <point x="276" y="484"/>
      <point x="270" y="465" type="curve" smooth="yes"/>
      <point x="264" y="446"/>
      <point x="255" y="427"/>
      <point x="244" y="407" type="curve" smooth="yes"/>
      <point x="48" y="59" type="line"/>
    </contour>
  </outline>
</glyph>
<glyph name="three" format="2">
  <advance width="414"/>
  <unicode hex="0033"/>
  <outline>
    <contour>
      <point x="203" y="-9" type="curve" smooth="yes"/>
      <point x="304" y="-9"/>
      <point x="361" y="48"/>
      <point x="361" y="155" type="curve" smooth="yes"/>
      <point x="361" y="229" type="line" smooth="yes"/>
      <point x="361" y="303"/>
      <point x="342" y="345"/>
      <point x="284" y="371" type="curve"/>
      <point x="338" y="395"/>
      <point x="357" y="435"/>
      <point x="357" y="503" type="curve" smooth="yes"/>
      <point x="357" y="563" type="line" smooth="yes"/>
      <point x="357" y="661"/>
      <point x="303" y="716"/>
      <point x="205" y="716" type="curve" smooth="yes"/>
      <point x="105" y="716"/>
      <point x="50" y="660"/>
      <point x="50" y="562" type="curve" smooth="yes"/>
      <point x="50" y="520" type="line"/>
      <point x="124" y="520" type="line"/>
      <point x="124" y="561" type="line" smooth="yes"/>
      <point x="124" y="616"/>
      <point x="152" y="649"/>
      <point x="203" y="649" type="curve" smooth="yes"/>
      <point x="255" y="649"/>
      <point x="284" y="617"/>
      <point x="284" y="555" type="curve" smooth="yes"/>
      <point x="284" y="500" type="line" smooth="yes"/>
      <point x="284" y="434"/>
      <point x="260" y="400"/>
      <point x="200" y="400" type="curve" smooth="yes"/>
      <point x="170" y="400" type="line"/>
      <point x="170" y="334" type="line"/>
      <point x="200" y="334" type="line" smooth="yes"/>
      <point x="262" y="334"/>
      <point x="287" y="298"/>
      <point x="287" y="230" type="curve" smooth="yes"/>
      <point x="287" y="152" type="line" smooth="yes"/>
      <point x="287" y="89"/>
      <point x="257" y="57"/>
      <point x="204" y="57" type="curve" smooth="yes"/>
      <point x="151" y="57"/>
      <point x="122" y="90"/>
      <point x="122" y="145" type="curve" smooth="yes"/>
      <point x="122" y="184" type="line"/>
      <point x="48" y="184" type="line"/>
      <point x="48" y="139" type="line" smooth="yes"/>
      <point x="48" y="45"/>
      <point x="103" y="-9"/>
    </contour>
  </outline>
</glyph>
<glyph name="five" format="2">
  <advance width="407"/>
  <unicode hex="0035"/>
  <outline>
    <contour>
      <point x="203" y="-9" type="curve" smooth="yes"/>
      <point x="304" y="-9"/>
      <point x="354" y="48"/>
      <point x="354" y="162" type="curve" smooth="yes"/>
      <point x="354" y="287" type="line" smooth="yes"/>
      <point x="354" y="398"/>
      <point x="308" y="454"/>
      <point x="217" y="454" type="curve" smooth="yes"/>
      <point x="198" y="454"/>
      <point x="182" y="451"/>
      <point x="167" y="445" type="curve" smooth="yes"/>
      <point x="152" y="438"/>
      <point x="140" y="430"/>
      <point x="131" y="420" type="curve"/>
      <point x="131" y="637" type="line"/>
      <point x="348" y="637" type="line"/>
      <point x="348" y="707" type="line"/>
      <point x="61" y="707" type="line"/>
      <point x="61" y="337" type="line"/>
      <point x="125" y="337" type="line"/>
      <point x="143" y="370"/>
      <point x="169" y="387"/>
      <point x="203" y="387" type="curve" smooth="yes"/>
      <point x="230" y="387"/>
      <point x="249" y="379"/>
      <point x="262" y="363" type="curve" smooth="yes"/>
      <point x="274" y="346"/>
      <point x="280" y="321"/>
      <point x="280" y="286" type="curve" smooth="yes"/>
      <point x="280" y="159" type="line" smooth="yes"/>
      <point x="280" y="124"/>
      <point x="274" y="98"/>
      <point x="261" y="82" type="curve" smooth="yes"/>
      <point x="248" y="65"/>
      <point x="229" y="57"/>
      <point x="202" y="57" type="curve" smooth="yes"/>
      <point x="150" y="58"/>
      <point x="124" y="89"/>
      <point x="124" y="151" type="curve" smooth="yes"/>
      <point x="124" y="168" type="line"/>
      <point x="53" y="168" type="line"/>
      <point x="53" y="150" type="line" smooth="yes"/>
      <point x="53" y="98"/>
      <point x="66" y="59"/>
      <point x="92" y="32" type="curve" smooth="yes"/>
      <point x="117" y="5"/>
      <point x="154" y="-9"/>
    </contour>
  </outline>
</glyph>
<glyph name="six" format="2">
  <advance width="404"/>
  <unicode hex="0036"/>
  <outline>
    <contour>
      <point x="203" y="-9" type="curve" smooth="yes"/>
      <point x="295" y="-9"/>
      <point x="356" y="53"/>
      <point x="356" y="153" type="curve" smooth="yes"/>
      <point x="356" y="268" type="line" smooth="yes"/>
      <point x="356" y="364"/>
      <point x="303" y="422"/>
      <point x="215" y="422" type="curve" smooth="yes"/>
      <point x="192" y="422"/>
      <point x="169" y="416"/>
      <point x="159" y="408" type="curve"/>
      <point x="283" y="707" type="line"/>
      <point x="208" y="707" type="line"/>
      <point x="81" y="404" type="line" smooth="yes"/>
      <point x="55" y="346"/>
      <point x="48" y="315"/>
      <point x="48" y="257" type="curve" smooth="yes"/>
      <point x="48" y="155" type="line" smooth="yes"/>
      <point x="48" y="54"/>
      <point x="106" y="-9"/>
    </contour>
    <contour>
      <point x="123" y="153" type="curve" smooth="yes"/>
      <point x="123" y="266" type="line" smooth="yes"/>
      <point x="123" y="323"/>
      <point x="152" y="356"/>
      <point x="203" y="356" type="curve" smooth="yes"/>
      <point x="253" y="356"/>
      <point x="282" y="322"/>
      <point x="282" y="262" type="curve" smooth="yes"/>
      <point x="282" y="152" type="line" smooth="yes"/>
      <point x="282" y="88"/>
      <point x="251" y="57"/>
      <point x="203" y="57" type="curve" smooth="yes"/>
      <point x="150" y="57"/>
      <point x="123" y="92"/>
    </contour>
  </outline>
</glyph>
<glyph name="eight" format="2">
  <advance width="412"/>
  <unicode hex="0038"/>
  <outline>
    <contour>
      <point x="206" y="-9" type="curve" smooth="yes"/>
      <point x="304" y="-9"/>
      <point x="359" y="53"/>
      <point x="359" y="157" type="curve" smooth="yes"/>
      <point x="359" y="234" type="line" smooth="yes"/>
      <point x="360" y="300"/>
      <point x="336" y="346"/>
      <point x="289" y="371" type="curve"/>
      <point x="330" y="393"/>
      <point x="355" y="438"/>
      <point x="355" y="497" type="curve" smooth="yes"/>
      <point x="355" y="562" type="line" smooth="yes"/>
      <point x="355" y="656"/>
      <point x="298" y="716"/>
      <point x="206" y="716" type="curve" smooth="yes"/>
      <point x="116" y="716"/>
      <point x="57" y="656"/>
      <point x="57" y="562" type="curve" smooth="yes"/>
      <point x="57" y="497" type="line" smooth="yes"/>
      <point x="57" y="441"/>
      <point x="82" y="393"/>
      <point x="124" y="371" type="curve"/>
      <point x="77" y="345"/>
      <point x="53" y="299"/>
      <point x="53" y="234" type="curve" smooth="yes"/>
      <point x="53" y="157" type="line" smooth="yes"/>
      <point x="53" y="53"/>
      <point x="110" y="-9"/>
    </contour>
    <contour>
      <point x="122" y="159" type="curve" smooth="yes"/>
      <point x="122" y="236" type="line" smooth="yes"/>
      <point x="122" y="298"/>
      <point x="146" y="339"/>
      <point x="206" y="339" type="curve" smooth="yes"/>
      <point x="263" y="339"/>
      <point x="291" y="305"/>
      <point x="291" y="236" type="curve" smooth="yes"/>
      <point x="291" y="159" type="line" smooth="yes"/>
      <point x="291" y="90"/>
      <point x="263" y="55"/>
      <point x="206" y="54" type="curve" smooth="yes"/>
      <point x="147" y="54"/>
      <point x="122" y="94"/>
    </contour>
    <contour>
      <point x="126" y="497" type="curve" smooth="yes"/>
      <point x="126" y="562" type="line" smooth="yes"/>
      <point x="126" y="615"/>
      <point x="155" y="652"/>
      <point x="206" y="652" type="curve" smooth="yes"/>
      <point x="255" y="652"/>
      <point x="287" y="619"/>
      <point x="287" y="562" type="curve" smooth="yes"/>
      <point x="287" y="497" type="line" smooth="yes"/>
      <point x="287" y="439"/>
      <point x="260" y="401"/>
      <point x="206" y="401" type="curve" smooth="yes"/>
      <point x="153" y="401"/>
      <point x="126" y="438"/>
    </contour>
  </outline>
</glyph>
<glyph name="nine" format="2">
  <advance width="404"/>
  <unicode hex="0039"/>
  <outline>
    <contour>
      <point x="122" y="0" type="line"/>
      <point x="197" y="0" type="line"/>
      <point x="324" y="302" type="line" smooth="yes"/>
      <point x="336" y="331"/>
      <point x="344" y="356"/>
      <point x="349" y="377" type="curve" smooth="yes"/>
      <point x="354" y="397"/>
      <point x="356" y="421"/>
      <point x="356" y="450" type="curve" smooth="yes"/>
      <point x="356" y="552" type="line" smooth="yes"/>
      <point x="356" y="603"/>
      <point x="343" y="643"/>
      <point x="316" y="672" type="curve" smooth="yes"/>
      <point x="289" y="701"/>
      <point x="251" y="716"/>
      <point x="203" y="716" type="curve" smooth="yes"/>
      <point x="156" y="716"/>
      <point x="118" y="702"/>
      <point x="90" y="673" type="curve" smooth="yes"/>
      <point x="62" y="644"/>
      <point x="48" y="605"/>
      <point x="48" y="554" type="curve" smooth="yes"/>
      <point x="48" y="438" type="line" smooth="yes"/>
      <point x="48" y="391"/>
      <point x="61" y="353"/>
      <point x="86" y="326" type="curve" smooth="yes"/>
      <point x="111" y="299"/>
      <point x="145" y="285"/>
      <point x="189" y="285" type="curve" smooth="yes"/>
      <point x="201" y="285"/>
      <point x="212" y="286"/>
      <point x="223" y="289" type="curve" smooth="yes"/>
      <point x="234" y="292"/>
      <point x="242" y="295"/>
      <point x="247" y="299" type="curve"/>
    </contour>
    <contour>
      <point x="144" y="375" type="curve" smooth="yes"/>
      <point x="130" y="391"/>
      <point x="123" y="414"/>
      <point x="123" y="444" type="curve" smooth="yes"/>
      <point x="123" y="555" type="line" smooth="yes"/>
      <point x="123" y="585"/>
      <point x="130" y="608"/>
      <point x="144" y="625" type="curve" smooth="yes"/>
      <point x="157" y="641"/>
      <point x="177" y="649"/>
      <point x="203" y="649" type="curve" smooth="yes"/>
      <point x="228" y="649"/>
      <point x="248" y="641"/>
      <point x="262" y="625" type="curve" smooth="yes"/>
      <point x="275" y="608"/>
      <point x="282" y="585"/>
      <point x="282" y="554" type="curve" smooth="yes"/>
      <point x="282" y="440" type="line" smooth="yes"/>
      <point x="282" y="411"/>
      <point x="275" y="389"/>
      <point x="262" y="374" type="curve" smooth="yes"/>
      <point x="248" y="358"/>
      <point x="228" y="350"/>
      <point x="203" y="350" type="curve" smooth="yes"/>
      <point x="177" y="350"/>
      <point x="157" y="358"/>
    </contour>
  </outline>
</glyph>
<glyph name="semicolon" format="2">
  <advance width="163"/>
  <unicode hex="003B"/>
  <outline>
    <contour>
      <point x="50" y="-144" type="line"/>
      <point x="120" y="-84" type="line"/>
      <point x="120" y="95" type="line"/>
      <point x="50" y="95" type="line"/>
    </contour>
    <contour>
      <point x="42" y="346" type="line"/>
      <point x="122" y="346" type="line"/>
      <point x="122" y="437" type="line"/>
      <point x="42" y="437" type="line"/>
    </contour>
  </outline>
</glyph>
<glyph name="less" format="2">
  <advance width="430"/>
  <unicode hex="003C"/>
  <outline>
    <contour>
      <point x="390" y="108" type="line"/>
      <point x="390" y="176" type="line"/>
      <point x="126" y="283" type="line"/>
      <point x="390" y="389" type="line"/>
      <point x="390" y="458" type="line"/>
      <point x="41" y="315" type="line"/>
      <point x="41" y="250" type="line"/>
    </contour>
  </outline>
</glyph>
<glyph name="question" format="2">
  <advance width="371"/>
  <unicode hex="003F"/>
  <outline>
    <contour>
      <point x="145" y="182" type="line"/>
      <point x="220" y="182" type="line"/>
      <point x="220" y="247" type="line" smooth="yes"/>
      <point x="220" y="284"/>
      <point x="223" y="302"/>
      <point x="246" y="341" type="curve" smooth="yes"/>
      <point x="284" y="404" type="line" smooth="yes"/>
      <point x="321" y="470"/>
      <point x="334" y="501"/>
      <point x="334" y="552" type="curve" smooth="yes"/>
      <point x="334" y="654"/>
      <point x="280" y="717"/>
      <point x="182" y="717" type="curve" smooth="yes"/>
      <point x="81" y="717"/>
      <point x="31" y="653"/>
      <point x="31" y="524" type="curve"/>
      <point x="105" y="524" type="line"/>
      <point x="105" y="612"/>
      <point x="124" y="650"/>
      <point x="183" y="650" type="curve" smooth="yes"/>
      <point x="234" y="650"/>
      <point x="259" y="617"/>
      <point x="259" y="552" type="curve" smooth="yes"/>
      <point x="259" y="510"/>
      <point x="250" y="486"/>
      <point x="224" y="442" type="curve" smooth="yes"/>
      <point x="181" y="371" type="line" smooth="yes"/>
      <point x="151" y="319"/>
      <point x="145" y="298"/>
      <point x="145" y="252" type="curve" smooth="yes"/>
    </contour>
    <contour>
      <point x="142" y="0" type="line"/>
      <point x="222" y="0" type="line"/>
      <point x="222" y="99" type="line"/>
      <point x="142" y="99" type="line"/>
    </contour>
  </outline>
</glyph>
<glyph name="at" format="2">
  <advance width="751"/>
  <unicode hex="0040"/>
  <outline>
    <contour>
      <point x="375" y="-131" type="curve" smooth="yes"/>
      <point x="456" y="-131"/>
      <point x="522" y="-113"/>
      <point x="587" y="-68" type="curve"/>
      <point x="554" y="-16" type="line"/>
      <point x="500" y="-54"/>
      <point x="449" y="-69"/>
      <point x="375" y="-69" type="curve" smooth="yes"/>
      <point x="213" y="-69"/>
      <point x="119" y="36"/>
      <point x="119" y="214" type="curve" smooth="yes"/>
      <point x="119" y="371" type="line" smooth="yes"/>
      <point x="119" y="544"/>
      <point x="212" y="646"/>
      <point x="375" y="646" type="curve" smooth="yes"/>
      <point x="537" y="646"/>
      <point x="634" y="543"/>
      <point x="634" y="379" type="curve" smooth="yes"/>
      <point x="634" y="214" type="line" smooth="yes"/>
      <point x="634" y="152"/>
      <point x="616" y="119"/>
      <point x="570" y="119" type="curve" smooth="yes"/>
      <point x="536" y="119"/>
      <point x="510" y="144"/>
      <point x="510" y="190" type="curve" smooth="yes"/>
      <point x="510" y="502" type="line"/>
      <point x="440" y="502" type="line"/>
      <point x="440" y="463" type="line"/>
      <point x="421" y="494"/>
      <point x="391" y="510"/>
      <point x="352" y="510" type="curve" smooth="yes"/>
      <point x="270" y="510"/>
      <point x="239" y="456"/>
      <point x="239" y="360" type="curve" smooth="yes"/>
      <point x="239" y="210" type="line" smooth="yes"/>
      <point x="239" y="112"/>
      <point x="274" y="57"/>
      <point x="354" y="57" type="curve" smooth="yes"/>
      <point x="408" y="57"/>
      <point x="442" y="78"/>
      <point x="460" y="124" type="curve"/>
      <point x="478" y="82"/>
      <point x="518" y="57"/>
      <point x="569" y="57" type="curve" smooth="yes"/>
      <point x="652" y="57"/>
      <point x="700" y="112"/>
      <point x="700" y="221" type="curve" smooth="yes"/>
      <point x="700" y="380" type="line" smooth="yes"/>
      <point x="700" y="572"/>
      <point x="566" y="709"/>
      <point x="375" y="709" type="curve" smooth="yes"/>
      <point x="179" y="709"/>
      <point x="51" y="571"/>
      <point x="51" y="371" type="curve" smooth="yes"/>
      <point x="51" y="213" type="line" smooth="yes"/>
      <point x="51" y="3"/>
      <point x="176" y="-131"/>
    </contour>
    <contour>
      <point x="309" y="211" type="curve" smooth="yes"/>
      <point x="309" y="359" type="line" smooth="yes"/>
      <point x="309" y="414"/>
      <point x="325" y="446"/>
      <point x="374" y="446" type="curve" smooth="yes"/>
      <point x="422" y="446"/>
      <point x="440" y="416"/>
      <point x="440" y="358" type="curve" smooth="yes"/>
      <point x="440" y="212" type="line" smooth="yes"/>
      <point x="440" y="153"/>
      <point x="423" y="121"/>
      <point x="374" y="121" type="curve" smooth="yes"/>
      <point x="328" y="121"/>
      <point x="309" y="153"/>
    </contour>
  </outline>
</glyph>
<glyph name="B" format="2">
  <advance width="481"/>
  <unicode hex="0042"/>
  <outline>
    <contour>
      <point x="61" y="0" type="line"/>
      <point x="243" y="0" type="line" smooth="yes"/>
      <point x="370" y="0"/>
      <point x="428" y="66"/>
      <point x="428" y="195" type="curve" smooth="yes"/>
      <point x="428" y="291"/>
      <point x="395" y="348"/>
      <point x="328" y="367" type="curve"/>
      <point x="390" y="390"/>
      <point x="421" y="441"/>
      <point x="421" y="522" type="curve" smooth="yes"/>
      <point x="421" y="647"/>
      <point x="367" y="707"/>
      <point x="242" y="707" type="curve" smooth="yes"/>
      <point x="61" y="707" type="line"/>
    </contour>
    <contour>
      <point x="136" y="67" type="line"/>
      <point x="136" y="333" type="line"/>
      <point x="237" y="333" type="line" smooth="yes"/>
      <point x="314" y="333"/>
      <point x="353" y="289"/>
      <point x="353" y="200" type="curve" smooth="yes"/>
      <point x="353" y="108"/>
      <point x="317" y="67"/>
      <point x="237" y="67" type="curve" smooth="yes"/>
    </contour>
    <contour>
      <point x="136" y="399" type="line"/>
      <point x="136" y="640" type="line"/>
      <point x="237" y="640" type="line" smooth="yes"/>
      <point x="313" y="640"/>
      <point x="346" y="606"/>
      <point x="346" y="518" type="curve" smooth="yes"/>
      <point x="346" y="440"/>
      <point x="310" y="399"/>
      <point x="236" y="399" type="curve" smooth="yes"/>
    </contour>
  </outline>
</glyph>
<glyph name="C" format="2">
  <advance width="489"/>
  <unicode hex="0043"/>
  <outline>
    <contour>
      <point x="247" y="-8" type="curve" smooth="yes"/>
      <point x="357" y="-8"/>
      <point x="434" y="60"/>
      <point x="434" y="196" type="curve" smooth="yes"/>
      <point x="434" y="206" type="line"/>
      <point x="361" y="206" type="line"/>
      <point x="361" y="197" type="line" smooth="yes"/>
      <point x="361" y="102"/>
      <point x="316" y="59"/>
      <point x="247" y="59" type="curve" smooth="yes"/>
      <point x="168" y="60"/>
      <point x="128" y="108"/>
      <point x="128" y="205" type="curve" smooth="yes"/>
      <point x="128" y="494" type="line" smooth="yes"/>
      <point x="128" y="600"/>
      <point x="169" y="648"/>
      <point x="247" y="648" type="curve" smooth="yes"/>
      <point x="318" y="648"/>
      <point x="361" y="605"/>
      <point x="361" y="508" type="curve" smooth="yes"/>
      <point x="361" y="501" type="line"/>
      <point x="436" y="501" type="line"/>
      <point x="436" y="510" type="line" smooth="yes"/>
      <point x="436" y="647"/>
      <point x="359" y="716"/>
      <point x="246" y="716" type="curve" smooth="yes"/>
      <point x="129" y="716"/>
      <point x="53" y="644"/>
      <point x="53" y="501" type="curve" smooth="yes"/>
      <point x="53" y="206" type="line" smooth="yes"/>
      <point x="53" y="64"/>
      <point x="131" y="-8"/>
    </contour>
  </outline>
</glyph>
<glyph name="D" format="2">
  <advance width="488"/>
  <unicode hex="0044"/>
  <outline>
    <contour>
      <point x="61" y="707" type="line"/>
      <point x="245" y="707" type="line" smooth="yes"/>
      <point x="302" y="707"/>
      <point x="348" y="689"/>
      <point x="383" y="654" type="curve" smooth="yes"/>
      <point x="418" y="618"/>
      <point x="435" y="564"/>
      <point x="435" y="493" type="curve" smooth="yes"/>
      <point x="435" y="214" type="line" smooth="yes"/>
      <point x="435" y="143"/>
      <point x="418" y="90"/>
      <point x="383" y="54" type="curve" smooth="yes"/>
      <point x="348" y="18"/>
      <point x="302" y="0"/>
      <point x="245" y="0" type="curve" smooth="yes"/>
      <point x="61" y="0" type="line"/>
    </contour>
    <contour>
      <point x="245" y="67" type="line" smooth="yes"/>
      <point x="282" y="67"/>
      <point x="310" y="79"/>
      <point x="330" y="104" type="curve" smooth="yes"/>
      <point x="350" y="128"/>
      <point x="360" y="164"/>
      <point x="360" y="213" type="curve" smooth="yes"/>
      <point x="360" y="485" type="line" smooth="yes"/>
      <point x="360" y="537"/>
      <point x="350" y="576"/>
      <point x="331" y="602" type="curve" smooth="yes"/>
      <point x="311" y="627"/>
      <point x="282" y="640"/>
      <point x="245" y="640" type="curve" smooth="yes"/>
      <point x="136" y="640" type="line"/>
      <point x="136" y="67" type="line"/>
    </contour>
  </outline>
</glyph>
<glyph name="E" format="2">
  <advance width="412"/>
  <unicode hex="0045"/>
  <outline>
    <contour>
      <point x="61" y="0" type="line"/>
      <point x="376" y="0" type="line"/>
      <point x="376" y="67" type="line"/>
      <point x="135" y="67" type="line"/>
      <point x="135" y="326" type="line"/>
      <point x="342" y="326" type="line"/>
      <point x="342" y="393" type="line"/>
      <point x="135" y="393" type="line"/>
      <point x="135" y="640" type="line"/>
      <point x="376" y="640" type="line"/>
      <point x="376" y="707" type="line"/>
      <point x="61" y="707" type="line"/>
    </contour>
  </outline>
</glyph>
<glyph name="F" format="2">
  <advance width="406"/>
  <unicode hex="0046"/>
  <outline>
    <contour>
      <point x="61" y="0" type="line"/>
      <point x="136" y="0" type="line"/>
      <point x="136" y="323" type="line"/>
      <point x="343" y="323" type="line"/>
      <point x="343" y="390" type="line"/>
      <point x="136" y="390" type="line"/>
      <point x="136" y="640" type="line"/>
      <point x="376" y="640" type="line"/>
      <point x="376" y="707" type="line"/>
      <point x="61" y="707" type="line"/>
    </contour>
  </outline>
</glyph>
<glyph name="G" format="2">
  <advance width="489"/>
  <unicode hex="0047"/>
  <outline>
    <contour>
      <point x="246" y="-8" type="curve" smooth="yes"/>
      <point x="303" y="-8"/>
      <point x="349" y="10"/>
      <point x="384" y="46" type="curve" smooth="yes"/>
      <point x="419" y="81"/>
      <point x="436" y="134"/>
      <point x="436" y="205" type="curve" smooth="yes"/>
      <point x="436" y="362" type="line"/>
      <point x="245" y="362" type="line"/>
      <point x="245" y="300" type="line"/>
      <point x="361" y="300" type="line"/>
      <point x="361" y="202" type="line" smooth="yes"/>
      <point x="361" y="154"/>
      <point x="351" y="118"/>
      <point x="332" y="95" type="curve" smooth="yes"/>
      <point x="312" y="71"/>
      <point x="283" y="59"/>
      <point x="246" y="59" type="curve" smooth="yes"/>
      <point x="167" y="60"/>
      <point x="128" y="108"/>
      <point x="128" y="205" type="curve" smooth="yes"/>
      <point x="128" y="494" type="line" smooth="yes"/>
      <point x="128" y="597"/>
      <point x="167" y="648"/>
      <point x="246" y="648" type="curve" smooth="yes"/>
      <point x="281" y="648"/>
      <point x="309" y="637"/>
      <point x="330" y="615" type="curve" smooth="yes"/>
      <point x="351" y="592"/>
      <point x="361" y="561"/>
      <point x="361" y="520" type="curve" smooth="yes"/>
      <point x="361" y="508" type="line"/>
      <point x="436" y="508" type="line"/>
      <point x="436" y="520" type="line" smooth="yes"/>
      <point x="436" y="583"/>
      <point x="419" y="631"/>
      <point x="384" y="665" type="curve" smooth="yes"/>
      <point x="349" y="699"/>
      <point x="303" y="716"/>
      <point x="246" y="716" type="curve" smooth="yes"/>
      <point x="188" y="716"/>
      <point x="141" y="698"/>
      <point x="106" y="663" type="curve" smooth="yes"/>
      <point x="71" y="627"/>
      <point x="53" y="573"/>
      <point x="53" y="501" type="curve" smooth="yes"/>
      <point x="53" y="206" type="line" smooth="yes"/>
      <point x="53" y="135"/>
      <point x="71" y="81"/>
      <point x="106" y="46" type="curve" smooth="yes"/>
      <point x="141" y="10"/>
      <point x="188" y="-8"/>
    </contour>
  </outline>
</glyph>
<glyph name="H" format="2">
  <advance width="489"/>
  <unicode hex="0048"/>
  <outline>
    <contour>
      <point x="61" y="0" type="line"/>
      <point x="136" y="0" type="line"/>
      <point x="136" y="327" type="line"/>
      <point x="353" y="327" type="line"/>
      <point x="353" y="0" type="line"/>
      <point x="428" y="0" type="line"/>
      <point x="428" y="707" type="line"/>
      <point x="353" y="707" type="line"/>
      <point x="353" y="393" type="line"/>
      <point x="136" y="393" type="line"/>
      <point x="136" y="707" type="line"/>
      <point x="61" y="707" type="line"/>
    </contour>
  </outline>
</glyph>
<glyph name="I" format="2">
  <advance width="208"/>
  <unicode hex="0049"/>
  <anchor x="104" y="707" name="top"/>
  <outline>
    <contour>
      <point x="68" y="0" type="line"/>
      <point x="141" y="0" type="line"/>
      <point x="141" y="707" type="line"/>
      <point x="68" y="707" type="line"/>
    </contour>
  </outline>
</glyph>
<glyph name="J" format="2">
  <advance width="269"/>
  <unicode hex="004A"/>
  <anchor x="164" y="707" name="top"/>
  <outline>
    <contour>
      <point x="25" y="0" type="line"/>
      <point x="60" y="0" type="line" smooth="yes"/>
      <point x="150" y="0"/>
      <point x="202" y="46"/>
      <point x="202" y="140" type="curve" smooth="yes"/>
      <point x="202" y="707" type="line"/>
      <point x="127" y="707" type="line"/>
      <point x="127" y="148" type="line" smooth="yes"/>
      <point x="127" y="95"/>
      <point x="101" y="67"/>
      <point x="54" y="67" type="curve" smooth="yes"/>
      <point x="25" y="67" type="line"/>
    </contour>
  </outline>
</glyph>
<glyph name="M" format="2">
  <advance width="612"/>
  <unicode hex="004D"/>
  <outline>
    <contour>
      <point x="61" y="0" type="line"/>
      <point x="136" y="0" type="line"/>
      <point x="136" y="540" type="line"/>
      <point x="282" y="164" type="line"/>
      <point x="331" y="164" type="line"/>
      <point x="476" y="543" type="line"/>
      <point x="476" y="0" type="line"/>
      <point x="551" y="0" type="line"/>
      <point x="551" y="707" type="line"/>
      <point x="476" y="707" type="line"/>
      <point x="307" y="270" type="line"/>
      <point x="136" y="707" type="line"/>
      <point x="61" y="707" type="line"/>
    </contour>
  </outline>
</glyph>
<glyph name="O" format="2">
  <advance width="489"/>
  <unicode hex="004F"/>
  <anchor x="245" y="707" name="top"/>
  <outline>
    <contour>
      <point x="245" y="-8" type="curve" smooth="yes"/>
      <point x="359" y="-8"/>
      <point x="436" y="64"/>
      <point x="436" y="206" type="curve" smooth="yes"/>
      <point x="436" y="501" type="line" smooth="yes"/>
      <point x="436" y="644"/>
      <point x="362" y="716"/>
      <point x="245" y="716" type="curve" smooth="yes"/>
      <point x="129" y="716"/>
      <point x="53" y="647"/>
      <point x="53" y="501" type="curve" smooth="yes"/>
      <point x="53" y="206" type="line" smooth="yes"/>
      <point x="53" y="63"/>
      <point x="130" y="-8"/>
    </contour>
    <contour>
      <point x="246" y="59" type="curve" smooth="yes"/>
      <point x="167" y="60"/>
      <point x="128" y="108"/>
      <point x="128" y="205" type="curve" smooth="yes"/>
      <point x="128" y="494" type="line" smooth="yes"/>
      <point x="128" y="597"/>
      <point x="167" y="648"/>
      <point x="246" y="648" type="curve" smooth="yes"/>
      <point x="319" y="648"/>
      <point x="361" y="599"/>
      <point x="361" y="494" type="curve" smooth="yes"/>
      <point x="361" y="205" type="line" smooth="yes"/>
      <point x="361" y="106"/>
      <point x="319" y="59"/>
    </contour>
  </outline>
</glyph>
<glyph name="P" format="2">
  <advance width="450"/>
  <unicode hex="0050"/>
  <outline>
    <contour>
      <point x="61" y="0" type="line"/>
      <point x="136" y="0" type="line"/>
      <point x="136" y="299" type="line"/>
      <point x="245" y="299" type="line" smooth="yes"/>
      <point x="366" y="299"/>
      <point x="426" y="366"/>
      <point x="426" y="501" type="curve" smooth="yes"/>
      <point x="426" y="569"/>
      <point x="412" y="620"/>
      <point x="383" y="655" type="curve" smooth="yes"/>
      <point x="354" y="690"/>
      <point x="308" y="707"/>
      <point x="245" y="707" type="curve" smooth="yes"/>
      <point x="61" y="707" type="line"/>
    </contour>
    <contour>
      <point x="136" y="366" type="line"/>
      <point x="136" y="640" type="line"/>
      <point x="241" y="640" type="line" smooth="yes"/>
      <point x="279" y="640"/>
      <point x="307" y="629"/>
      <point x="325" y="608" type="curve" smooth="yes"/>
      <point x="343" y="586"/>
      <point x="352" y="550"/>
      <point x="352" y="501" type="curve" smooth="yes"/>
      <point x="352" y="453"/>
      <point x="343" y="419"/>
      <point x="325" y="398" type="curve" smooth="yes"/>
      <point x="307" y="377"/>
      <point x="279" y="366"/>
      <point x="241" y="366" type="curve" smooth="yes"/>
    </contour>
  </outline>
</glyph>
<glyph name="Q" format="2">
  <advance width="489"/>
  <unicode hex="0051"/>
  <anchor x="245" y="707" name="top"/>
  <outline>
    <contour>
      <point x="342" y="-146" type="line"/>
      <point x="403" y="-122" type="line"/>
      <point x="346" y="16" type="line"/>
      <point x="403" y="47"/>
      <point x="436" y="110"/>
      <point x="436" y="206" type="curve" smooth="yes"/>
      <point x="436" y="501" type="line" smooth="yes"/>
      <point x="436" y="644"/>
      <point x="362" y="716"/>
      <point x="245" y="716" type="curve" smooth="yes"/>
      <point x="129" y="716"/>
      <point x="53" y="647"/>
      <point x="53" y="501" type="curve" smooth="yes"/>
      <point x="53" y="206" type="line" smooth="yes"/>
      <point x="53" y="63"/>
      <point x="130" y="-8"/>
      <point x="245" y="-8" type="curve" smooth="yes"/>
      <point x="259" y="-8"/>
      <point x="272" y="-7"/>
      <point x="284" y="-5" type="curve"/>
    </contour>
    <contour>
      <point x="128" y="205" type="curve" smooth="yes"/>
      <point x="128" y="494" type="line" smooth="yes"/>
      <point x="128" y="597"/>
      <point x="167" y="648"/>
      <point x="246" y="648" type="curve" smooth="yes"/>
      <point x="319" y="648"/>
      <point x="361" y="599"/>
      <point x="361" y="494" type="curve" smooth="yes"/>
      <point x="361" y="205" type="line" smooth="yes"/>
      <point x="361" y="106"/>
      <point x="319" y="59"/>
      <point x="246" y="59" type="curve" smooth="yes"/>
      <point x="167" y="60"/>
      <point x="128" y="108"/>
    </contour>
  </outline>
</glyph>
<glyph name="R" format="2">
  <advance width="477"/>
  <unicode hex="0052"/>
  <outline>
    <contour>
      <point x="61" y="0" type="line"/>
      <point x="136" y="0" type="line"/>
      <point x="136" y="309" type="line"/>
      <point x="250" y="309" type="line"/>
      <point x="367" y="0" type="line"/>
      <point x="446" y="0" type="line"/>
      <point x="322" y="321" type="line"/>
      <point x="391" y="344"/>
      <point x="426" y="406"/>
      <point x="426" y="507" type="curve" smooth="yes"/>
      <point x="426" y="642"/>
      <point x="371" y="707"/>
      <point x="248" y="707" type="curve" smooth="yes"/>
      <point x="61" y="707" type="line"/>
    </contour>
    <contour>
      <point x="136" y="375" type="line"/>
      <point x="136" y="640" type="line"/>
      <point x="247" y="640" type="line" smooth="yes"/>
      <point x="321" y="640"/>
      <point x="351" y="597"/>
      <point x="351" y="507" type="curve" smooth="yes"/>
      <point x="351" y="419"/>
      <point x="319" y="375"/>
      <point x="247" y="375" type="curve" smooth="yes"/>
    </contour>
  </outline>
</glyph>
<glyph name="S" format="2">
  <advance width="436"/>
  <unicode hex="0053"/>
  <outline>
    <contour>
      <point x="212" y="-7" type="curve" smooth="yes"/>
      <point x="333" y="-7"/>
      <point x="399" y="62"/>
      <point x="399" y="187" type="curve" smooth="yes"/>
      <point x="399" y="296"/>
      <point x="350" y="348"/>
      <point x="257" y="386" type="curve" smooth="yes"/>
      <point x="215" y="402" type="line" smooth="yes"/>
      <point x="137" y="432"/>
      <point x="109" y="466"/>
      <point x="109" y="532" type="curve" smooth="yes"/>
      <point x="109" y="606"/>
      <point x="143" y="650"/>
      <point x="215" y="650" type="curve" smooth="yes"/>
      <point x="284" y="650"/>
      <point x="320" y="609"/>
      <point x="325" y="526" type="curve"/>
      <point x="395" y="526" type="line"/>
      <point x="389" y="653"/>
      <point x="325" y="717"/>
      <point x="216" y="717" type="curve" smooth="yes"/>
      <point x="100" y="717"/>
      <point x="34" y="640"/>
      <point x="34" y="528" type="curve" smooth="yes"/>
      <point x="34" y="432"/>
      <point x="79" y="380"/>
      <point x="173" y="342" type="curve" smooth="yes"/>
      <point x="214" y="326" type="line" smooth="yes"/>
      <point x="295" y="292"/>
      <point x="325" y="261"/>
      <point x="325" y="186" type="curve" smooth="yes"/>
      <point x="325" y="99"/>
      <point x="288" y="59"/>
      <point x="215" y="59" type="curve" smooth="yes"/>
      <point x="142" y="59"/>
      <point x="103" y="99"/>
      <point x="99" y="194" type="curve"/>
      <point x="27" y="194" type="line"/>
      <point x="29" y="62"/>
      <point x="92" y="-7"/>
    </contour>
  </outline>
</glyph>
<glyph name="T" format="2">
  <advance width="389"/>
  <unicode hex="0054"/>
  <outline>
    <contour>
      <point x="158" y="0" type="line"/>
      <point x="231" y="0" type="line"/>
      <point x="231" y="640" type="line"/>
      <point x="377" y="640" type="line"/>
      <point x="377" y="707" type="line"/>
      <point x="12" y="707" type="line"/>
      <point x="12" y="640" type="line"/>
      <point x="158" y="640" type="line"/>
    </contour>
  </outline>
</glyph>
<glyph name="U" format="2">
  <advance width="491"/>
  <unicode hex="0055"/>
  <outline>
    <contour>
      <point x="246" y="-8" type="curve" smooth="yes"/>
      <point x="355" y="-8"/>
      <point x="430" y="65"/>
      <point x="430" y="180" type="curve" smooth="yes"/>
      <point x="430" y="707" type="line"/>
      <point x="355" y="707" type="line"/>
      <point x="355" y="184" type="line" smooth="yes"/>
      <point x="355" y="106"/>
      <point x="314" y="59"/>
      <point x="246" y="59" type="curve" smooth="yes"/>
      <point x="178" y="59"/>
      <point x="136" y="104"/>
      <point x="136" y="184" type="curve" smooth="yes"/>
      <point x="136" y="707" type="line"/>
      <point x="61" y="707" type="line"/>
      <point x="61" y="180" type="line" smooth="yes"/>
      <point x="61" y="68"/>
      <point x="142" y="-8"/>
    </contour>
  </outline>
</glyph>
<glyph name="X" format="2">
  <advance width="425"/>
  <unicode hex="0058"/>
  <outline>
    <contour>
      <point x="9" y="0" type="line"/>
      <point x="93" y="0" type="line"/>
      <point x="213" y="293" type="line"/>
      <point x="332" y="0" type="line"/>
      <point x="417" y="0" type="line"/>
      <point x="255" y="368" type="line"/>
      <point x="403" y="707" type="line"/>
      <point x="319" y="707" type="line"/>
      <point x="214" y="441" type="line"/>
      <point x="106" y="707" type="line"/>
      <point x="23" y="707" type="line"/>
      <point x="170" y="367" type="line"/>
    </contour>
  </outline>
</glyph>
<glyph name="Y" format="2">
  <advance width="401"/>
  <unicode hex="0059"/>
  <outline>
    <contour>
      <point x="164" y="0" type="line"/>
      <point x="238" y="0" type="line"/>
      <point x="238" y="294" type="line"/>
      <point x="392" y="707" type="line"/>
      <point x="310" y="707" type="line"/>
      <point x="201" y="383" type="line"/>
      <point x="91" y="707" type="line"/>
      <point x="9" y="707" type="line"/>
      <point x="164" y="294" type="line"/>
    </contour>
  </outline>
</glyph>
<glyph name="a" format="2">
  <advance width="410"/>
  <unicode hex="0061"/>
  <outline>
    <contour>
      <point x="176" y="-8" type="curve" smooth="yes"/>
      <point x="224" y="-8"/>
      <point x="260" y="11"/>
      <point x="284" y="49" type="curve"/>
      <point x="284" y="0" type="line"/>
      <point x="350" y="0" type="line"/>
      <point x="350" y="384" type="line" smooth="yes"/>
      <point x="350" y="433"/>
      <point x="337" y="471"/>
      <point x="311" y="498" type="curve" smooth="yes"/>
      <point x="285" y="525"/>
      <point x="248" y="538"/>
      <point x="199" y="538" type="curve" smooth="yes"/>
      <point x="155" y="538"/>
      <point x="120" y="526"/>
      <point x="94" y="501" type="curve" smooth="yes"/>
      <point x="67" y="476"/>
      <point x="54" y="442"/>
      <point x="54" y="399" type="curve" smooth="yes"/>
      <point x="54" y="390" type="line"/>
      <point x="120" y="390" type="line"/>
      <point x="120" y="398" type="line" smooth="yes"/>
      <point x="120" y="423"/>
      <point x="127" y="442"/>
      <point x="141" y="456" type="curve" smooth="yes"/>
      <point x="154" y="469"/>
      <point x="174" y="476"/>
      <point x="199" y="476" type="curve" smooth="yes"/>
      <point x="254" y="476"/>
      <point x="281" y="446"/>
      <point x="281" y="387" type="curve" smooth="yes"/>
      <point x="281" y="302" type="line"/>
      <point x="199" y="302" type="line" smooth="yes"/>
      <point x="148" y="302"/>
      <point x="109" y="289"/>
      <point x="82" y="262" type="curve" smooth="yes"/>
      <point x="55" y="235"/>
      <point x="41" y="198"/>
      <point x="41" y="150" type="curve" smooth="yes"/>
      <point x="41" y="100"/>
      <point x="53" y="61"/>
      <point x="76" y="34" type="curve" smooth="yes"/>
      <point x="99" y="6"/>
      <point x="132" y="-8"/>
    </contour>
    <contour>
      <point x="193" y="52" type="curve" smooth="yes"/>
      <point x="138" y="53"/>
      <point x="111" y="86"/>
      <point x="111" y="151" type="curve" smooth="yes"/>
      <point x="111" y="217"/>
      <point x="143" y="250"/>
      <point x="206" y="250" type="curve" smooth="yes"/>
      <point x="281" y="250" type="line"/>
      <point x="281" y="152" type="line" smooth="yes"/>
      <point x="281" y="120"/>
      <point x="273" y="95"/>
      <point x="258" y="78" type="curve" smooth="yes"/>
      <point x="242" y="61"/>
      <point x="220" y="52"/>
    </contour>
  </outline>
</glyph>
<glyph name="c" format="2">
  <advance width="418"/>
  <unicode hex="0063"/>
  <outline>
    <contour>
      <point x="212" y="-8" type="curve" smooth="yes"/>
      <point x="309" y="-8"/>
      <point x="368" y="47"/>
      <point x="368" y="162" type="curve" smooth="yes"/>
      <point x="368" y="175" type="line"/>
      <point x="298" y="175" type="line"/>
      <point x="298" y="161" type="line" smooth="yes"/>
      <point x="298" y="90"/>
      <point x="269" y="54"/>
      <point x="211" y="54" type="curve" smooth="yes"/>
      <point x="153" y="54"/>
      <point x="121" y="88"/>
      <point x="121" y="180" type="curve" smooth="yes"/>
      <point x="121" y="349" type="line" smooth="yes"/>
      <point x="121" y="441"/>
      <point x="152" y="475"/>
      <point x="212" y="475" type="curve" smooth="yes"/>
      <point x="269" y="475"/>
      <point x="298" y="440"/>
      <point x="298" y="369" type="curve" smooth="yes"/>
      <point x="298" y="354" type="line"/>
      <point x="368" y="354" type="line"/>
      <point x="368" y="369" type="line" smooth="yes"/>
      <point x="368" y="483"/>
      <point x="311" y="538"/>
      <point x="211" y="538" type="curve" smooth="yes"/>
      <point x="109" y="538"/>
      <point x="51" y="481"/>
      <point x="51" y="357" type="curve" smooth="yes"/>
      <point x="51" y="172" type="line" smooth="yes"/>
      <point x="51" y="48"/>
      <point x="110" y="-8"/>
    </contour>
  </outline>
</glyph>
<glyph name="d" format="2">
  <advance width="421"/>
  <unicode hex="0064"/>
  <outline>
    <contour>
      <point x="190" y="-8" type="curve" smooth="yes"/>
      <point x="235" y="-8"/>
      <point x="269" y="11"/>
      <point x="292" y="48" type="curve"/>
      <point x="292" y="0" type="line"/>
      <point x="361" y="0" type="line"/>
      <point x="361" y="707" type="line"/>
      <point x="292" y="707" type="line"/>
      <point x="292" y="478" type="line"/>
      <point x="269" y="518"/>
      <point x="235" y="538"/>
      <point x="190" y="538" type="curve" smooth="yes"/>
      <point x="107" y="538"/>
      <point x="51" y="478"/>
      <point x="51" y="357" type="curve" smooth="yes"/>
      <point x="51" y="172" type="line" smooth="yes"/>
      <point x="51" y="50"/>
      <point x="108" y="-8"/>
    </contour>
    <contour>
      <point x="204" y="54" type="curve" smooth="yes"/>
      <point x="150" y="54"/>
      <point x="121" y="90"/>
      <point x="121" y="180" type="curve" smooth="yes"/>
      <point x="121" y="349" type="line" smooth="yes"/>
      <point x="121" y="433"/>
      <point x="149" y="475"/>
      <point x="204" y="475" type="curve" smooth="yes"/>
      <point x="263" y="475"/>
      <point x="292" y="433"/>
      <point x="292" y="348" type="curve" smooth="yes"/>
      <point x="292" y="179" type="line" smooth="yes"/>
      <point x="292" y="97"/>
      <point x="262" y="54"/>
    </contour>
  </outline>
</glyph>
<glyph name="e" format="2">
  <advance width="417"/>
  <unicode hex="0065"/>
  <outline>
    <contour>
      <point x="211" y="-8" type="curve" smooth="yes"/>
      <point x="309" y="-8"/>
      <point x="366" y="49"/>
      <point x="366" y="159" type="curve" smooth="yes"/>
      <point x="366" y="162" type="line"/>
      <point x="297" y="162" type="line"/>
      <point x="297" y="158" type="line" smooth="yes"/>
      <point x="297" y="87"/>
      <point x="269" y="52"/>
      <point x="213" y="52" type="curve" smooth="yes"/>
      <point x="156" y="52"/>
      <point x="121" y="86"/>
      <point x="121" y="181" type="curve" smooth="yes"/>
      <point x="121" y="244" type="line"/>
      <point x="367" y="244" type="line"/>
      <point x="367" y="351" type="line" smooth="yes"/>
      <point x="367" y="473"/>
      <point x="306" y="538"/>
      <point x="208" y="538" type="curve" smooth="yes"/>
      <point x="108" y="538"/>
      <point x="51" y="471"/>
      <point x="51" y="351" type="curve" smooth="yes"/>
      <point x="51" y="180" type="line" smooth="yes"/>
      <point x="51" y="55"/>
      <point x="104" y="-8"/>
    </contour>
    <contour>
      <point x="121" y="297" type="line"/>
      <point x="121" y="349" type="line" smooth="yes"/>
      <point x="121" y="439"/>
      <point x="151" y="475"/>
      <point x="209" y="475" type="curve" smooth="yes"/>
      <point x="267" y="475"/>
      <point x="298" y="441"/>
      <point x="298" y="351" type="curve" smooth="yes"/>
      <point x="298" y="297" type="line"/>
    </contour>
  </outline>
</glyph>
<glyph name="f" format="2">
  <advance width="294"/>
  <unicode hex="0066"/>
  <outline>
    <contour>
      <point x="103" y="0" type="line"/>
      <point x="173" y="0" type="line"/>
      <point x="173" y="475" type="line"/>
      <point x="264" y="475" type="line"/>
      <point x="264" y="529" type="line"/>
      <point x="173" y="529" type="line"/>
      <point x="173" y="578" type="line" smooth="yes"/>
      <point x="173" y="603"/>
      <point x="179" y="622"/>
      <point x="190" y="634" type="curve" smooth="yes"/>
      <point x="201" y="645"/>
      <point x="219" y="651"/>
      <point x="244" y="651" type="curve" smooth="yes"/>
      <point x="264" y="651" type="line"/>
      <point x="264" y="707" type="line"/>
      <point x="238" y="707" type="line" smooth="yes"/>
      <point x="194" y="707"/>
      <point x="161" y="695"/>
      <point x="138" y="672" type="curve" smooth="yes"/>
      <point x="115" y="648"/>
      <point x="103" y="613"/>
      <point x="103" y="568" type="curve" smooth="yes"/>
      <point x="103" y="529" type="line"/>
      <point x="40" y="529" type="line"/>
      <point x="40" y="475" type="line"/>
      <point x="103" y="475" type="line"/>
    </contour>
  </outline>
</glyph>
<glyph name="g" format="2">
  <advance width="421"/>
  <unicode hex="0067"/>
  <outline>
    <contour>
      <point x="206" y="-166" type="curve" smooth="yes"/>
      <point x="312" y="-166"/>
      <point x="361" y="-96"/>
      <point x="361" y="16" type="curve" smooth="yes"/>
      <point x="361" y="529" type="line"/>
      <point x="292" y="529" type="line"/>
      <point x="292" y="478" type="line"/>
      <point x="269" y="518"/>
      <point x="235" y="538"/>
      <point x="190" y="538" type="curve" smooth="yes"/>
      <point x="107" y="538"/>
      <point x="51" y="477"/>
      <point x="51" y="358" type="curve" smooth="yes"/>
      <point x="51" y="212" type="line" smooth="yes"/>
      <point x="51" y="92"/>
      <point x="108" y="33"/>
      <point x="190" y="33" type="curve" smooth="yes"/>
      <point x="235" y="33"/>
      <point x="269" y="51"/>
      <point x="292" y="88" type="curve"/>
      <point x="292" y="10" type="line" smooth="yes"/>
      <point x="292" y="-69"/>
      <point x="265" y="-105"/>
      <point x="206" y="-105" type="curve" smooth="yes"/>
      <point x="155" y="-105"/>
      <point x="126" y="-77"/>
      <point x="124" y="-32" type="curve"/>
      <point x="57" y="-32" type="line"/>
      <point x="59" y="-113"/>
      <point x="111" y="-166"/>
    </contour>
    <contour>
      <point x="121" y="220" type="curve" smooth="yes"/>
      <point x="121" y="350" type="line" smooth="yes"/>
      <point x="121" y="440"/>
      <point x="152" y="475"/>
      <point x="204" y="475" type="curve" smooth="yes"/>
      <point x="263" y="475"/>
      <point x="292" y="433"/>
      <point x="292" y="349" type="curve" smooth="yes"/>
      <point x="292" y="220" type="line" smooth="yes"/>
      <point x="292" y="138"/>
      <point x="262" y="95"/>
      <point x="204" y="95" type="curve" smooth="yes"/>
      <point x="150" y="95"/>
      <point x="121" y="130"/>
    </contour>
  </outline>
</glyph>
<glyph name="h" format="2">
  <advance width="425"/>
  <unicode hex="0068"/>
  <outline>
    <contour>
      <point x="60" y="0" type="line"/>
      <point x="130" y="0" type="line"/>
      <point x="130" y="380" type="line" smooth="yes"/>
      <point x="130" y="441"/>
      <point x="162" y="475"/>
      <point x="213" y="475" type="curve" smooth="yes"/>
      <point x="264" y="475"/>
      <point x="296" y="441"/>
      <point x="296" y="380" type="curve" smooth="yes"/>
      <point x="296" y="0" type="line"/>
      <point x="366" y="0" type="line"/>
      <point x="366" y="383" type="line" smooth="yes"/>
      <point x="366" y="482"/>
      <point x="315" y="538"/>
      <point x="232" y="538" type="curve" smooth="yes"/>
      <point x="189" y="538"/>
      <point x="151" y="516"/>
      <point x="130" y="483" type="curve"/>
      <point x="130" y="707" type="line"/>
      <point x="60" y="707" type="line"/>
    </contour>
  </outline>
</glyph>
<glyph name="j" format="2">
  <advance width="199"/>
  <unicode hex="006A"/>
  <outline>
    <contour>
      <point x="-26" y="-156" type="line"/>
      <point x="-8" y="-156" type="line" smooth="yes"/>
      <point x="81" y="-156"/>
      <point x="133" y="-108"/>
      <point x="133" y="-15" type="curve" smooth="yes"/>
      <point x="133" y="529" type="line"/>
      <point x="62" y="529" type="line"/>
      <point x="62" y="-12" type="line" smooth="yes"/>
      <point x="62" y="-67"/>
      <point x="39" y="-93"/>
      <point x="-10" y="-93" type="curve" smooth="yes"/>
      <point x="-26" y="-93" type="line"/>
    </contour>
    <contour>
      <point x="62" y="613" type="line"/>
      <point x="133" y="613" type="line"/>
      <point x="133" y="706" type="line"/>
      <point x="62" y="706" type="line"/>
    </contour>
  </outline>
</glyph>
<glyph name="k" format="2">
  <advance width="418"/>
  <unicode hex="006B"/>
  <outline>
    <contour>
      <point x="60" y="0" type="line"/>
      <point x="130" y="0" type="line"/>
      <point x="130" y="157" type="line"/>
      <point x="202" y="262" type="line"/>
      <point x="324" y="0" type="line"/>
      <point x="403" y="0" type="line"/>
      <point x="245" y="326" type="line"/>
      <point x="384" y="529" type="line"/>
      <point x="307" y="529" type="line"/>
      <point x="130" y="254" type="line"/>
      <point x="130" y="707" type="line"/>
      <point x="60" y="707" type="line"/>
    </contour>
  </outline>
</glyph>
<glyph name="l" format="2">
  <advance width="239"/>
  <unicode hex="006C"/>
  <outline>
    <contour>
      <point x="202" y="0" type="curve" smooth="yes"/>
      <point x="219" y="0" type="line"/>
      <point x="219" y="62" type="line"/>
      <point x="204" y="62" type="line" smooth="yes"/>
      <point x="155" y="62"/>
      <point x="131" y="89"/>
      <point x="131" y="143" type="curve" smooth="yes"/>
      <point x="131" y="707" type="line"/>
      <point x="60" y="707" type="line"/>
      <point x="60" y="140" type="line" smooth="yes"/>
      <point x="60" y="51"/>
      <point x="109" y="0"/>
    </contour>
  </outline>
</glyph>
<glyph name="m" format="2">
  <advance width="661"/>
  <unicode hex="006D"/>
  <outline>
    <contour>
      <point x="60" y="0" type="line"/>
      <point x="131" y="0" type="line"/>
      <point x="131" y="380" type="line" smooth="yes"/>
      <point x="131" y="440"/>
      <point x="163" y="475"/>
      <point x="213" y="475" type="curve" smooth="yes"/>
      <point x="263" y="475"/>
      <point x="296" y="440"/>
      <point x="296" y="380" type="curve" smooth="yes"/>
      <point x="296" y="0" type="line"/>
      <point x="366" y="0" type="line"/>
      <point x="366" y="381" type="line" smooth="yes"/>
      <point x="366" y="439"/>
      <point x="400" y="475"/>
      <point x="450" y="475" type="curve" smooth="yes"/>
      <point x="499" y="475"/>
      <point x="530" y="441"/>
      <point x="530" y="380" type="curve" smooth="yes"/>
      <point x="530" y="0" type="line"/>
      <point x="601" y="0" type="line"/>
      <point x="601" y="383" type="line" smooth="yes"/>
      <point x="601" y="481"/>
      <point x="554" y="538"/>
      <point x="464" y="538" type="curve" smooth="yes"/>
      <point x="413" y="538"/>
      <point x="372" y="512"/>
      <point x="347" y="471" type="curve"/>
      <point x="325" y="513"/>
      <point x="282" y="538"/>
      <point x="232" y="538" type="curve" smooth="yes"/>
      <point x="187" y="538"/>
      <point x="148" y="514"/>
      <point x="129" y="481" type="curve"/>
      <point x="129" y="529" type="line"/>
      <point x="60" y="529" type="line"/>
    </contour>
  </outline>
</glyph>
<glyph name="n" format="2">
  <advance width="425"/>
  <unicode hex="006E"/>
  <outline>
    <contour>
      <point x="60" y="0" type="line"/>
      <point x="130" y="0" type="line"/>
      <point x="130" y="380" type="line" smooth="yes"/>
      <point x="130" y="440"/>
      <point x="163" y="475"/>
      <point x="213" y="475" type="curve" smooth="yes"/>
      <point x="264" y="475"/>
      <point x="296" y="441"/>
      <point x="296" y="380" type="curve" smooth="yes"/>
      <point x="296" y="0" type="line"/>
      <point x="366" y="0" type="line"/>
      <point x="366" y="383" type="line" smooth="yes"/>
      <point x="366" y="482"/>
      <point x="315" y="538"/>
      <point x="232" y="538" type="curve" smooth="yes"/>
      <point x="188" y="538"/>
      <point x="148" y="515"/>
      <point x="128" y="481" type="curve"/>
      <point x="128" y="529" type="line"/>
      <point x="60" y="529" type="line"/>
    </contour>
  </outline>
</glyph>
<glyph name="o" format="2">
  <advance width="418"/>
  <unicode hex="006F"/>
  <outline>
    <contour>
      <point x="211" y="-8" type="curve" smooth="yes"/>
      <point x="308" y="-8"/>
      <point x="368" y="49"/>
      <point x="368" y="172" type="curve" smooth="yes"/>
      <point x="368" y="357" type="line" smooth="yes"/>
      <point x="368" y="482"/>
      <point x="308" y="538"/>
      <point x="211" y="538" type="curve" smooth="yes"/>
      <point x="109" y="538"/>
      <point x="51" y="481"/>
      <point x="51" y="357" type="curve" smooth="yes"/>
      <point x="51" y="172" type="line" smooth="yes"/>
      <point x="51" y="48"/>
      <point x="109" y="-8"/>
    </contour>
    <contour>
      <point x="121" y="180" type="curve" smooth="yes"/>
      <point x="121" y="349" type="line" smooth="yes"/>
      <point x="121" y="441"/>
      <point x="152" y="475"/>
      <point x="210" y="475" type="curve" smooth="yes"/>
      <point x="268" y="475"/>
      <point x="298" y="439"/>
      <point x="298" y="349" type="curve" smooth="yes"/>
      <point x="298" y="180" type="line" smooth="yes"/>
      <point x="298" y="89"/>
      <point x="267" y="54"/>
      <point x="210" y="54" type="curve" smooth="yes"/>
      <point x="152" y="54"/>
      <point x="121" y="88"/>
    </contour>
  </outline>
</glyph>
<glyph name="p" format="2">
  <advance width="421"/>
  <unicode hex="0070"/>
  <outline>
    <contour>
      <point x="60" y="-156" type="line"/>
      <point x="130" y="-156" type="line"/>
      <point x="130" y="47" type="line"/>
      <point x="153" y="10"/>
      <point x="186" y="-8"/>
      <point x="231" y="-8" type="curve" smooth="yes"/>
      <point x="273" y="-8"/>
      <point x="307" y="7"/>
      <point x="333" y="37" type="curve" smooth="yes"/>
      <point x="358" y="66"/>
      <point x="371" y="111"/>
      <point x="371" y="172" type="curve" smooth="yes"/>
      <point x="371" y="357" type="line" smooth="yes"/>
      <point x="371" y="418"/>
      <point x="358" y="464"/>
      <point x="332" y="494" type="curve" smooth="yes"/>
      <point x="306" y="523"/>
      <point x="272" y="538"/>
      <point x="230" y="538" type="curve" smooth="yes"/>
      <point x="187" y="537"/>
      <point x="153" y="517"/>
      <point x="130" y="478" type="curve"/>
      <point x="130" y="529" type="line"/>
      <point x="60" y="529" type="line"/>
    </contour>
    <contour>
      <point x="153" y="86" type="curve" smooth="yes"/>
      <point x="138" y="107"/>
      <point x="130" y="138"/>
      <point x="130" y="179" type="curve" smooth="yes"/>
      <point x="130" y="348" type="line" smooth="yes"/>
      <point x="130" y="390"/>
      <point x="138" y="422"/>
      <point x="153" y="443" type="curve" smooth="yes"/>
      <point x="168" y="464"/>
      <point x="189" y="475"/>
      <point x="218" y="475" type="curve" smooth="yes"/>
      <point x="273" y="475"/>
      <point x="301" y="433"/>
      <point x="301" y="349" type="curve" smooth="yes"/>
      <point x="301" y="180" type="line" smooth="yes"/>
      <point x="301" y="135"/>
      <point x="294" y="103"/>
      <point x="280" y="84" type="curve" smooth="yes"/>
      <point x="266" y="64"/>
      <point x="245" y="54"/>
      <point x="218" y="54" type="curve" smooth="yes"/>
      <point x="189" y="54"/>
      <point x="168" y="65"/>
    </contour>
  </outline>
</glyph>
<glyph name="q" format="2">
  <advance width="421"/>
  <unicode hex="0071"/>
  <outline>
    <contour>
      <point x="292" y="-156" type="line"/>
      <point x="361" y="-156" type="line"/>
      <point x="361" y="529" type="line"/>
      <point x="292" y="529" type="line"/>
      <point x="292" y="478" type="line"/>
      <point x="269" y="518"/>
      <point x="235" y="538"/>
      <point x="191" y="538" type="curve" smooth="yes"/>
      <point x="106" y="538"/>
      <point x="51" y="478"/>
      <point x="51" y="357" type="curve" smooth="yes"/>
      <point x="51" y="172" type="line" smooth="yes"/>
      <point x="51" y="50"/>
      <point x="108" y="-8"/>
      <point x="190" y="-8" type="curve" smooth="yes"/>
      <point x="235" y="-8"/>
      <point x="269" y="10"/>
      <point x="292" y="47" type="curve"/>
    </contour>
    <contour>
      <point x="121" y="180" type="curve" smooth="yes"/>
      <point x="121" y="349" type="line" smooth="yes"/>
      <point x="121" y="433"/>
      <point x="149" y="475"/>
      <point x="204" y="475" type="curve" smooth="yes"/>
      <point x="263" y="475"/>
      <point x="292" y="433"/>
      <point x="292" y="348" type="curve" smooth="yes"/>
      <point x="292" y="179" type="line" smooth="yes"/>
      <point x="292" y="97"/>
      <point x="262" y="54"/>
      <point x="204" y="54" type="curve" smooth="yes"/>
      <point x="150" y="54"/>
      <point x="121" y="90"/>
    </contour>
  </outline>
</glyph>
<glyph name="r" format="2">
  <advance width="296"/>
  <unicode hex="0072"/>
  <outline>
    <contour>
      <point x="60" y="0" type="line"/>
      <point x="130" y="0" type="line"/>
      <point x="130" y="376" type="line" smooth="yes"/>
      <point x="130" y="436"/>
      <point x="167" y="475"/>
      <point x="225" y="475" type="curve" smooth="yes"/>
      <point x="240" y="475"/>
      <point x="257" y="472"/>
      <point x="276" y="466" type="curve"/>
      <point x="276" y="534" type="line"/>
      <point x="266" y="537"/>
      <point x="254" y="538"/>
      <point x="239" y="538" type="curve" smooth="yes"/>
      <point x="191" y="538"/>
      <point x="150" y="519"/>
      <point x="128" y="477" type="curve"/>
      <point x="128" y="529" type="line"/>
      <point x="60" y="529" type="line"/>
    </contour>
  </outline>
</glyph>
<glyph name="s" format="2">
  <advance width="391"/>
  <unicode hex="0073"/>
  <outline>
    <contour>
      <point x="196" y="-8" type="curve" smooth="yes"/>
      <point x="245" y="-8"/>
      <point x="284" y="5"/>
      <point x="313" y="32" type="curve" smooth="yes"/>
      <point x="341" y="58"/>
      <point x="355" y="95"/>
      <point x="355" y="143" type="curve" smooth="yes"/>
      <point x="355" y="182"/>
      <point x="346" y="212"/>
      <point x="328" y="233" type="curve" smooth="yes"/>
      <point x="310" y="254"/>
      <point x="283" y="272"/>
      <point x="247" y="287" type="curve" smooth="yes"/>
      <point x="180" y="314" type="line" smooth="yes"/>
      <point x="156" y="325"/>
      <point x="139" y="337"/>
      <point x="130" y="350" type="curve" smooth="yes"/>
      <point x="121" y="363"/>
      <point x="116" y="379"/>
      <point x="116" y="398" type="curve" smooth="yes"/>
      <point x="116" y="423"/>
      <point x="123" y="442"/>
      <point x="138" y="456" type="curve" smooth="yes"/>
      <point x="153" y="470"/>
      <point x="173" y="477"/>
      <point x="198" y="477" type="curve" smooth="yes"/>
      <point x="226" y="477"/>
      <point x="248" y="469"/>
      <point x="263" y="453" type="curve" smooth="yes"/>
      <point x="278" y="436"/>
      <point x="285" y="413"/>
      <point x="285" y="383" type="curve" smooth="yes"/>
      <point x="285" y="377" type="line"/>
      <point x="349" y="377" type="line"/>
      <point x="349" y="390" type="line" smooth="yes"/>
      <point x="349" y="435"/>
      <point x="336" y="471"/>
      <point x="309" y="498" type="curve" smooth="yes"/>
      <point x="282" y="525"/>
      <point x="246" y="538"/>
      <point x="199" y="538" type="curve" smooth="yes"/>
      <point x="152" y="538"/>
      <point x="115" y="525"/>
      <point x="88" y="499" type="curve" smooth="yes"/>
      <point x="60" y="472"/>
      <point x="46" y="437"/>
      <point x="46" y="393" type="curve" smooth="yes"/>
      <point x="46" y="329"/>
      <point x="80" y="283"/>
      <point x="147" y="255" type="curve" smooth="yes"/>
      <point x="214" y="227" type="line" smooth="yes"/>
      <point x="240" y="216"/>
      <point x="259" y="205"/>
      <point x="270" y="192" type="curve" smooth="yes"/>
      <point x="281" y="179"/>
      <point x="286" y="161"/>
      <point x="286" y="138" type="curve" smooth="yes"/>
      <point x="286" y="109"/>
      <point x="278" y="88"/>
      <point x="262" y="74" type="curve" smooth="yes"/>
      <point x="246" y="60"/>
      <point x="225" y="53"/>
      <point x="198" y="53" type="curve" smooth="yes"/>
      <point x="169" y="53"/>
      <point x="147" y="61"/>
      <point x="130" y="76" type="curve" smooth="yes"/>
      <point x="113" y="91"/>
      <point x="105" y="113"/>
      <point x="105" y="142" type="curve" smooth="yes"/>
      <point x="105" y="148" type="line"/>
      <point x="41" y="148" type="line"/>
      <point x="41" y="142" type="line" smooth="yes"/>
      <point x="41" y="96"/>
      <point x="55" y="60"/>
      <point x="83" y="33" type="curve" smooth="yes"/>
      <point x="110" y="6"/>
      <point x="148" y="-8"/>
    </contour>
  </outline>
</glyph>
<glyph name="t" format="2">
  <advance width="302"/>
  <unicode hex="0074"/>
  <outline>
    <contour>
      <point x="241" y="0" type="curve" smooth="yes"/>
      <point x="258" y="0" type="line"/>
      <point x="258" y="61" type="line"/>
      <point x="244" y="61" type="line" smooth="yes"/>
      <point x="217" y="61"/>
      <point x="198" y="68"/>
      <point x="185" y="81" type="curve" smooth="yes"/>
      <point x="172" y="94"/>
      <point x="165" y="115"/>
      <point x="165" y="142" type="curve" smooth="yes"/>
      <point x="165" y="475" type="line"/>
      <point x="266" y="475" type="line"/>
      <point x="266" y="529" type="line"/>
      <point x="165" y="529" type="line"/>
      <point x="165" y="672" type="line"/>
      <point x="95" y="640" type="line"/>
      <point x="95" y="529" type="line"/>
      <point x="28" y="529" type="line"/>
      <point x="28" y="475" type="line"/>
      <point x="95" y="475" type="line"/>
      <point x="95" y="139" type="line" smooth="yes"/>
      <point x="96" y="46"/>
      <point x="144" y="0"/>
    </contour>
  </outline>
</glyph>
<glyph name="u" format="2">
  <advance width="425"/>
  <unicode hex="0075"/>
  <outline>
    <contour>
      <point x="213" y="-8" type="curve" smooth="yes"/>
      <point x="316" y="-8"/>
      <point x="366" y="48"/>
      <point x="366" y="163" type="curve" smooth="yes"/>
      <point x="366" y="529" type="line"/>
      <point x="296" y="529" type="line"/>
      <point x="296" y="210" type="line" smooth="yes"/>
      <point x="296" y="89"/>
      <point x="279" y="54"/>
      <point x="214" y="54" type="curve" smooth="yes"/>
      <point x="148" y="54"/>
      <point x="130" y="98"/>
      <point x="130" y="210" type="curve" smooth="yes"/>
      <point x="130" y="529" type="line"/>
      <point x="60" y="529" type="line"/>
      <point x="60" y="163" type="line" smooth="yes"/>
      <point x="60" y="48"/>
      <point x="110" y="-8"/>
    </contour>
  </outline>
</glyph>
<glyph name="v" format="2">
  <advance width="379"/>
  <unicode hex="0076"/>
  <outline>
    <contour>
      <point x="155" y="0" type="line"/>
      <point x="224" y="0" type="line"/>
      <point x="365" y="529" type="line"/>
      <point x="289" y="529" type="line"/>
      <point x="190" y="111" type="line"/>
      <point x="91" y="529" type="line"/>
      <point x="15" y="529" type="line"/>
    </contour>
  </outline>
</glyph>
<glyph name="y" format="2">
  <advance width="379"/>
  <unicode hex="0079"/>
  <outline>
    <contour>
      <point x="46" y="-158" type="line"/>
      <point x="56" y="-158" type="line" smooth="yes"/>
      <point x="99" y="-158"/>
      <point x="133" y="-150"/>
      <point x="158" y="-133" type="curve" smooth="yes"/>
      <point x="183" y="-117"/>
      <point x="200" y="-89"/>
      <point x="210" y="-50" type="curve" smooth="yes"/>
      <point x="365" y="529" type="line"/>
      <point x="289" y="529" type="line"/>
      <point x="191" y="125" type="line"/>
      <point x="91" y="529" type="line"/>
      <point x="15" y="529" type="line"/>
      <point x="159" y="-12" type="line"/>
      <point x="155" y="-29" type="line" smooth="yes"/>
      <point x="149" y="-53"/>
      <point x="139" y="-70"/>
      <point x="125" y="-80" type="curve" smooth="yes"/>
      <point x="110" y="-90"/>
      <point x="90" y="-95"/>
      <point x="63" y="-95" type="curve" smooth="yes"/>
      <point x="46" y="-95" type="line"/>
    </contour>
  </outline>
</glyph>
<glyph name="braceleft" format="2">
  <advance width="314"/>
  <unicode hex="007B"/>
  <outline>
    <contour>
      <point x="119" y="30" type="curve" smooth="yes"/>
      <point x="119" y="228" type="line" smooth="yes"/>
      <point x="119" y="255"/>
      <point x="114" y="275"/>
      <point x="104" y="287" type="curve" smooth="yes"/>
      <point x="94" y="299"/>
      <point x="76" y="305"/>
      <point x="51" y="306" type="curve"/>
      <point x="51" y="371" type="line"/>
      <point x="76" y="372"/>
      <point x="94" y="378"/>
      <point x="104" y="390" type="curve" smooth="yes"/>
      <point x="114" y="402"/>
      <point x="119" y="422"/>
      <point x="119" y="451" type="curve" smooth="yes"/>
      <point x="119" y="642" type="line" smooth="yes"/>
      <point x="119" y="681"/>
      <point x="128" y="710"/>
      <point x="145" y="729" type="curve" smooth="yes"/>
      <point x="162" y="748"/>
      <point x="188" y="758"/>
      <point x="223" y="758" type="curve" smooth="yes"/>
      <point x="263" y="758" type="line"/>
      <point x="263" y="691" type="line"/>
      <point x="238" y="691" type="line" smooth="yes"/>
      <point x="208" y="691"/>
      <point x="193" y="674"/>
      <point x="193" y="641" type="curve" smooth="yes"/>
      <point x="193" y="467" type="line" smooth="yes"/>
      <point x="193" y="427"/>
      <point x="189" y="398"/>
      <point x="181" y="380" type="curve" smooth="yes"/>
      <point x="173" y="361"/>
      <point x="157" y="348"/>
      <point x="134" y="339" type="curve"/>
      <point x="157" y="329"/>
      <point x="173" y="315"/>
      <point x="181" y="297" type="curve" smooth="yes"/>
      <point x="189" y="279"/>
      <point x="193" y="250"/>
      <point x="193" y="210" type="curve" smooth="yes"/>
      <point x="193" y="31" type="line" smooth="yes"/>
      <point x="193" y="-2"/>
      <point x="208" y="-19"/>
      <point x="238" y="-19" type="curve" smooth="yes"/>
      <point x="263" y="-19" type="line"/>
      <point x="263" y="-86" type="line"/>
      <point x="223" y="-86" type="line" smooth="yes"/>
      <point x="188" y="-86"/>
      <point x="162" y="-76"/>
      <point x="145" y="-57" type="curve" smooth="yes"/>
      <point x="128" y="-38"/>
      <point x="119" y="-9"/>
    </contour>
  </outline>
</glyph>
<glyph name="braceright" format="2">
  <advance width="314"/>
  <unicode hex="007D"/>
  <outline>
    <contour>
      <point x="51" y="-86" type="line"/>
      <point x="91" y="-86" type="line" smooth="yes"/>
      <point x="161" y="-86"/>
      <point x="196" y="-48"/>
      <point x="196" y="30" type="curve" smooth="yes"/>
      <point x="196" y="228" type="line" smooth="yes"/>
      <point x="196" y="281"/>
      <point x="212" y="304"/>
      <point x="263" y="306" type="curve"/>
      <point x="263" y="371" type="line"/>
      <point x="212" y="373"/>
      <point x="196" y="394"/>
      <point x="196" y="451" type="curve" smooth="yes"/>
      <point x="196" y="642" type="line" smooth="yes"/>
      <point x="196" y="720"/>
      <point x="161" y="758"/>
      <point x="91" y="758" type="curve" smooth="yes"/>
      <point x="51" y="758" type="line"/>
      <point x="51" y="691" type="line"/>
      <point x="76" y="691" type="line" smooth="yes"/>
      <point x="106" y="691"/>
      <point x="121" y="674"/>
      <point x="121" y="641" type="curve" smooth="yes"/>
      <point x="121" y="467" type="line" smooth="yes"/>
      <point x="121" y="386"/>
      <point x="133" y="357"/>
      <point x="180" y="339" type="curve"/>
      <point x="132" y="319"/>
      <point x="121" y="289"/>
      <point x="121" y="210" type="curve" smooth="yes"/>
      <point x="121" y="31" type="line" smooth="yes"/>
      <point x="121" y="-2"/>
      <point x="106" y="-19"/>
      <point x="76" y="-19" type="curve" smooth="yes"/>
      <point x="51" y="-19" type="line"/>
    </contour>
  </outline>
</glyph>
<glyph name="asciitilde" format="2">
  <advance width="430"/>
  <unicode hex="007E"/>
  <outline>
    <contour>
      <point x="86" y="218" type="line"/>
      <point x="109" y="261"/>
      <point x="126" y="273"/>
      <point x="151" y="273" type="curve" smooth="yes"/>
      <point x="164" y="274"/>
      <point x="181" y="266"/>
      <point x="204" y="251" type="curve" smooth="yes"/>
      <point x="234" y="233"/>
      <point x="254" y="221"/>
      <point x="284" y="221" type="curve" smooth="yes"/>
      <point x="333" y="221"/>
      <point x="369" y="248"/>
      <point x="399" y="313" type="curve"/>
      <point x="344" y="347" type="line"/>
      <point x="320" y="301"/>
      <point x="306" y="291"/>
      <point x="280" y="291" type="curve" smooth="yes"/>
      <point x="263" y="291"/>
      <point x="251" y="298"/>
      <point x="226" y="313" type="curve" smooth="yes"/>
      <point x="195" y="336"/>
      <point x="175" y="344"/>
      <point x="146" y="344" type="curve" smooth="yes"/>
      <point x="100" y="344"/>
      <point x="61" y="314"/>
      <point x="31" y="252" type="curve"/>
    </contour>
  </outline>
</glyph>
<glyph name="exclamdown" format="2">
  <advance width="208"/>
  <unicode hex="00A1"/>
  <outline>
    <contour>
      <point x="69" y="430" type="line"/>
      <point x="148" y="430" type="line"/>
      <point x="148" y="529" type="line"/>
      <point x="69" y="529" type="line"/>
    </contour>
    <contour>
      <point x="62" y="-156" type="line"/>
      <point x="157" y="-156" type="line"/>
      <point x="138" y="333" type="line"/>
      <point x="80" y="333" type="line"/>
    </contour>
  </outline>
</glyph>
<glyph name="cent" format="2">
  <advance width="418"/>
  <unicode hex="00A2"/>
  <outline>
    <contour>
      <point x="186" y="-102" type="line"/>
      <point x="241" y="-102" type="line"/>
      <point x="241" y="-6" type="line"/>
      <point x="321" y="4"/>
      <point x="368" y="59"/>
      <point x="368" y="162" type="curve" smooth="yes"/>
      <point x="368" y="175" type="line"/>
      <point x="298" y="175" type="line"/>
      <point x="298" y="161" type="line" smooth="yes"/>
      <point x="298" y="90"/>
      <point x="269" y="54"/>
      <point x="211" y="54" type="curve" smooth="yes"/>
      <point x="153" y="54"/>
      <point x="121" y="88"/>
      <point x="121" y="180" type="curve" smooth="yes"/>
      <point x="121" y="349" type="line" smooth="yes"/>
      <point x="121" y="441"/>
      <point x="152" y="475"/>
      <point x="212" y="475" type="curve" smooth="yes"/>
      <point x="269" y="475"/>
      <point x="298" y="440"/>
      <point x="298" y="369" type="curve" smooth="yes"/>
      <point x="298" y="354" type="line"/>
      <point x="368" y="354" type="line"/>
      <point x="368" y="369" type="line" smooth="yes"/>
      <point x="368" y="471"/>
      <point x="322" y="526"/>
      <point x="241" y="536" type="curve"/>
      <point x="241" y="627" type="line"/>
      <point x="186" y="627" type="line"/>
      <point x="186" y="537" type="line"/>
      <point x="100" y="528"/>
      <point x="51" y="470"/>
      <point x="51" y="357" type="curve" smooth="yes"/>
      <point x="51" y="172" type="line" smooth="yes"/>
      <point x="51" y="59"/>
      <point x="100" y="2"/>
      <point x="186" y="-7" type="curve"/>
    </contour>
  </outline>
</glyph>
<glyph name="sterling" format="2">
  <advance width="392"/>
  <unicode hex="00A3"/>
  <outline>
    <contour>
      <point x="44" y="0" type="line"/>
      <point x="366" y="0" type="line"/>
      <point x="366" y="68" type="line"/>
      <point x="126" y="68" type="line"/>
      <point x="152" y="90"/>
      <point x="165" y="120"/>
      <point x="165" y="167" type="curve" smooth="yes"/>
      <point x="165" y="310" type="line"/>
      <point x="285" y="310" type="line"/>
      <point x="285" y="377" type="line"/>
      <point x="165" y="377" type="line"/>
      <point x="165" y="572" type="line" smooth="yes"/>
      <point x="165" y="624"/>
      <point x="185" y="650"/>
      <point x="226" y="650" type="curve" smooth="yes"/>
      <point x="267" y="650"/>
      <point x="286" y="622"/>
      <point x="286" y="558" type="curve"/>
      <point x="357" y="558" type="line"/>
      <point x="357" y="660"/>
      <point x="312" y="717"/>
      <point x="224" y="717" type="curve" smooth="yes"/>
      <point x="135" y="717"/>
      <point x="89" y="657"/>
      <point x="89" y="556" type="curve" smooth="yes"/>
      <point x="89" y="377" type="line"/>
      <point x="27" y="377" type="line"/>
      <point x="27" y="310" type="line"/>
      <point x="89" y="310" type="line"/>
      <point x="89" y="168" type="line" smooth="yes"/>
      <point x="89" y="114"/>
      <point x="77" y="85"/>
      <point x="44" y="70" type="curve"/>
    </contour>
  </outline>
</glyph>
<glyph name="currency" format="2">
  <advance width="598"/>
  <unicode hex="00A4"/>
  <outline>
    <contour>
      <point x="111" y="96" type="line"/>
      <point x="181" y="166" type="line"/>
      <point x="216" y="142"/>
      <point x="256" y="130"/>
      <point x="299" y="130" type="curve" smooth="yes"/>
      <point x="342" y="130"/>
      <point x="381" y="142"/>
      <point x="417" y="166" type="curve"/>
      <point x="486" y="96" type="line"/>
      <point x="538" y="148" type="line"/>
      <point x="468" y="218" type="line"/>
      <point x="491" y="251"/>
      <point x="503" y="290"/>
      <point x="503" y="335" type="curve" smooth="yes"/>
      <point x="503" y="378"/>
      <point x="491" y="417"/>
      <point x="467" y="452" type="curve"/>
      <point x="537" y="521" type="line"/>
      <point x="485" y="572" type="line"/>
      <point x="416" y="503" type="line"/>
      <point x="381" y="527"/>
      <point x="342" y="539"/>
      <point x="299" y="539" type="curve" smooth="yes"/>
      <point x="255" y="539"/>
      <point x="216" y="527"/>
      <point x="181" y="503" type="curve"/>
      <point x="113" y="572" type="line"/>
      <point x="61" y="521" type="line"/>
      <point x="131" y="451" type="line"/>
      <point x="107" y="419"/>
      <point x="95" y="380"/>
      <point x="95" y="335" type="curve" smooth="yes"/>
      <point x="95" y="290"/>
      <point x="107" y="251"/>
      <point x="130" y="218" type="curve"/>
      <point x="59" y="149" type="line"/>
    </contour>
    <contour>
      <point x="299" y="201" type="curve" smooth="yes"/>
      <point x="223" y="201"/>
      <point x="168" y="257"/>
      <point x="168" y="335" type="curve" smooth="yes"/>
      <point x="168" y="411"/>
      <point x="223" y="468"/>
      <point x="299" y="468" type="curve" smooth="yes"/>
      <point x="373" y="468"/>
      <point x="430" y="411"/>
      <point x="430" y="335" type="curve" smooth="yes"/>
      <point x="430" y="258"/>
      <point x="372" y="201"/>
    </contour>
  </outline>
</glyph>
<glyph name="section" format="2">
  <advance width="438"/>
  <unicode hex="00A7"/>
  <outline>
    <contour>
      <point x="217" y="-172" type="curve" smooth="yes"/>
      <point x="315" y="-172"/>
      <point x="365" y="-116"/>
      <point x="365" y="-18" type="curve" smooth="yes"/>
      <point x="365" y="51"/>
      <point x="346" y="101"/>
      <point x="289" y="123" type="curve"/>
      <point x="348" y="143"/>
      <point x="377" y="196"/>
      <point x="377" y="282" type="curve" smooth="yes"/>
      <point x="377" y="388"/>
      <point x="347" y="446"/>
      <point x="259" y="468" type="curve" smooth="yes"/>
      <point x="180" y="490"/>
      <point x="154" y="514"/>
      <point x="154" y="581" type="curve" smooth="yes"/>
      <point x="154" y="636"/>
      <point x="171" y="666"/>
      <point x="222" y="666" type="curve" smooth="yes"/>
      <point x="275" y="666"/>
      <point x="290" y="632"/>
      <point x="290" y="567" type="curve"/>
      <point x="360" y="567" type="line"/>
      <point x="360" y="672"/>
      <point x="322" y="732"/>
      <point x="221" y="732" type="curve" smooth="yes"/>
      <point x="126" y="732"/>
      <point x="79" y="676"/>
      <point x="79" y="581" type="curve" smooth="yes"/>
      <point x="79" y="511"/>
      <point x="98" y="465"/>
      <point x="152" y="443" type="curve"/>
      <point x="91" y="422"/>
      <point x="61" y="369"/>
      <point x="61" y="282" type="curve" smooth="yes"/>
      <point x="61" y="180"/>
      <point x="93" y="121"/>
      <point x="181" y="97" type="curve" smooth="yes"/>
      <point x="269" y="73"/>
      <point x="290" y="51"/>
      <point x="290" y="-20" type="curve" smooth="yes"/>
      <point x="290" y="-76"/>
      <point x="268" y="-106"/>
      <point x="218" y="-106" type="curve" smooth="yes"/>
      <point x="165" y="-106"/>
      <point x="145" y="-78"/>
      <point x="145" y="-6" type="curve"/>
      <point x="75" y="-6" type="line"/>
      <point x="75" y="-117"/>
      <point x="114" y="-172"/>
    </contour>
    <contour>
      <point x="220" y="163" type="curve" smooth="yes"/>
      <point x="159" y="163"/>
      <point x="135" y="203"/>
      <point x="135" y="282" type="curve" smooth="yes"/>
      <point x="135" y="359"/>
      <point x="157" y="402"/>
      <point x="220" y="402" type="curve" smooth="yes"/>
      <point x="280" y="402"/>
      <point x="303" y="362"/>
      <point x="303" y="282" type="curve" smooth="yes"/>
      <point x="303" y="204"/>
      <point x="278" y="163"/>
    </contour>
  </outline>
</glyph>
<glyph name="copyright" format="2">
  <advance width="763"/>
  <unicode hex="00A9"/>
  <outline>
    <contour>
      <point x="382" y="-10" type="curve" smooth="yes"/>
      <point x="450" y="-10"/>
      <point x="509" y="5"/>
      <point x="559" y="34" type="curve" smooth="yes"/>
      <point x="608" y="63"/>
      <point x="646" y="104"/>
      <point x="672" y="158" type="curve" smooth="yes"/>
      <point x="698" y="211"/>
      <point x="711" y="275"/>
      <point x="711" y="348" type="curve" smooth="yes"/>
      <point x="711" y="421"/>
      <point x="698" y="484"/>
      <point x="672" y="538" type="curve" smooth="yes"/>
      <point x="646" y="591"/>
      <point x="608" y="633"/>
      <point x="559" y="663" type="curve" smooth="yes"/>
      <point x="510" y="692"/>
      <point x="451" y="707"/>
      <point x="382" y="707" type="curve" smooth="yes"/>
      <point x="315" y="707"/>
      <point x="256" y="693"/>
      <point x="207" y="664" type="curve" smooth="yes"/>
      <point x="157" y="635"/>
      <point x="119" y="593"/>
      <point x="93" y="539" type="curve" smooth="yes"/>
      <point x="66" y="485"/>
      <point x="53" y="421"/>
      <point x="53" y="348" type="curve" smooth="yes"/>
      <point x="53" y="276"/>
      <point x="66" y="213"/>
      <point x="92" y="159" type="curve" smooth="yes"/>
      <point x="118" y="105"/>
      <point x="156" y="63"/>
      <point x="206" y="34" type="curve" smooth="yes"/>
      <point x="255" y="5"/>
      <point x="314" y="-10"/>
    </contour>
    <contour>
      <point x="181" y="121" type="curve" smooth="yes"/>
      <point x="134" y="175"/>
      <point x="110" y="251"/>
      <point x="110" y="348" type="curve" smooth="yes"/>
      <point x="110" y="445"/>
      <point x="133" y="521"/>
      <point x="180" y="575" type="curve" smooth="yes"/>
      <point x="227" y="629"/>
      <point x="294" y="656"/>
      <point x="382" y="656" type="curve" smooth="yes"/>
      <point x="470" y="656"/>
      <point x="538" y="629"/>
      <point x="585" y="575" type="curve" smooth="yes"/>
      <point x="632" y="521"/>
      <point x="655" y="445"/>
      <point x="655" y="348" type="curve" smooth="yes"/>
      <point x="655" y="251"/>
      <point x="632" y="176"/>
      <point x="585" y="122" type="curve" smooth="yes"/>
      <point x="538" y="67"/>
      <point x="470" y="40"/>
      <point x="382" y="40" type="curve" smooth="yes"/>
      <point x="295" y="40"/>
      <point x="228" y="67"/>
    </contour>
    <contour>
      <point x="384" y="148" type="curve" smooth="yes"/>
      <point x="421" y="148"/>
      <point x="450" y="159"/>
      <point x="471" y="180" type="curve" smooth="yes"/>
      <point x="492" y="201"/>
      <point x="502" y="233"/>
      <point x="502" y="275" type="curve" smooth="yes"/>
      <point x="502" y="287" type="line"/>
      <point x="447" y="287" type="line"/>
      <point x="447" y="275" type="line" smooth="yes"/>
      <point x="447" y="223"/>
      <point x="426" y="197"/>
      <point x="385" y="197" type="curve" smooth="yes"/>
      <point x="363" y="197"/>
      <point x="346" y="204"/>
      <point x="335" y="219" type="curve" smooth="yes"/>
      <point x="324" y="233"/>
      <point x="318" y="257"/>
      <point x="318" y="290" type="curve" smooth="yes"/>
      <point x="318" y="411" type="line" smooth="yes"/>
      <point x="318" y="444"/>
      <point x="324" y="468"/>
      <point x="335" y="482" type="curve" smooth="yes"/>
      <point x="346" y="496"/>
      <point x="363" y="503"/>
      <point x="385" y="503" type="curve" smooth="yes"/>
      <point x="426" y="503"/>
      <point x="447" y="477"/>
      <point x="447" y="424" type="curve" smooth="yes"/>
      <point x="447" y="414" type="line"/>
      <point x="502" y="414" type="line"/>
      <point x="502" y="425" type="line" smooth="yes"/>
      <point x="502" y="467"/>
      <point x="492" y="499"/>
      <point x="471" y="520" type="curve" smooth="yes"/>
      <point x="450" y="541"/>
      <point x="421" y="551"/>
      <point x="384" y="551" type="curve" smooth="yes"/>
      <point x="304" y="551"/>
      <point x="264" y="506"/>
      <point x="264" y="417" type="curve" smooth="yes"/>
      <point x="264" y="284" type="line" smooth="yes"/>
      <point x="264" y="194"/>
      <point x="304" y="149"/>
    </contour>
  </outline>
</glyph>
<glyph name="ordfeminine" format="2">
  <advance width="301"/>
  <unicode hex="00AA"/>
  <outline>
    <contour>
      <point x="125" y="435" type="curve" smooth="yes"/>
      <point x="153" y="435"/>
      <point x="170" y="446"/>
      <point x="189" y="469" type="curve"/>
      <point x="189" y="440" type="line"/>
      <point x="253" y="440" type="line"/>
      <point x="253" y="662" type="line" smooth="yes"/>
      <point x="253" y="728"/>
      <point x="215" y="766"/>
      <point x="147" y="766" type="curve" smooth="yes"/>
      <point x="84" y="766"/>
      <point x="46" y="731"/>
      <point x="46" y="670" type="curve" smooth="yes"/>
      <point x="46" y="667" type="line"/>
      <point x="108" y="667" type="line"/>
      <point x="108" y="672" type="line" smooth="yes"/>
      <point x="108" y="694"/>
      <point x="122" y="709"/>
      <point x="146" y="709" type="curve" smooth="yes"/>
      <point x="173" y="709"/>
      <point x="186" y="695"/>
      <point x="186" y="667" type="curve" smooth="yes"/>
      <point x="186" y="628" type="line"/>
      <point x="143" y="628" type="line" smooth="yes"/>
      <point x="76" y="628"/>
      <point x="37" y="592"/>
      <point x="37" y="535" type="curve" smooth="yes"/>
      <point x="37" y="471"/>
      <point x="67" y="435"/>
    </contour>
    <contour>
      <point x="103" y="537" type="curve" smooth="yes"/>
      <point x="103" y="566"/>
      <point x="118" y="581"/>
      <point x="153" y="581" type="curve" smooth="yes"/>
      <point x="186" y="581" type="line"/>
      <point x="186" y="542" type="line" smooth="yes"/>
      <point x="186" y="510"/>
      <point x="168" y="494"/>
      <point x="142" y="494" type="curve" smooth="yes"/>
      <point x="116" y="494"/>
      <point x="103" y="508"/>
    </contour>
  </outline>
</glyph>
<glyph name="logicalnot" format="2">
  <advance width="430"/>
  <unicode hex="00AC"/>
  <outline>
    <contour>
      <point x="318" y="142" type="line"/>
      <point x="388" y="142" type="line"/>
      <point x="388" y="316" type="line"/>
      <point x="41" y="316" type="line"/>
      <point x="41" y="249" type="line"/>
      <point x="318" y="249" type="line"/>
    </contour>
  </outline>
</glyph>
<glyph name="registered" format="2">
  <advance width="483"/>
  <unicode hex="00AE"/>
  <outline>
    <contour>
      <point x="242" y="314" type="curve" smooth="yes"/>
      <point x="297" y="314"/>
      <point x="341" y="332"/>
      <point x="374" y="368" type="curve" smooth="yes"/>
      <point x="406" y="403"/>
      <point x="422" y="451"/>
      <point x="422" y="511" type="curve" smooth="yes"/>
      <point x="422" y="570"/>
      <point x="406" y="618"/>
      <point x="374" y="653" type="curve" smooth="yes"/>
      <point x="342" y="688"/>
      <point x="298" y="706"/>
      <point x="242" y="706" type="curve" smooth="yes"/>
      <point x="187" y="706"/>
      <point x="144" y="688"/>
      <point x="111" y="653" type="curve" smooth="yes"/>
      <point x="78" y="618"/>
      <point x="61" y="570"/>
      <point x="61" y="511" type="curve" smooth="yes"/>
      <point x="61" y="451"/>
      <point x="77" y="403"/>
      <point x="110" y="368" type="curve" smooth="yes"/>
      <point x="143" y="332"/>
      <point x="187" y="314"/>
    </contour>
    <contour>
      <point x="135" y="390" type="curve" smooth="yes"/>
      <point x="110" y="419"/>
      <point x="97" y="459"/>
      <point x="97" y="511" type="curve" smooth="yes"/>
      <point x="97" y="561"/>
      <point x="110" y="601"/>
      <point x="135" y="630" type="curve" smooth="yes"/>
      <point x="160" y="659"/>
      <point x="196" y="673"/>
      <point x="242" y="673" type="curve" smooth="yes"/>
      <point x="287" y="673"/>
      <point x="322" y="659"/>
      <point x="348" y="630" type="curve" smooth="yes"/>
      <point x="373" y="601"/>
      <point x="386" y="562"/>
      <point x="386" y="511" type="curve" smooth="yes"/>
      <point x="386" y="460"/>
      <point x="373" y="420"/>
      <point x="348" y="391" type="curve" smooth="yes"/>
      <point x="323" y="362"/>
      <point x="287" y="347"/>
      <point x="242" y="347" type="curve" smooth="yes"/>
      <point x="196" y="347"/>
      <point x="160" y="361"/>
    </contour>
    <contour>
      <point x="183" y="403" type="line"/>
      <point x="220" y="403" type="line"/>
      <point x="220" y="493" type="line"/>
      <point x="245" y="493" type="line"/>
      <point x="276" y="403" type="line"/>
      <point x="316" y="403" type="line"/>
      <point x="281" y="501" type="line"/>
      <point x="300" y="512"/>
      <point x="310" y="530"/>
      <point x="310" y="557" type="curve" smooth="yes"/>
      <point x="310" y="600"/>
      <point x="289" y="621"/>
      <point x="247" y="621" type="curve" smooth="yes"/>
      <point x="183" y="621" type="line"/>
    </contour>
    <contour>
      <point x="220" y="526" type="line"/>
      <point x="220" y="588" type="line"/>
      <point x="244" y="588" type="line" smooth="yes"/>
      <point x="255" y="588"/>
      <point x="262" y="586"/>
      <point x="267" y="581" type="curve" smooth="yes"/>
      <point x="271" y="576"/>
      <point x="273" y="569"/>
      <point x="273" y="558" type="curve" smooth="yes"/>
      <point x="273" y="547"/>
      <point x="271" y="539"/>
      <point x="267" y="534" type="curve" smooth="yes"/>
      <point x="262" y="529"/>
      <point x="255" y="526"/>
      <point x="244" y="526" type="curve" smooth="yes"/>
    </contour>
  </outline>
</glyph>
<glyph name="macron" format="2">
  <advance width="513"/>
  <unicode hex="00AF"/>
  <outline>
    <contour>
      <point x="138" y="605" type="line"/>
      <point x="375" y="605" type="line"/>
      <point x="375" y="668" type="line"/>
      <point x="138" y="668" type="line"/>
    </contour>
  </outline>
</glyph>
<glyph name="degree" format="2">
  <advance width="360"/>
  <unicode hex="00B0"/>
  <outline>
    <contour>
      <point x="180" y="464" type="curve" smooth="yes"/>
      <point x="251" y="464"/>
      <point x="307" y="517"/>
      <point x="307" y="590" type="curve" smooth="yes"/>
      <point x="307" y="662"/>
      <point x="252" y="717"/>
      <point x="180" y="717" type="curve" smooth="yes"/>
      <point x="106" y="717"/>
      <point x="53" y="661"/>
      <point x="53" y="590" type="curve" smooth="yes"/>
      <point x="53" y="519"/>
      <point x="107" y="464"/>
    </contour>
    <contour>
      <point x="108" y="590" type="curve" smooth="yes"/>
      <point x="108" y="633"/>
      <point x="137" y="666"/>
      <point x="180" y="666" type="curve" smooth="yes"/>
      <point x="222" y="666"/>
      <point x="253" y="634"/>
      <point x="253" y="590" type="curve" smooth="yes"/>
      <point x="253" y="545"/>
      <point x="221" y="515"/>
      <point x="180" y="515" type="curve" smooth="yes"/>
      <point x="138" y="515"/>
      <point x="108" y="546"/>
    </contour>
  </outline>
</glyph>
<glyph name="plusminus" format="2">
  <advance width="430"/>
  <unicode hex="00B1"/>
  <outline>
    <contour>
      <point x="182" y="109" type="line"/>
      <point x="249" y="109" type="line"/>
      <point x="249" y="249" type="line"/>
      <point x="390" y="249" type="line"/>
      <point x="390" y="316" type="line"/>
      <point x="249" y="316" type="line"/>
      <point x="249" y="457" type="line"/>
      <point x="182" y="457" type="line"/>
      <point x="182" y="316" type="line"/>
      <point x="41" y="316" type="line"/>
      <point x="41" y="249" type="line"/>
      <point x="182" y="249" type="line"/>
    </contour>
    <contour>
      <point x="41" y="-16" type="line"/>
      <point x="390" y="-16" type="line"/>
      <point x="390" y="51" type="line"/>
      <point x="41" y="51" type="line"/>
    </contour>
  </outline>
</glyph>
<glyph name="acute" format="2">
  <advance width="513"/>
  <unicode hex="00B4"/>
  <outline>
    <contour>
      <point x="180" y="590" type="line"/>
      <point x="238" y="590" type="line"/>
      <point x="349" y="722" type="line"/>
      <point x="273" y="722" type="line"/>
    </contour>
  </outline>
</glyph>
<glyph name="mu" format="2">
  <advance width="422"/>
  <unicode hex="00B5"/>
  <outline>
    <contour>
      <point x="60" y="-158" type="line"/>
      <point x="130" y="-158" type="line"/>
      <point x="130" y="18" type="line"/>
      <point x="147" y="1"/>
      <point x="170" y="-8"/>
      <point x="199" y="-8" type="curve" smooth="yes"/>
      <point x="239" y="-8"/>
      <point x="276" y="10"/>
      <point x="296" y="48" type="curve"/>
      <point x="296" y="0" type="line"/>
      <point x="362" y="0" type="line"/>
      <point x="362" y="529" type="line"/>
      <point x="293" y="529" type="line"/>
      <point x="293" y="147" type="line" smooth="yes"/>
      <point x="293" y="89"/>
      <point x="259" y="53"/>
      <point x="211" y="53" type="curve" smooth="yes"/>
      <point x="161" y="53"/>
      <point x="129" y="85"/>
      <point x="129" y="147" type="curve" smooth="yes"/>
      <point x="129" y="529" type="line"/>
      <point x="60" y="529" type="line"/>
    </contour>
  </outline>
</glyph>
<glyph name="paragraph" format="2">
  <advance width="532"/>
  <unicode hex="00B6"/>
  <outline>
    <contour>
      <point x="231" y="-156" type="line"/>
      <point x="299" y="-156" type="line"/>
      <point x="299" y="640" type="line"/>
      <point x="373" y="640" type="line"/>
      <point x="373" y="-156" type="line"/>
      <point x="440" y="-156" type="line"/>
      <point x="440" y="707" type="line"/>
      <point x="264" y="707" type="line" smooth="yes"/>
      <point x="141" y="707"/>
      <point x="61" y="609"/>
      <point x="61" y="492" type="curve" smooth="yes"/>
      <point x="61" y="373"/>
      <point x="130" y="285"/>
      <point x="231" y="275" type="curve"/>
    </contour>
  </outline>
</glyph>
<glyph name="ordmasculine" format="2">
  <advance width="302"/>
  <unicode hex="00BA"/>
  <outline>
    <contour>
      <point x="152" y="435" type="curve" smooth="yes"/>
      <point x="221" y="435"/>
      <point x="260" y="471"/>
      <point x="260" y="558" type="curve" smooth="yes"/>
      <point x="260" y="644" type="line" smooth="yes"/>
      <point x="260" y="731"/>
      <point x="221" y="766"/>
      <point x="152" y="766" type="curve" smooth="yes"/>
      <point x="80" y="766"/>
      <point x="42" y="730"/>
      <point x="42" y="644" type="curve" smooth="yes"/>
      <point x="42" y="558" type="line" smooth="yes"/>
      <point x="42" y="476"/>
      <point x="79" y="435"/>
    </contour>
    <contour>
      <point x="109" y="557" type="curve" smooth="yes"/>
      <point x="109" y="645" type="line" smooth="yes"/>
      <point x="109" y="686"/>
      <point x="123" y="707"/>
      <point x="152" y="707" type="curve" smooth="yes"/>
      <point x="180" y="706"/>
      <point x="194" y="686"/>
      <point x="194" y="645" type="curve" smooth="yes"/>
      <point x="194" y="557" type="line" smooth="yes"/>
      <point x="194" y="516"/>
      <point x="180" y="496"/>
      <point x="152" y="496" type="curve" smooth="yes"/>
      <point x="123" y="496"/>
      <point x="109" y="516"/>
    </contour>
  </outline>
</glyph>
<glyph name="questiondown" format="2">
  <advance width="371"/>
  <unicode hex="00BF"/>
  <outline>
    <contour>
      <point x="189" y="-168" type="curve" smooth="yes"/>
      <point x="289" y="-168"/>
      <point x="340" y="-104"/>
      <point x="341" y="25" type="curve"/>
      <point x="266" y="25" type="line"/>
      <point x="266" y="-67"/>
      <point x="245" y="-101"/>
      <point x="188" y="-101" type="curve" smooth="yes"/>
      <point x="138" y="-101"/>
      <point x="113" y="-68"/>
      <point x="113" y="-1" type="curve" smooth="yes"/>
      <point x="113" y="42"/>
      <point x="120" y="68"/>
      <point x="147" y="111" type="curve" smooth="yes"/>
      <point x="188" y="178" type="line" smooth="yes"/>
      <point x="222" y="232"/>
      <point x="226" y="252"/>
      <point x="226" y="300" type="curve" smooth="yes"/>
      <point x="226" y="340" type="line"/>
      <point x="152" y="340" type="line"/>
      <point x="152" y="304" type="line" smooth="yes"/>
      <point x="152" y="264"/>
      <point x="146" y="248"/>
      <point x="124" y="208" type="curve" smooth="yes"/>
      <point x="89" y="150" type="line" smooth="yes"/>
      <point x="48" y="80"/>
      <point x="38" y="50"/>
      <point x="38" y="-1" type="curve" smooth="yes"/>
      <point x="38" y="-106"/>
      <point x="92" y="-168"/>
    </contour>
    <contour>
      <point x="148" y="430" type="line"/>
      <point x="228" y="430" type="line"/>
      <point x="228" y="529" type="line"/>
      <point x="148" y="529" type="line"/>
    </contour>
  </outline>
</glyph>
<glyph name="Eth" format="2">
  <advance width="517"/>
  <unicode hex="00D0"/>
  <outline>
    <contour>
      <point x="90" y="0" type="line"/>
      <point x="273" y="0" type="line" smooth="yes"/>
      <point x="330" y="0"/>
      <point x="377" y="18"/>
      <point x="412" y="54" type="curve" smooth="yes"/>
      <point x="447" y="90"/>
      <point x="464" y="143"/>
      <point x="464" y="214" type="curve" smooth="yes"/>
      <point x="464" y="493" type="line" smooth="yes"/>
      <point x="464" y="564"/>
      <point x="447" y="618"/>
      <point x="412" y="654" type="curve" smooth="yes"/>
      <point x="377" y="689"/>
      <point x="330" y="707"/>
      <point x="273" y="707" type="curve" smooth="yes"/>
      <point x="90" y="707" type="line"/>
      <point x="90" y="392" type="line"/>
      <point x="31" y="392" type="line"/>
      <point x="31" y="326" type="line"/>
      <point x="90" y="326" type="line"/>
    </contour>
    <contour>
      <point x="165" y="67" type="line"/>
      <point x="165" y="326" type="line"/>
      <point x="274" y="326" type="line"/>
      <point x="274" y="392" type="line"/>
      <point x="165" y="392" type="line"/>
      <point x="165" y="640" type="line"/>
      <point x="273" y="640" type="line" smooth="yes"/>
      <point x="311" y="640"/>
      <point x="340" y="627"/>
      <point x="360" y="602" type="curve" smooth="yes"/>
      <point x="379" y="576"/>
      <point x="389" y="537"/>
      <point x="389" y="485" type="curve" smooth="yes"/>
      <point x="389" y="213" type="line" smooth="yes"/>
      <point x="389" y="164"/>
      <point x="379" y="128"/>
      <point x="359" y="104" type="curve" smooth="yes"/>
      <point x="338" y="79"/>
      <point x="310" y="67"/>
      <point x="273" y="67" type="curve" smooth="yes"/>
    </contour>
  </outline>
</glyph>
<glyph name="Oslash" format="2">
  <advance width="489"/>
  <unicode hex="00D8"/>
  <anchor x="245" y="707" name="top"/>
  <outline>
    <component base="O"/>
    <contour>
      <point x="54" y="-20" type="line"/>
      <point x="109" y="-20" type="line"/>
      <point x="438" y="727" type="line"/>
      <point x="384" y="727" type="line"/>
    </contour>
  </outline>
</glyph>
<glyph name="Thorn" format="2">
  <advance width="450"/>
  <unicode hex="00DE"/>
  <outline>
    <contour>
      <point x="61" y="0" type="line"/>
      <point x="135" y="0" type="line"/>
      <point x="135" y="170" type="line"/>
      <point x="241" y="170" type="line" smooth="yes"/>
      <point x="362" y="170"/>
      <point x="423" y="237"/>
      <point x="423" y="372" type="curve" smooth="yes"/>
      <point x="423" y="508"/>
      <point x="367" y="578"/>
      <point x="241" y="578" type="curve" smooth="yes"/>
      <point x="135" y="578" type="line"/>
      <point x="135" y="707" type="line"/>
      <point x="61" y="707" type="line"/>
    </contour>
    <contour>
      <point x="135" y="236" type="line"/>
      <point x="135" y="511" type="line"/>
      <point x="237" y="511" type="line" smooth="yes"/>
      <point x="313" y="511"/>
      <point x="348" y="470"/>
      <point x="348" y="372" type="curve" smooth="yes"/>
      <point x="348" y="276"/>
      <point x="313" y="236"/>
      <point x="237" y="236" type="curve" smooth="yes"/>
    </contour>
  </outline>
</glyph>
<glyph name="germandbls" format="2">
  <advance width="422"/>
  <unicode hex="00DF"/>
  <outline>
    <contour>
      <point x="215" y="-4" type="line"/>
      <point x="243" y="-4" type="line" smooth="yes"/>
      <point x="281" y="-4"/>
      <point x="309" y="4"/>
      <point x="328" y="20" type="curve" smooth="yes"/>
      <point x="346" y="35"/>
      <point x="358" y="59"/>
      <point x="364" y="90" type="curve" smooth="yes"/>
      <point x="369" y="121"/>
      <point x="372" y="166"/>
      <point x="372" y="225" type="curve" smooth="yes"/>
      <point x="372" y="269"/>
      <point x="370" y="303"/>
      <point x="367" y="327" type="curve" smooth="yes"/>
      <point x="364" y="350"/>
      <point x="358" y="370"/>
      <point x="349" y="385" type="curve" smooth="yes"/>
      <point x="340" y="400"/>
      <point x="325" y="413"/>
      <point x="305" y="423" type="curve"/>
      <point x="328" y="436"/>
      <point x="345" y="452"/>
      <point x="354" y="471" type="curve" smooth="yes"/>
      <point x="363" y="490"/>
      <point x="367" y="519"/>
      <point x="367" y="558" type="curve" smooth="yes"/>
      <point x="367" y="607"/>
      <point x="353" y="646"/>
      <point x="326" y="674" type="curve" smooth="yes"/>
      <point x="299" y="702"/>
      <point x="262" y="716"/>
      <point x="216" y="716" type="curve" smooth="yes"/>
      <point x="161" y="716"/>
      <point x="121" y="701"/>
      <point x="97" y="670" type="curve" smooth="yes"/>
      <point x="72" y="639"/>
      <point x="60" y="594"/>
      <point x="60" y="535" type="curve" smooth="yes"/>
      <point x="60" y="0" type="line"/>
      <point x="131" y="0" type="line"/>
      <point x="131" y="558" type="line" smooth="yes"/>
      <point x="131" y="621"/>
      <point x="159" y="652"/>
      <point x="215" y="652" type="curve" smooth="yes"/>
      <point x="242" y="652"/>
      <point x="262" y="644"/>
      <point x="276" y="629" type="curve" smooth="yes"/>
      <point x="289" y="613"/>
      <point x="296" y="588"/>
      <point x="296" y="553" type="curve" smooth="yes"/>
      <point x="296" y="517"/>
      <point x="292" y="490"/>
      <point x="283" y="473" type="curve" smooth="yes"/>
      <point x="274" y="456"/>
      <point x="258" y="447"/>
      <point x="233" y="447" type="curve" smooth="yes"/>
      <point x="212" y="447" type="line"/>
      <point x="212" y="385" type="line"/>
      <point x="233" y="385" type="line" smooth="yes"/>
      <point x="254" y="385"/>
      <point x="270" y="379"/>
      <point x="280" y="368" type="curve" smooth="yes"/>
      <point x="289" y="356"/>
      <point x="295" y="340"/>
      <point x="298" y="319" type="curve" smooth="yes"/>
      <point x="300" y="298"/>
      <point x="301" y="266"/>
      <point x="301" y="225" type="curve" smooth="yes"/>
      <point x="301" y="178"/>
      <point x="300" y="144"/>
      <point x="298" y="123" type="curve" smooth="yes"/>
      <point x="295" y="101"/>
      <point x="289" y="85"/>
      <point x="280" y="75" type="curve" smooth="yes"/>
      <point x="271" y="64"/>
      <point x="255" y="59"/>
      <point x="234" y="59" type="curve" smooth="yes"/>
      <point x="215" y="59" type="line"/>
    </contour>
  </outline>
</glyph>
<glyph name="ae" format="2">
  <advance width="648"/>
  <unicode hex="00E6"/>
  <outline>
    <contour>
      <point x="186" y="-8" type="curve" smooth="yes"/>
      <point x="239" y="-8"/>
      <point x="285" y="12"/>
      <point x="312" y="51" type="curve"/>
      <point x="340" y="12"/>
      <point x="383" y="-8"/>
      <point x="442" y="-8" type="curve" smooth="yes"/>
      <point x="540" y="-8"/>
      <point x="596" y="49"/>
      <point x="596" y="159" type="curve" smooth="yes"/>
      <point x="596" y="162" type="line"/>
      <point x="527" y="162" type="line"/>
      <point x="527" y="158" type="line" smooth="yes"/>
      <point x="527" y="86"/>
      <point x="496" y="52"/>
      <point x="442" y="52" type="curve" smooth="yes"/>
      <point x="385" y="52"/>
      <point x="350" y="86"/>
      <point x="350" y="181" type="curve" smooth="yes"/>
      <point x="350" y="245" type="line"/>
      <point x="597" y="245" type="line"/>
      <point x="597" y="351" type="line" smooth="yes"/>
      <point x="597" y="473"/>
      <point x="536" y="538"/>
      <point x="438" y="538" type="curve" smooth="yes"/>
      <point x="386" y="537"/>
      <point x="346" y="520"/>
      <point x="319" y="487" type="curve"/>
      <point x="294" y="521"/>
      <point x="254" y="538"/>
      <point x="199" y="538" type="curve" smooth="yes"/>
      <point x="110" y="538"/>
      <point x="54" y="484"/>
      <point x="54" y="399" type="curve" smooth="yes"/>
      <point x="54" y="390" type="line"/>
      <point x="120" y="390" type="line"/>
      <point x="120" y="398" type="line" smooth="yes"/>
      <point x="120" y="446"/>
      <point x="147" y="476"/>
      <point x="199" y="476" type="curve" smooth="yes"/>
      <point x="254" y="476"/>
      <point x="281" y="446"/>
      <point x="281" y="387" type="curve" smooth="yes"/>
      <point x="281" y="298" type="line"/>
      <point x="199" y="298" type="line" smooth="yes"/>
      <point x="97" y="298"/>
      <point x="41" y="241"/>
      <point x="41" y="147" type="curve" smooth="yes"/>
      <point x="41" y="49"/>
      <point x="92" y="-8"/>
    </contour>
    <contour>
      <point x="111" y="148" type="curve" smooth="yes"/>
      <point x="111" y="213"/>
      <point x="143" y="246"/>
      <point x="206" y="246" type="curve" smooth="yes"/>
      <point x="281" y="246" type="line"/>
      <point x="281" y="153" type="line" smooth="yes"/>
      <point x="281" y="88"/>
      <point x="248" y="52"/>
      <point x="193" y="52" type="curve" smooth="yes"/>
      <point x="138" y="52"/>
      <point x="111" y="84"/>
    </contour>
    <contour>
      <point x="350" y="298" type="line"/>
      <point x="350" y="349" type="line" smooth="yes"/>
      <point x="350" y="441"/>
      <point x="381" y="475"/>
      <point x="439" y="475" type="curve" smooth="yes"/>
      <point x="497" y="475"/>
      <point x="527" y="441"/>
      <point x="527" y="351" type="curve" smooth="yes"/>
      <point x="527" y="298" type="line"/>
    </contour>
  </outline>
</glyph>
<glyph name="ccedilla" format="2">
  <advance width="418"/>
  <unicode hex="00E7"/>
  <outline>
    <contour>
      <point x="134" y="-156" type="line"/>
      <point x="212" y="-156" type="line"/>
      <point x="266" y="-1" type="line"/>
      <point x="299" y="8"/>
      <point x="324" y="27"/>
      <point x="342" y="54" type="curve" smooth="yes"/>
      <point x="359" y="81"/>
      <point x="368" y="117"/>
      <point x="368" y="162" type="curve" smooth="yes"/>
      <point x="368" y="175" type="line"/>
      <point x="298" y="175" type="line"/>
      <point x="298" y="161" type="line" smooth="yes"/>
      <point x="298" y="90"/>
      <point x="269" y="54"/>
      <point x="211" y="54" type="curve" smooth="yes"/>
      <point x="182" y="54"/>
      <point x="159" y="64"/>
      <point x="144" y="83" type="curve" smooth="yes"/>
      <point x="129" y="102"/>
      <point x="121" y="134"/>
      <point x="121" y="180" type="curve" smooth="yes"/>
      <point x="121" y="349" type="line" smooth="yes"/>
      <point x="121" y="395"/>
      <point x="129" y="428"/>
      <point x="144" y="447" type="curve" smooth="yes"/>
      <point x="159" y="466"/>
      <point x="182" y="475"/>
      <point x="212" y="475" type="curve" smooth="yes"/>
      <point x="269" y="475"/>
      <point x="298" y="440"/>
      <point x="298" y="369" type="curve" smooth="yes"/>
      <point x="298" y="354" type="line"/>
      <point x="368" y="354" type="line"/>
      <point x="368" y="369" type="line" smooth="yes"/>
      <point x="368" y="426"/>
      <point x="354" y="468"/>
      <point x="327" y="496" type="curve" smooth="yes"/>
      <point x="300" y="524"/>
      <point x="261" y="538"/>
      <point x="211" y="538" type="curve" smooth="yes"/>
      <point x="160" y="538"/>
      <point x="121" y="523"/>
      <point x="93" y="494" type="curve" smooth="yes"/>
      <point x="65" y="465"/>
      <point x="51" y="419"/>
      <point x="51" y="357" type="curve" smooth="yes"/>
      <point x="51" y="172" type="line" smooth="yes"/>
      <point x="52" y="59"/>
      <point x="100" y="-1"/>
      <point x="197" y="-8" type="curve"/>
    </contour>
  </outline>
</glyph>
<glyph name="divide" format="2">
  <advance width="430"/>
  <unicode hex="00F7"/>
  <outline>
    <contour>
      <point x="216" y="98" type="curve" smooth="yes"/>
      <point x="243" y="98"/>
      <point x="264" y="120"/>
      <point x="264" y="147" type="curve" smooth="yes"/>
      <point x="264" y="175"/>
      <point x="242" y="196"/>
      <point x="216" y="196" type="curve" smooth="yes"/>
      <point x="189" y="196"/>
      <point x="167" y="172"/>
      <point x="167" y="147" type="curve" smooth="yes"/>
      <point x="167" y="121"/>
      <point x="190" y="98"/>
    </contour>
    <contour>
      <point x="41" y="249" type="line"/>
      <point x="390" y="249" type="line"/>
      <point x="390" y="316" type="line"/>
      <point x="41" y="316" type="line"/>
    </contour>
    <contour>
      <point x="216" y="373" type="curve" smooth="yes"/>
      <point x="243" y="373"/>
      <point x="264" y="395"/>
      <point x="264" y="422" type="curve" smooth="yes"/>
      <point x="264" y="448"/>
      <point x="242" y="470"/>
      <point x="216" y="470" type="curve" smooth="yes"/>
      <point x="189" y="470"/>
      <point x="167" y="447"/>
      <point x="167" y="422" type="curve" smooth="yes"/>
      <point x="167" y="395"/>
      <point x="189" y="373"/>
    </contour>
  </outline>
</glyph>
<glyph name="oslash" format="2">
  <advance width="418"/>
  <unicode hex="00F8"/>
  <outline>
    <component base="o"/>
    <contour>
      <point x="51" y="-31" type="line"/>
      <point x="92" y="-31" type="line"/>
      <point x="368" y="557" type="line"/>
      <point x="327" y="557" type="line"/>
    </contour>
  </outline>
</glyph>
<glyph name="thorn" format="2">
  <advance width="421"/>
  <unicode hex="00FE"/>
  <outline>
    <contour>
      <point x="60" y="707" type="line"/>
      <point x="130" y="707" type="line"/>
      <point x="130" y="478" type="line"/>
      <point x="153" y="517"/>
      <point x="187" y="537"/>
      <point x="230" y="538" type="curve" smooth="yes"/>
      <point x="272" y="538"/>
      <point x="306" y="523"/>
      <point x="332" y="494" type="curve" smooth="yes"/>
      <point x="358" y="464"/>
      <point x="371" y="418"/>
      <point x="371" y="357" type="curve" smooth="yes"/>
      <point x="371" y="172" type="line" smooth="yes"/>
      <point x="371" y="111"/>
      <point x="358" y="66"/>
      <point x="333" y="37" type="curve" smooth="yes"/>
      <point x="307" y="7"/>
      <point x="273" y="-8"/>
      <point x="231" y="-8" type="curve" smooth="yes"/>
      <point x="186" y="-8"/>
      <point x="153" y="11"/>
      <point x="130" y="48" type="curve"/>
      <point x="130" y="-156" type="line"/>
      <point x="60" y="-156" type="line"/>
    </contour>
    <contour>
      <point x="301" y="180" type="curve" smooth="yes"/>
      <point x="301" y="349" type="line" smooth="yes"/>
      <point x="301" y="433"/>
      <point x="273" y="475"/>
      <point x="218" y="475" type="curve" smooth="yes"/>
      <point x="189" y="475"/>
      <point x="168" y="464"/>
      <point x="153" y="443" type="curve" smooth="yes"/>
      <point x="138" y="422"/>
      <point x="130" y="390"/>
      <point x="130" y="348" type="curve" smooth="yes"/>
      <point x="130" y="179" type="line" smooth="yes"/>
      <point x="130" y="138"/>
      <point x="138" y="107"/>
      <point x="153" y="86" type="curve" smooth="yes"/>
      <point x="168" y="65"/>
      <point x="189" y="54"/>
      <point x="218" y="54" type="curve" smooth="yes"/>
      <point x="245" y="54"/>
      <point x="266" y="64"/>
      <point x="280" y="84" type="curve" smooth="yes"/>
      <point x="294" y="103"/>
      <point x="301" y="135"/>
    </contour>
  </outline>
</glyph>
<glyph name="dcroat" format="2">
  <advance width="421"/>
  <unicode hex="0111"/>
  <outline>
    <component base="d"/>
    <contour>
      <point x="184" y="582" type="line"/>
      <point x="421" y="582" type="line"/>
      <point x="421" y="645" type="line"/>
      <point x="184" y="645" type="line"/>
    </contour>
  </outline>
</glyph>
<glyph name="eogonek" format="2">
  <advance width="417"/>
  <unicode hex="0119"/>
  <outline>
    <component base="e"/>
    <contour>
      <point x="266" y="-217" type="curve"/>
      <point x="266" y="-132" type="line"/>
      <point x="242" y="-130"/>
      <point x="216" y="-115"/>
      <point x="202" y="-80" type="curve"/>
      <point x="266" y="1" type="line"/>
      <point x="221" y="1" type="line"/>
      <point x="154" y="-56" type="line"/>
      <point x="160" y="-93"/>
      <point x="167" y="-123"/>
      <point x="179" y="-147" type="curve" smooth="yes"/>
      <point x="200" y="-192"/>
      <point x="230" y="-216"/>
    </contour>
  </outline>
</glyph>
<glyph name="Hbar" format="2">
  <advance width="489"/>
  <unicode hex="0126"/>
  <outline>
    <component base="H"/>
    <contour>
      <point x="31" y="579" type="line"/>
      <point x="463" y="579" type="line"/>
      <point x="463" y="513" type="line"/>
      <point x="31" y="513" type="line"/>
    </contour>
  </outline>
</glyph>
<glyph name="hbar" format="2">
  <advance width="425"/>
  <unicode hex="0127"/>
  <outline>
    <component base="h"/>
    <contour>
      <point x="11" y="593" type="line"/>
      <point x="293" y="593" type="line"/>
      <point x="293" y="639" type="line"/>
      <point x="11" y="639" type="line"/>
    </contour>
  </outline>
</glyph>
<glyph name="Iogonek" format="2">
  <advance width="208"/>
  <unicode hex="012E"/>
  <outline>
    <component base="I"/>
    <contour>
      <point x="140" y="-157" type="curve"/>
      <point x="140" y="-95" type="line"/>
      <point x="116" y="-94"/>
      <point x="90" y="-83"/>
      <point x="76" y="-58" type="curve"/>
      <point x="140" y="0" type="line"/>
      <point x="140" y="12" type="line"/>
      <point x="87" y="12" type="line"/>
      <point x="28" y="-40" type="line"/>
      <point x="34" y="-67"/>
      <point x="41" y="-89"/>
      <point x="53" y="-106" type="curve" smooth="yes"/>
      <point x="74" y="-139"/>
      <point x="104" y="-156"/>
    </contour>
  </outline>
</glyph>
<glyph name="iogonek" format="2">
  <advance width="203"/>
  <unicode hex="012F"/>
  <outline>
    <component base="i"/>
    <contour>
      <point x="136" y="-157" type="curve"/>
      <point x="136" y="-95" type="line"/>
      <point x="112" y="-94"/>
      <point x="86" y="-83"/>
      <point x="72" y="-58" type="curve"/>
      <point x="136" y="0" type="line"/>
      <point x="136" y="12" type="line"/>
      <point x="86" y="12" type="line"/>
      <point x="24" y="-40" type="line"/>
      <point x="30" y="-67"/>
      <point x="37" y="-89"/>
      <point x="49" y="-106" type="curve" smooth="yes"/>
      <point x="70" y="-139"/>
      <point x="100" y="-156"/>
    </contour>
  </outline>
</glyph>
<glyph name="IJ" format="2">
  <advance width="491"/>
  <unicode hex="0132"/>
  <outline>
    <contour>
      <point x="246" y="-8" type="curve" smooth="yes"/>
      <point x="355" y="-8"/>
      <point x="430" y="65"/>
      <point x="430" y="180" type="curve" smooth="yes"/>
      <point x="430" y="707" type="line"/>
      <point x="355" y="707" type="line"/>
      <point x="355" y="184" type="line" smooth="yes"/>
      <point x="355" y="106"/>
      <point x="314" y="59"/>
      <point x="246" y="59" type="curve" smooth="yes"/>
      <point x="199" y="59"/>
      <point x="165" y="81"/>
      <point x="148" y="119" type="curve"/>
      <point x="69" y="119" type="line"/>
      <point x="93" y="44"/>
      <point x="162" y="-8"/>
    </contour>
    <contour>
      <point x="61" y="254" type="line"/>
      <point x="136" y="254" type="line"/>
      <point x="136" y="707" type="line"/>
      <point x="61" y="707" type="line"/>
    </contour>
  </outline>
</glyph>
<glyph name="ij" format="2">
  <advance width="410"/>
  <unicode hex="0133"/>
  <outline>
    <contour>
      <point x="60" y="613" type="line"/>
      <point x="130" y="613" type="line"/>
      <point x="130" y="706" type="line"/>
      <point x="60" y="706" type="line"/>
    </contour>
    <contour>
      <point x="281" y="613" type="line"/>
      <point x="350" y="613" type="line"/>
      <point x="350" y="706" type="line"/>
      <point x="281" y="706" type="line"/>
    </contour>
    <contour>
      <point x="205" y="-166" type="curve" smooth="yes"/>
      <point x="311" y="-166"/>
      <point x="350" y="-96"/>
      <point x="350" y="16" type="curve" smooth="yes"/>
      <point x="350" y="529" type="line"/>
      <point x="281" y="529" type="line"/>
      <point x="281" y="220" type="line" smooth="yes"/>
      <point x="281" y="138"/>
      <point x="261" y="105"/>
      <point x="203" y="105" type="curve" smooth="yes"/>
      <point x="149" y="105"/>
      <point x="130" y="130"/>
      <point x="130" y="220" type="curve" smooth="yes"/>
      <point x="130" y="529" type="line"/>
      <point x="60" y="529" type="line"/>
      <point x="60" y="212" type="line" smooth="yes"/>
      <point x="60" y="92"/>
      <point x="107" y="43"/>
      <point x="189" y="43" type="curve" smooth="yes"/>
      <point x="234" y="43"/>
      <point x="266" y="43"/>
      <point x="281" y="88" type="curve"/>
      <point x="281" y="10" type="line" smooth="yes"/>
      <point x="281" y="-69"/>
      <point x="264" y="-105"/>
      <point x="205" y="-105" type="curve" smooth="yes"/>
      <point x="154" y="-105"/>
      <point x="135" y="-77"/>
      <point x="133" y="-32" type="curve"/>
      <point x="66" y="-32" type="line"/>
      <point x="68" y="-113"/>
      <point x="110" y="-166"/>
    </contour>
  </outline>
</glyph>
<glyph name="Eng" format="2">
  <advance width="514"/>
  <unicode hex="014A"/>
  <outline>
    <contour>
      <point x="294" y="-173" type="line"/>
      <point x="311" y="-173" type="line" smooth="yes"/>
      <point x="357" y="-173"/>
      <point x="392" y="-161"/>
      <point x="416" y="-137" type="curve" smooth="yes"/>
      <point x="441" y="-113"/>
      <point x="453" y="-78"/>
      <point x="453" y="-33" type="curve" smooth="yes"/>
      <point x="453" y="707" type="line"/>
      <point x="378" y="707" type="line"/>
      <point x="378" y="163" type="line"/>
      <point x="136" y="707" type="line"/>
      <point x="61" y="707" type="line"/>
      <point x="61" y="0" type="line"/>
      <point x="136" y="0" type="line"/>
      <point x="136" y="543" type="line"/>
      <point x="378" y="0" type="line"/>
      <point x="378" y="-30" type="line" smooth="yes"/>
      <point x="378" y="-84"/>
      <point x="358" y="-111"/>
      <point x="309" y="-111" type="curve" smooth="yes"/>
      <point x="294" y="-111" type="line"/>
    </contour>
  </outline>
</glyph>
<glyph name="eng" format="2">
  <advance width="425"/>
  <unicode hex="014B"/>
  <outline>
    <contour>
      <point x="207" y="-173" type="line"/>
      <point x="224" y="-173" type="line" smooth="yes"/>
      <point x="317" y="-173"/>
      <point x="366" y="-122"/>
      <point x="366" y="-33" type="curve" smooth="yes"/>
      <point x="366" y="383" type="line" smooth="yes"/>
      <point x="366" y="482"/>
      <point x="315" y="538"/>
      <point x="232" y="538" type="curve" smooth="yes"/>
      <point x="188" y="538"/>
      <point x="148" y="515"/>
      <point x="128" y="481" type="curve"/>
      <point x="128" y="529" type="line"/>
      <point x="60" y="529" type="line"/>
      <point x="60" y="0" type="line"/>
      <point x="130" y="0" type="line"/>
      <point x="130" y="380" type="line" smooth="yes"/>
      <point x="130" y="440"/>
      <point x="163" y="475"/>
      <point x="213" y="475" type="curve" smooth="yes"/>
      <point x="264" y="475"/>
      <point x="296" y="441"/>
      <point x="296" y="380" type="curve" smooth="yes"/>
      <point x="296" y="-30" type="line" smooth="yes"/>
      <point x="297" y="-84"/>
      <point x="271" y="-111"/>
      <point x="222" y="-111" type="curve" smooth="yes"/>
      <point x="207" y="-111" type="line"/>
    </contour>
  </outline>
</glyph>
<glyph name="OE" format="2">
  <advance width="699"/>
  <unicode hex="0152"/>
  <outline>
    <contour>
      <point x="239" y="-8" type="curve" smooth="yes"/>
      <point x="294" y="-8"/>
      <point x="338" y="9"/>
      <point x="369" y="43" type="curve"/>
      <point x="369" y="0" type="line"/>
      <point x="663" y="0" type="line"/>
      <point x="663" y="67" type="line"/>
      <point x="435" y="67" type="line"/>
      <point x="435" y="253" type="line" smooth="yes"/>
      <point x="436" y="262"/>
      <point x="436" y="277"/>
      <point x="436" y="296" type="curve" smooth="yes"/>
      <point x="436" y="326" type="line"/>
      <point x="629" y="326" type="line"/>
      <point x="629" y="393" type="line"/>
      <point x="436" y="393" type="line"/>
      <point x="436" y="419" type="line" smooth="yes"/>
      <point x="436" y="438"/>
      <point x="436" y="452"/>
      <point x="435" y="461" type="curve" smooth="yes"/>
      <point x="435" y="640" type="line"/>
      <point x="663" y="640" type="line"/>
      <point x="663" y="707" type="line"/>
      <point x="369" y="707" type="line"/>
      <point x="369" y="668" type="line"/>
      <point x="337" y="701"/>
      <point x="294" y="717"/>
      <point x="239" y="717" type="curve" smooth="yes"/>
      <point x="182" y="717"/>
      <point x="136" y="699"/>
      <point x="103" y="664" type="curve" smooth="yes"/>
      <point x="70" y="629"/>
      <point x="53" y="575"/>
      <point x="53" y="502" type="curve" smooth="yes"/>
      <point x="53" y="206" type="line" smooth="yes"/>
      <point x="53" y="134"/>
      <point x="70" y="80"/>
      <point x="103" y="45" type="curve" smooth="yes"/>
      <point x="136" y="10"/>
      <point x="182" y="-8"/>
    </contour>
    <contour>
      <point x="246" y="59" type="curve" smooth="yes"/>
      <point x="167" y="60"/>
      <point x="128" y="108"/>
      <point x="128" y="205" type="curve" smooth="yes"/>
      <point x="128" y="495" type="line" smooth="yes"/>
      <point x="128" y="547"/>
      <point x="138" y="586"/>
      <point x="158" y="611" type="curve" smooth="yes"/>
      <point x="177" y="636"/>
      <point x="207" y="649"/>
      <point x="246" y="649" type="curve" smooth="yes"/>
      <point x="283" y="649"/>
      <point x="312" y="636"/>
      <point x="332" y="611" type="curve" smooth="yes"/>
      <point x="351" y="586"/>
      <point x="361" y="547"/>
      <point x="361" y="495" type="curve" smooth="yes"/>
      <point x="361" y="205" type="line" smooth="yes"/>
      <point x="361" y="156"/>
      <point x="351" y="120"/>
      <point x="331" y="96" type="curve" smooth="yes"/>
      <point x="311" y="71"/>
      <point x="283" y="59"/>
    </contour>
  </outline>
</glyph>
<glyph name="oe" format="2">
  <advance width="665"/>
  <unicode hex="0153"/>
  <outline>
    <contour>
      <point x="211" y="-8" type="curve" smooth="yes"/>
      <point x="266" y="-8"/>
      <point x="307" y="10"/>
      <point x="334" y="45" type="curve"/>
      <point x="361" y="10"/>
      <point x="402" y="-8"/>
      <point x="458" y="-8" type="curve" smooth="yes"/>
      <point x="556" y="-8"/>
      <point x="613" y="49"/>
      <point x="613" y="159" type="curve" smooth="yes"/>
      <point x="613" y="162" type="line"/>
      <point x="545" y="162" type="line"/>
      <point x="545" y="158" type="line" smooth="yes"/>
      <point x="545" y="86"/>
      <point x="514" y="52"/>
      <point x="460" y="52" type="curve" smooth="yes"/>
      <point x="403" y="52"/>
      <point x="368" y="86"/>
      <point x="368" y="181" type="curve" smooth="yes"/>
      <point x="368" y="245" type="line"/>
      <point x="614" y="245" type="line"/>
      <point x="614" y="351" type="line" smooth="yes"/>
      <point x="614" y="472"/>
      <point x="555" y="538"/>
      <point x="456" y="538" type="curve" smooth="yes"/>
      <point x="402" y="537"/>
      <point x="361" y="519"/>
      <point x="334" y="483" type="curve"/>
      <point x="309" y="520"/>
      <point x="268" y="538"/>
      <point x="211" y="538" type="curve" smooth="yes"/>
      <point x="109" y="538"/>
      <point x="51" y="481"/>
      <point x="51" y="357" type="curve" smooth="yes"/>
      <point x="51" y="172" type="line" smooth="yes"/>
      <point x="51" y="48"/>
      <point x="109" y="-8"/>
    </contour>
    <contour>
      <point x="210" y="54" type="curve" smooth="yes"/>
      <point x="152" y="54"/>
      <point x="121" y="88"/>
      <point x="121" y="180" type="curve" smooth="yes"/>
      <point x="121" y="349" type="line" smooth="yes"/>
      <point x="121" y="441"/>
      <point x="152" y="475"/>
      <point x="210" y="475" type="curve" smooth="yes"/>
      <point x="268" y="475"/>
      <point x="298" y="439"/>
      <point x="298" y="349" type="curve" smooth="yes"/>
      <point x="298" y="180" type="line" smooth="yes"/>
      <point x="298" y="89"/>
      <point x="267" y="54"/>
    </contour>
    <contour>
      <point x="368" y="298" type="line"/>
      <point x="368" y="349" type="line" smooth="yes"/>
      <point x="368" y="441"/>
      <point x="399" y="475"/>
      <point x="457" y="475" type="curve" smooth="yes"/>
      <point x="515" y="475"/>
      <point x="545" y="441"/>
      <point x="545" y="351" type="curve" smooth="yes"/>
      <point x="545" y="298" type="line"/>
    </contour>
  </outline>
</glyph>
<glyph name="Uogonek" format="2">
  <advance width="491"/>
  <unicode hex="0172"/>
  <outline>
    <component base="U"/>
    <contour>
      <point x="306" y="-217" type="curve"/>
      <point x="306" y="-132" type="line"/>
      <point x="282" y="-130"/>
      <point x="256" y="-115"/>
      <point x="242" y="-80" type="curve"/>
      <point x="305" y="2" type="line"/>
      <point x="251" y="-6" type="line"/>
      <point x="194" y="-56" type="line"/>
      <point x="200" y="-93"/>
      <point x="207" y="-123"/>
      <point x="219" y="-147" type="curve" smooth="yes"/>
      <point x="240" y="-192"/>
      <point x="270" y="-216"/>
    </contour>
  </outline>
</glyph>
<glyph name="florin" format="2">
  <advance width="392"/>
  <unicode hex="0192"/>
  <outline>
    <contour>
      <point x="10" y="-156" type="line"/>
      <point x="30" y="-156" type="line" smooth="yes"/>
      <point x="128" y="-156"/>
      <point x="175" y="-109"/>
      <point x="189" y="3" type="curve" smooth="yes"/>
      <point x="240" y="356" type="line"/>
      <point x="337" y="356" type="line"/>
      <point x="337" y="422" type="line"/>
      <point x="249" y="422" type="line"/>
      <point x="266" y="548" type="line" smooth="yes"/>
      <point x="277" y="620"/>
      <point x="290" y="640"/>
      <point x="351" y="640" type="curve" smooth="yes"/>
      <point x="382" y="640" type="line"/>
      <point x="382" y="707" type="line"/>
      <point x="351" y="707" type="line" smooth="yes"/>
      <point x="250" y="707"/>
      <point x="207" y="658"/>
      <point x="191" y="549" type="curve" smooth="yes"/>
      <point x="174" y="422" type="line"/>
      <point x="90" y="422" type="line"/>
      <point x="90" y="356" type="line"/>
      <point x="165" y="356" type="line"/>
      <point x="116" y="5" type="line" smooth="yes"/>
      <point x="103" y="-77"/>
      <point x="85" y="-89"/>
      <point x="31" y="-89" type="curve" smooth="yes"/>
      <point x="10" y="-89" type="line"/>
    </contour>
  </outline>
</glyph>
<glyph name="oogonek" format="2">
  <advance width="418"/>
  <unicode hex="01EB"/>
  <outline>
    <contour>
      <point x="266" y="-217" type="curve"/>
      <point x="266" y="-132" type="line"/>
      <point x="242" y="-130"/>
      <point x="216" y="-115"/>
      <point x="202" y="-80" type="curve"/>
      <point x="265" y="-1" type="line"/>
      <point x="331" y="18"/>
      <point x="368" y="74"/>
      <point x="368" y="172" type="curve" smooth="yes"/>
      <point x="368" y="357" type="line" smooth="yes"/>
      <point x="368" y="482"/>
      <point x="308" y="538"/>
      <point x="211" y="538" type="curve" smooth="yes"/>
      <point x="109" y="538"/>
      <point x="51" y="481"/>
      <point x="51" y="357" type="curve" smooth="yes"/>
      <point x="51" y="172" type="line" smooth="yes"/>
      <point x="51" y="48"/>
      <point x="109" y="-8"/>
      <point x="209" y="-8" type="curve"/>
      <point x="154" y="-56" type="line"/>
      <point x="160" y="-93"/>
      <point x="167" y="-123"/>
      <point x="179" y="-147" type="curve" smooth="yes"/>
      <point x="200" y="-192"/>
      <point x="230" y="-216"/>
    </contour>
    <contour>
      <point x="121" y="180" type="curve" smooth="yes"/>
      <point x="121" y="349" type="line" smooth="yes"/>
      <point x="121" y="441"/>
      <point x="152" y="475"/>
      <point x="210" y="475" type="curve" smooth="yes"/>
      <point x="268" y="475"/>
      <point x="298" y="439"/>
      <point x="298" y="349" type="curve" smooth="yes"/>
      <point x="298" y="180" type="line" smooth="yes"/>
      <point x="298" y="89"/>
      <point x="267" y="54"/>
      <point x="210" y="54" type="curve" smooth="yes"/>
      <point x="152" y="54"/>
      <point x="121" y="88"/>
    </contour>
  </outline>
</glyph>
<glyph name="jcaron" format="2">
  <advance width="199"/>
  <unicode hex="01F0"/>
  <outline>
    <contour>
      <point x="-26" y="-156" type="line"/>
      <point x="-8" y="-156" type="line" smooth="yes"/>
      <point x="37" y="-156"/>
      <point x="72" y="-144"/>
      <point x="97" y="-120" type="curve" smooth="yes"/>
      <point x="121" y="-96"/>
      <point x="133" y="-61"/>
      <point x="133" y="-15" type="curve" smooth="yes"/>
      <point x="133" y="529" type="line"/>
      <point x="62" y="529" type="line"/>
      <point x="62" y="-12" type="line" smooth="yes"/>
      <point x="62" y="-42"/>
      <point x="55" y="-63"/>
      <point x="41" y="-77" type="curve" smooth="yes"/>
      <point x="29" y="-88"/>
      <point x="12" y="-93"/>
      <point x="-10" y="-93" type="curve" smooth="yes"/>
      <point x="-26" y="-93" type="line"/>
    </contour>
    <contour>
      <point x="65" y="590" type="line"/>
      <point x="131" y="590" type="line"/>
      <point x="233" y="736" type="line"/>
      <point x="165" y="736" type="line"/>
      <point x="100" y="644" type="line"/>
      <point x="35" y="736" type="line"/>
      <point x="-34" y="736" type="line"/>
    </contour>
  </outline>
</glyph>
<glyph name="dotlessj" format="2">
  <advance width="199"/>
  <unicode hex="0237"/>
  <anchor x="97" y="529" name="top"/>
  <outline>
    <contour>
      <point x="-26" y="-93" type="line"/>
      <point x="-10" y="-93" type="line" smooth="yes"/>
      <point x="12" y="-93"/>
      <point x="29" y="-88"/>
      <point x="41" y="-77" type="curve" smooth="yes"/>
      <point x="55" y="-63"/>
      <point x="62" y="-42"/>
      <point x="62" y="-12" type="curve" smooth="yes"/>
      <point x="62" y="529" type="line"/>
      <point x="133" y="529" type="line"/>
      <point x="133" y="-15" type="line" smooth="yes"/>
      <point x="133" y="-61"/>
      <point x="121" y="-96"/>
      <point x="97" y="-120" type="curve" smooth="yes"/>
      <point x="72" y="-144"/>
      <point x="37" y="-156"/>
      <point x="-8" y="-156" type="curve" smooth="yes"/>
      <point x="-26" y="-156" type="line"/>
    </contour>
  </outline>
</glyph>
<glyph name="circumflex" format="2">
  <advance width="513"/>
  <unicode hex="02C6"/>
  <outline>
    <contour>
      <point x="123" y="582" type="line"/>
      <point x="191" y="582" type="line"/>
      <point x="257" y="674" type="line"/>
      <point x="322" y="582" type="line"/>
      <point x="390" y="582" type="line"/>
      <point x="288" y="728" type="line"/>
      <point x="222" y="728" type="line"/>
    </contour>
  </outline>
</glyph>
<glyph name="ring" format="2">
  <advance width="524"/>
  <unicode hex="02DA"/>
  <outline>
    <contour>
      <point x="261" y="569" type="curve" smooth="yes"/>
      <point x="315" y="569"/>
      <point x="353" y="608"/>
      <point x="353" y="660" type="curve" smooth="yes"/>
      <point x="353" y="711"/>
      <point x="316" y="752"/>
      <point x="261" y="752" type="curve" smooth="yes"/>
      <point x="208" y="752"/>
      <point x="171" y="711"/>
      <point x="171" y="660" type="curve" smooth="yes"/>
      <point x="171" y="609"/>
      <point x="210" y="569"/>
    </contour>
    <contour>
      <point x="212" y="660" type="curve" smooth="yes"/>
      <point x="212" y="690"/>
      <point x="231" y="713"/>
      <point x="261" y="713" type="curve" smooth="yes"/>
      <point x="291" y="713"/>
      <point x="311" y="690"/>
      <point x="311" y="660" type="curve" smooth="yes"/>
      <point x="311" y="629"/>
      <point x="290" y="609"/>
      <point x="261" y="609" type="curve" smooth="yes"/>
      <point x="233" y="609"/>
      <point x="212" y="630"/>
    </contour>
  </outline>
</glyph>
<glyph name="ogonek" format="2">
  <advance width="391"/>
  <unicode hex="02DB"/>
  <outline>
    <contour>
      <point x="266" y="-217" type="curve"/>
      <point x="266" y="-132" type="line"/>
      <point x="242" y="-130"/>
      <point x="216" y="-115"/>
      <point x="202" y="-80" type="curve"/>
      <point x="266" y="0" type="line"/>
      <point x="266" y="16" type="line"/>
      <point x="236" y="16" type="line"/>
      <point x="154" y="-56" type="line"/>
      <point x="160" y="-93"/>
      <point x="167" y="-123"/>
      <point x="179" y="-147" type="curve" smooth="yes"/>
      <point x="200" y="-192"/>
      <point x="230" y="-216"/>
    </contour>
  </outline>
</glyph>
<glyph name="tilde" format="2">
  <advance width="513"/>
  <unicode hex="02DC"/>
  <outline>
    <contour>
      <point x="146" y="583" type="line"/>
      <point x="159" y="598"/>
      <point x="169" y="608"/>
      <point x="178" y="614" type="curve" smooth="yes"/>
      <point x="187" y="619"/>
      <point x="196" y="622"/>
      <point x="207" y="622" type="curve" smooth="yes"/>
      <point x="214" y="622"/>
      <point x="220" y="621"/>
      <point x="226" y="618" type="curve" smooth="yes"/>
      <point x="231" y="615"/>
      <point x="239" y="610"/>
      <point x="248" y="605" type="curve" smooth="yes"/>
      <point x="259" y="599"/>
      <point x="268" y="594"/>
      <point x="276" y="591" type="curve" smooth="yes"/>
      <point x="284" y="588"/>
      <point x="293" y="586"/>
      <point x="304" y="586" type="curve" smooth="yes"/>
      <point x="317" y="586"/>
      <point x="329" y="589"/>
      <point x="338" y="594" type="curve" smooth="yes"/>
      <point x="347" y="599"/>
      <point x="356" y="608"/>
      <point x="367" y="621" type="curve"/>
      <point x="367" y="692" type="line"/>
      <point x="354" y="677"/>
      <point x="343" y="667"/>
      <point x="336" y="662" type="curve" smooth="yes"/>
      <point x="329" y="657"/>
      <point x="320" y="654"/>
      <point x="310" y="654" type="curve" smooth="yes"/>
      <point x="301" y="654"/>
      <point x="293" y="656"/>
      <point x="286" y="659" type="curve" smooth="yes"/>
      <point x="279" y="662"/>
      <point x="270" y="667"/>
      <point x="261" y="673" type="curve" smooth="yes"/>
      <point x="252" y="679"/>
      <point x="243" y="684"/>
      <point x="236" y="687" type="curve" smooth="yes"/>
      <point x="229" y="690"/>
      <point x="220" y="691"/>
      <point x="210" y="691" type="curve" smooth="yes"/>
      <point x="197" y="691"/>
      <point x="187" y="688"/>
      <point x="178" y="683" type="curve" smooth="yes"/>
      <point x="169" y="678"/>
      <point x="158" y="669"/>
      <point x="146" y="656" type="curve"/>
    </contour>
  </outline>
</glyph>
<glyph name="circumflexcmb" format="2">
  <unicode hex="0302"/>
  <outline>
    <contour>
      <point x="-133" y="582" type="line"/>
      <point x="-65" y="582" type="line"/>
      <point x="1" y="674" type="line"/>
      <point x="66" y="582" type="line"/>
      <point x="134" y="582" type="line"/>
      <point x="32" y="728" type="line"/>
      <point x="-34" y="728" type="line"/>
    </contour>
  </outline>
</glyph>
<glyph name="tildecomb" format="2">
  <unicode hex="0303"/>
  <outline>
    <contour>
      <point x="-111" y="583" type="line"/>
      <point x="-98" y="598"/>
      <point x="-88" y="608"/>
      <point x="-79" y="614" type="curve" smooth="yes"/>
      <point x="-70" y="619"/>
      <point x="-61" y="622"/>
      <point x="-50" y="622" type="curve" smooth="yes"/>
      <point x="-43" y="622"/>
      <point x="-37" y="621"/>
      <point x="-31" y="618" type="curve" smooth="yes"/>
      <point x="-26" y="615"/>
      <point x="-18" y="610"/>
      <point x="-9" y="605" type="curve" smooth="yes"/>
      <point x="2" y="599"/>
      <point x="11" y="594"/>
      <point x="19" y="591" type="curve" smooth="yes"/>
      <point x="27" y="588"/>
      <point x="36" y="586"/>
      <point x="47" y="586" type="curve" smooth="yes"/>
      <point x="60" y="586"/>
      <point x="72" y="589"/>
      <point x="81" y="594" type="curve" smooth="yes"/>
      <point x="90" y="599"/>
      <point x="99" y="608"/>
      <point x="110" y="621" type="curve"/>
      <point x="110" y="692" type="line"/>
      <point x="97" y="677"/>
      <point x="86" y="667"/>
      <point x="79" y="662" type="curve" smooth="yes"/>
      <point x="72" y="657"/>
      <point x="63" y="654"/>
      <point x="53" y="654" type="curve" smooth="yes"/>
      <point x="44" y="654"/>
      <point x="36" y="656"/>
      <point x="29" y="659" type="curve" smooth="yes"/>
      <point x="22" y="662"/>
      <point x="13" y="667"/>
      <point x="4" y="673" type="curve" smooth="yes"/>
      <point x="-5" y="679"/>
      <point x="-14" y="684"/>
      <point x="-21" y="687" type="curve" smooth="yes"/>
      <point x="-28" y="690"/>
      <point x="-37" y="691"/>
      <point x="-47" y="691" type="curve" smooth="yes"/>
      <point x="-60" y="691"/>
      <point x="-70" y="688"/>
      <point x="-79" y="683" type="curve" smooth="yes"/>
      <point x="-88" y="678"/>
      <point x="-99" y="669"/>
      <point x="-111" y="656" type="curve"/>
    </contour>
  </outline>
</glyph>
<glyph name="brevecmb" format="2">
  <unicode hex="0306"/>
  <outline>
    <contour>
      <point x="0" y="573" type="curve" smooth="yes"/>
      <point x="83" y="573"/>
      <point x="127" y="621"/>
      <point x="127" y="707" type="curve" smooth="yes"/>
      <point x="127" y="725" type="line"/>
      <point x="61" y="725" type="line"/>
      <point x="61" y="707" type="line" smooth="yes"/>
      <point x="61" y="657"/>
      <point x="41" y="633"/>
      <point x="0" y="633" type="curve" smooth="yes"/>
      <point x="-41" y="633"/>
      <point x="-61" y="657"/>
      <point x="-61" y="707" type="curve" smooth="yes"/>
      <point x="-61" y="725" type="line"/>
      <point x="-127" y="725" type="line"/>
      <point x="-127" y="707" type="line" smooth="yes"/>
      <point x="-127" y="621"/>
      <point x="-83" y="573"/>
    </contour>
  </outline>
</glyph>
<glyph name="ringcmb" format="2">
  <unicode hex="030A"/>
  <outline>
    <contour>
      <point x="-1" y="569" type="curve" smooth="yes"/>
      <point x="53" y="569"/>
      <point x="91" y="608"/>
      <point x="91" y="660" type="curve" smooth="yes"/>
      <point x="91" y="711"/>
      <point x="54" y="752"/>
      <point x="-1" y="752" type="curve" smooth="yes"/>
      <point x="-54" y="752"/>
      <point x="-91" y="711"/>
      <point x="-91" y="660" type="curve" smooth="yes"/>
      <point x="-91" y="609"/>
      <point x="-52" y="569"/>
    </contour>
    <contour>
      <point x="-50" y="660" type="curve" smooth="yes"/>
      <point x="-50" y="690"/>
      <point x="-31" y="713"/>
      <point x="-1" y="713" type="curve" smooth="yes"/>
      <point x="29" y="713"/>
      <point x="49" y="690"/>
      <point x="49" y="660" type="curve" smooth="yes"/>
      <point x="49" y="629"/>
      <point x="28" y="609"/>
      <point x="-1" y="609" type="curve" smooth="yes"/>
      <point x="-31" y="609"/>
      <point x="-50" y="630"/>
    </contour>
  </outline>
</glyph>
<glyph name="hungarumlautcmb" format="2">
  <unicode hex="030B"/>
  <outline>
    <contour>
      <point x="-100" y="590" type="line"/>
      <point x="-42" y="590" type="line"/>
      <point x="69" y="722" type="line"/>
      <point x="-7" y="722" type="line"/>
    </contour>
    <contour>
      <point x="40" y="590" type="line"/>
      <point x="98" y="590" type="line"/>
      <point x="209" y="722" type="line"/>
      <point x="133" y="722" type="line"/>
    </contour>
  </outline>
</glyph>
<glyph name="caroncmb" format="2">
  <unicode hex="030C"/>
  <outline>
    <contour>
      <point x="-35" y="590" type="line"/>
      <point x="31" y="590" type="line"/>
      <point x="133" y="736" type="line"/>
      <point x="65" y="736" type="line"/>
      <point x="0" y="644" type="line"/>
      <point x="-65" y="736" type="line"/>
      <point x="-134" y="736" type="line"/>
    </contour>
  </outline>
</glyph>
<glyph name="dotbelowcomb" format="2">
  <unicode hex="0323"/>
  <outline>
    <contour>
      <point x="-36" y="-178" type="line"/>
      <point x="36" y="-178" type="line"/>
      <point x="36" y="-86" type="line"/>
      <point x="-36" y="-86" type="line"/>
    </contour>
  </outline>
</glyph>
<glyph name="commaaccentcomb" format="2">
  <unicode hex="0326"/>
  <outline>
    <contour>
      <point x="-33" y="-173" type="line"/>
      <point x="33" y="-117" type="line"/>
      <point x="33" y="-40" type="line"/>
      <point x="-33" y="-40" type="line"/>
    </contour>
  </outline>
</glyph>
<glyph name="cedillacmb" format="2">
  <unicode hex="0327"/>
  <outline>
    <contour>
      <point x="150" y="-156" type="line"/>
      <point x="228" y="-156" type="line"/>
      <point x="288" y="12" type="line"/>
      <point x="221" y="12" type="line"/>
    </contour>
  </outline>
</glyph>
<glyph name="ogonekcmb" format="2">
  <unicode hex="0328"/>
  <anchor x="0" y="0" name="_bottom"/>
  <outline>
    <contour>
      <point x="37" y="-217" type="curve"/>
      <point x="37" y="-132" type="line"/>
      <point x="13" y="-130"/>
      <point x="-13" y="-115"/>
      <point x="-27" y="-80" type="curve"/>
      <point x="37" y="0" type="line"/>
      <point x="37" y="16" type="line"/>
      <point x="-11" y="0" type="line"/>
      <point x="-75" y="-56" type="line"/>
      <point x="-69" y="-93"/>
      <point x="-62" y="-123"/>
      <point x="-50" y="-147" type="curve" smooth="yes"/>
      <point x="-29" y="-192"/>
      <point x="1" y="-216"/>
    </contour>
  </outline>
</glyph>
<glyph name="alpha" format="2">
  <advance width="506"/>
  <unicode hex="03B1"/>
  <outline>
    <contour>
      <point x="211" y="-8" type="curve" smooth="yes"/>
      <point x="260" y="-8"/>
      <point x="317" y="32"/>
      <point x="345" y="61" type="curve"/>
      <point x="345" y="61" type="line"/>
      <point x="360" y="25"/>
      <point x="410" y="14"/>
      <point x="455" y="14" type="curve"/>
      <point x="455" y="75" type="line"/>
      <point x="385" y="77"/>
      <point x="370" y="110"/>
      <point x="370" y="188" type="curve" smooth="yes"/>
      <point x="370" y="341" type="line" smooth="yes"/>
      <point x="370" y="412"/>
      <point x="381" y="454"/>
      <point x="455" y="454" type="curve"/>
      <point x="455" y="516" type="line"/>
      <point x="406" y="515"/>
      <point x="373" y="507"/>
      <point x="345" y="469" type="curve"/>
      <point x="320" y="515"/>
      <point x="272" y="538"/>
      <point x="211" y="538" type="curve" smooth="yes"/>
      <point x="109" y="538"/>
      <point x="51" y="481"/>
      <point x="51" y="357" type="curve" smooth="yes"/>
      <point x="51" y="172" type="line" smooth="yes"/>
      <point x="51" y="48"/>
      <point x="109" y="-8"/>
    </contour>
    <contour>
      <point x="121" y="180" type="curve" smooth="yes"/>
      <point x="121" y="349" type="line" smooth="yes"/>
      <point x="121" y="441"/>
      <point x="152" y="475"/>
      <point x="210" y="475" type="curve" smooth="yes"/>
      <point x="268" y="475"/>
      <point x="298" y="439"/>
      <point x="298" y="349" type="curve" smooth="yes"/>
      <point x="298" y="180" type="line" smooth="yes"/>
      <point x="298" y="89"/>
      <point x="267" y="54"/>
      <point x="210" y="54" type="curve" smooth="yes"/>
      <point x="152" y="54"/>
      <point x="121" y="88"/>
    </contour>
  </outline>
</glyph>
<glyph name="Djecyr" format="2">
  <advance width="558"/>
  <unicode hex="0402"/>
  <anchor x="156" y="0" name="b.cedilla"/>
  <anchor x="188" y="-86" name="bottom"/>
  <anchor x="170" y="760" name="top"/>
  <outline>
    <contour>
      <point x="152" y="0" type="line"/>
      <point x="225" y="0" type="line"/>
      <point x="225" y="341" type="line"/>
      <point x="320" y="341" type="line" smooth="yes"/>
      <point x="396" y="341"/>
      <point x="431" y="299"/>
      <point x="431" y="206" type="curve" smooth="yes"/>
      <point x="431" y="109"/>
      <point x="397" y="68"/>
      <point x="320" y="67" type="curve" smooth="yes"/>
      <point x="286" y="67" type="line"/>
      <point x="286" y="0" type="line"/>
      <point x="324" y="0" type="line" smooth="yes"/>
      <point x="446" y="0"/>
      <point x="505" y="67"/>
      <point x="505" y="206" type="curve" smooth="yes"/>
      <point x="505" y="341"/>
      <point x="445" y="408"/>
      <point x="324" y="408" type="curve" smooth="yes"/>
      <point x="225" y="408" type="line"/>
      <point x="225" y="640" type="line"/>
      <point x="371" y="640" type="line"/>
      <point x="371" y="707" type="line"/>
      <point x="6" y="707" type="line"/>
      <point x="6" y="640" type="line"/>
      <point x="152" y="640" type="line"/>
    </contour>
  </outline>
</glyph>
<glyph name="Ljecyr" format="2">
  <advance width="789"/>
  <unicode hex="0409"/>
  <outline>
    <component base="Elcyr"/>
    <contour>
      <point x="426" y="408" type="line"/>
      <point x="555" y="408" type="line" smooth="yes"/>
      <point x="676" y="408"/>
      <point x="736" y="341"/>
      <point x="736" y="206" type="curve" smooth="yes"/>
      <point x="736" y="67"/>
      <point x="677" y="0"/>
      <point x="555" y="0" type="curve" smooth="yes"/>
      <point x="426" y="0" type="line"/>
      <point x="426" y="67" type="line"/>
      <point x="551" y="67" type="line" smooth="yes"/>
      <point x="628" y="67"/>
      <point x="662" y="109"/>
      <point x="662" y="206" type="curve" smooth="yes"/>
      <point x="662" y="299"/>
      <point x="627" y="341"/>
      <point x="551" y="341" type="curve" smooth="yes"/>
      <point x="426" y="341" type="line"/>
    </contour>
  </outline>
</glyph>
<glyph name="Dzhecyr" format="2">
  <advance width="471"/>
  <unicode hex="040F"/>
  <outline>
    <contour>
      <point x="61" y="707" type="line"/>
      <point x="136" y="707" type="line"/>
      <point x="136" y="67" type="line"/>
      <point x="335" y="67" type="line"/>
      <point x="335" y="707" type="line"/>
      <point x="410" y="707" type="line"/>
      <point x="410" y="0" type="line"/>
      <point x="273" y="0" type="line"/>
      <point x="273" y="-170" type="line"/>
      <point x="198" y="-170" type="line"/>
      <point x="198" y="0" type="line"/>
      <point x="61" y="0" type="line"/>
    </contour>
  </outline>
</glyph>
<glyph name="Zhecyr" format="2">
  <advance width="755"/>
  <unicode hex="0416"/>
  <outline>
    <contour>
      <point x="10" y="0" type="line"/>
      <point x="92" y="0" type="line"/>
      <point x="273" y="327" type="line"/>
      <point x="340" y="327" type="line"/>
      <point x="340" y="0" type="line"/>
      <point x="415" y="0" type="line"/>
      <point x="415" y="327" type="line"/>
      <point x="482" y="327" type="line"/>
      <point x="663" y="0" type="line"/>
      <point x="745" y="0" type="line"/>
      <point x="547" y="363" type="line"/>
      <point x="720" y="707" type="line"/>
      <point x="641" y="707" type="line"/>
      <point x="489" y="393" type="line"/>
      <point x="415" y="393" type="line"/>
      <point x="415" y="707" type="line"/>
      <point x="340" y="707" type="line"/>
      <point x="340" y="393" type="line"/>
      <point x="266" y="393" type="line"/>
      <point x="114" y="707" type="line"/>
      <point x="35" y="707" type="line"/>
      <point x="208" y="363" type="line"/>
    </contour>
  </outline>
</glyph>
<glyph name="Zecyr" format="2">
  <advance width="457"/>
  <unicode hex="0417"/>
  <outline>
    <contour>
      <point x="61" y="200" type="line"/>
      <point x="61" y="191" type="line" smooth="yes"/>
      <point x="61" y="57"/>
      <point x="138" y="-8"/>
      <point x="231" y="-8" type="curve" smooth="yes"/>
      <point x="356" y="-8"/>
      <point x="404" y="64"/>
      <point x="404" y="195" type="curve" smooth="yes"/>
      <point x="404" y="208" type="line" smooth="yes"/>
      <point x="404" y="296"/>
      <point x="368" y="349"/>
      <point x="304" y="367" type="curve"/>
      <point x="366" y="390"/>
      <point x="397" y="441"/>
      <point x="397" y="522" type="curve" smooth="yes"/>
      <point x="397" y="541" type="line" smooth="yes"/>
      <point x="397" y="653"/>
      <point x="338" y="716"/>
      <point x="234" y="716" type="curve" smooth="yes"/>
      <point x="130" y="716"/>
      <point x="61" y="638"/>
      <point x="61" y="519" type="curve" smooth="yes"/>
      <point x="61" y="510" type="line"/>
      <point x="136" y="510" type="line"/>
      <point x="136" y="519" type="line" smooth="yes"/>
      <point x="136" y="601"/>
      <point x="172" y="649"/>
      <point x="235" y="649" type="curve" smooth="yes"/>
      <point x="289" y="649"/>
      <point x="322" y="607"/>
      <point x="322" y="540" type="curve" smooth="yes"/>
      <point x="322" y="518" type="line" smooth="yes"/>
      <point x="322" y="439"/>
      <point x="286" y="399"/>
      <point x="212" y="399" type="curve" smooth="yes"/>
      <point x="176" y="399" type="line"/>
      <point x="176" y="333" type="line"/>
      <point x="213" y="333" type="line" smooth="yes"/>
      <point x="290" y="333"/>
      <point x="329" y="289"/>
      <point x="329" y="200" type="curve" smooth="yes"/>
      <point x="329" y="181" type="line" smooth="yes"/>
      <point x="329" y="102"/>
      <point x="301" y="59"/>
      <point x="241" y="59" type="curve" smooth="yes"/>
      <point x="185" y="59"/>
      <point x="136" y="93"/>
      <point x="136" y="191" type="curve" smooth="yes"/>
      <point x="136" y="200" type="line"/>
    </contour>
  </outline>
</glyph>
<glyph name="Icyr" format="2">
  <advance width="506"/>
  <unicode hex="0418"/>
  <guideline x="238" y="0" angle="90" name="h1"/>
  <anchor x="238" y="760" name="top"/>
  <outline>
    <contour>
      <point x="61" y="0" type="line"/>
      <point x="146" y="0" type="line"/>
      <point x="370" y="548" type="line"/>
      <point x="370" y="0" type="line"/>
      <point x="445" y="0" type="line"/>
      <point x="445" y="707" type="line"/>
      <point x="360" y="707" type="line"/>
      <point x="136" y="159" type="line"/>
      <point x="136" y="707" type="line"/>
      <point x="61" y="707" type="line"/>
    </contour>
  </outline>
</glyph>
<glyph name="Kacyr" format="2">
  <advance width="472"/>
  <unicode hex="041A"/>
  <guideline x="236" y="0" angle="90" name="h1"/>
  <anchor x="236" y="760" name="top"/>
  <outline>
    <contour>
      <point x="61" y="0" type="line"/>
      <point x="136" y="0" type="line"/>
      <point x="136" y="327" type="line"/>
      <point x="203" y="327" type="line"/>
      <point x="384" y="0" type="line"/>
      <point x="466" y="0" type="line"/>
      <point x="268" y="363" type="line"/>
      <point x="441" y="707" type="line"/>
      <point x="362" y="707" type="line"/>
      <point x="210" y="393" type="line"/>
      <point x="136" y="393" type="line"/>
      <point x="136" y="707" type="line"/>
      <point x="61" y="707" type="line"/>
    </contour>
  </outline>
</glyph>
<glyph name="Elcyr" format="2">
  <advance width="520"/>
  <unicode hex="041B"/>
  <guideline x="192" y="420" angle="86.0137"/>
  <guideline x="137" y="707" angle="265.462"/>
  <outline>
    <contour>
      <point x="137" y="707" type="line"/>
      <point x="458" y="707" type="line"/>
      <point x="458" y="0" type="line"/>
      <point x="383" y="0" type="line"/>
      <point x="383" y="640" type="line"/>
      <point x="207" y="640" type="line"/>
      <point x="174" y="162" type="line" smooth="yes"/>
      <point x="167" y="59"/>
      <point x="130" y="0"/>
      <point x="20" y="0" type="curve"/>
      <point x="20" y="67" type="line"/>
      <point x="65" y="67"/>
      <point x="89" y="99"/>
      <point x="93" y="157" type="curve" smooth="yes"/>
    </contour>
  </outline>
</glyph>
<glyph name="Pecyr" format="2">
  <advance width="493"/>
  <unicode hex="041F"/>
  <outline>
    <contour>
      <point x="61" y="0" type="line"/>
      <point x="136" y="0" type="line"/>
      <point x="136" y="640" type="line"/>
      <point x="357" y="640" type="line"/>
      <point x="357" y="0" type="line"/>
      <point x="432" y="0" type="line"/>
      <point x="432" y="707" type="line"/>
      <point x="61" y="707" type="line"/>
    </contour>
  </outline>
</glyph>
<glyph name="Efcyr" format="2">
  <advance width="549"/>
  <unicode hex="0424"/>
  <guideline x="275" y="0" angle="90" name="h1"/>
  <anchor x="275" y="760" name="top"/>
  <outline>
    <contour>
      <point x="237" y="707" type="line"/>
      <point x="312" y="707" type="line"/>
      <point x="312" y="656" type="line"/>
      <point x="430" y="653"/>
      <point x="496" y="576"/>
      <point x="496" y="441" type="curve" smooth="yes"/>
      <point x="496" y="266" type="line" smooth="yes"/>
      <point x="496" y="133"/>
      <point x="428" y="55"/>
      <point x="312" y="52" type="curve"/>
      <point x="312" y="0" type="line"/>
      <point x="237" y="0" type="line"/>
      <point x="237" y="52" type="line"/>
      <point x="121" y="56"/>
      <point x="53" y="134"/>
      <point x="53" y="266" type="curve" smooth="yes"/>
      <point x="53" y="441" type="line" smooth="yes"/>
      <point x="53" y="576"/>
      <point x="120" y="652"/>
      <point x="237" y="656" type="curve"/>
    </contour>
    <contour>
      <point x="421" y="434" type="line" smooth="yes"/>
      <point x="421" y="533"/>
      <point x="384" y="585"/>
      <point x="312" y="588" type="curve"/>
      <point x="312" y="119" type="line"/>
      <point x="382" y="122"/>
      <point x="421" y="174"/>
      <point x="421" y="265" type="curve" smooth="yes"/>
    </contour>
    <contour>
      <point x="128" y="265" type="line" smooth="yes"/>
      <point x="128" y="172"/>
      <point x="164" y="123"/>
      <point x="237" y="119" type="curve"/>
      <point x="237" y="588" type="line"/>
      <point x="164" y="584"/>
      <point x="128" y="533"/>
      <point x="128" y="434" type="curve" smooth="yes"/>
    </contour>
  </outline>
</glyph>
<glyph name="Checyr" format="2">
  <advance width="492"/>
  <unicode hex="0427"/>
  <outline>
    <contour>
      <point x="355" y="0" type="line"/>
      <point x="431" y="0" type="line"/>
      <point x="431" y="707" type="line"/>
      <point x="355" y="707" type="line"/>
      <point x="355" y="308" type="line"/>
      <point x="323" y="290"/>
      <point x="302" y="289"/>
      <point x="246" y="289" type="curve" smooth="yes"/>
      <point x="178" y="289"/>
      <point x="137" y="336"/>
      <point x="137" y="414" type="curve" smooth="yes"/>
      <point x="137" y="707" type="line"/>
      <point x="61" y="707" type="line"/>
      <point x="61" y="410" type="line" smooth="yes"/>
      <point x="61" y="300"/>
      <point x="138" y="222"/>
      <point x="246" y="222" type="curve" smooth="yes"/>
      <point x="291" y="222"/>
      <point x="326" y="228"/>
      <point x="355" y="240" type="curve"/>
    </contour>
  </outline>
</glyph>
<glyph name="Softcyr" format="2">
  <advance width="479"/>
  <unicode hex="042C"/>
  <guideline x="226" y="0" angle="90" name="h1"/>
  <guideline x="226" y="0" angle="90" name="h1"/>
  <anchor x="226" y="760" name="top"/>
  <outline>
    <contour>
      <point x="61" y="0" type="line"/>
      <point x="245" y="0" type="line" smooth="yes"/>
      <point x="367" y="0"/>
      <point x="426" y="67"/>
      <point x="426" y="206" type="curve" smooth="yes"/>
      <point x="426" y="341"/>
      <point x="366" y="408"/>
      <point x="245" y="408" type="curve" smooth="yes"/>
      <point x="136" y="408" type="line"/>
      <point x="136" y="707" type="line"/>
      <point x="61" y="707" type="line"/>
    </contour>
    <contour>
      <point x="136" y="67" type="line"/>
      <point x="136" y="341" type="line"/>
      <point x="241" y="341" type="line" smooth="yes"/>
      <point x="317" y="341"/>
      <point x="352" y="299"/>
      <point x="352" y="206" type="curve" smooth="yes"/>
      <point x="352" y="109"/>
      <point x="318" y="67"/>
      <point x="241" y="67" type="curve" smooth="yes"/>
    </contour>
  </outline>
</glyph>
<glyph name="Ereversedcyr" format="2">
  <advance width="489"/>
  <unicode hex="042D"/>
  <guideline x="242" y="0" angle="90" name="h1"/>
  <anchor x="242" y="760" name="top"/>
  <outline>
    <contour>
      <point x="242" y="-8" type="curve" smooth="yes"/>
      <point x="358" y="-8"/>
      <point x="436" y="64"/>
      <point x="436" y="206" type="curve" smooth="yes"/>
      <point x="436" y="501" type="line" smooth="yes"/>
      <point x="436" y="644"/>
      <point x="360" y="716"/>
      <point x="243" y="716" type="curve" smooth="yes"/>
      <point x="130" y="716"/>
      <point x="53" y="647"/>
      <point x="53" y="510" type="curve" smooth="yes"/>
      <point x="53" y="501" type="line"/>
      <point x="128" y="501" type="line"/>
      <point x="128" y="508" type="line" smooth="yes"/>
      <point x="128" y="605"/>
      <point x="171" y="648"/>
      <point x="242" y="648" type="curve" smooth="yes"/>
      <point x="320" y="648"/>
      <point x="361" y="600"/>
      <point x="361" y="494" type="curve" smooth="yes"/>
      <point x="361" y="393" type="line"/>
      <point x="154" y="393" type="line"/>
      <point x="154" y="327" type="line"/>
      <point x="361" y="327" type="line"/>
      <point x="361" y="205" type="line" smooth="yes"/>
      <point x="361" y="108"/>
      <point x="321" y="60"/>
      <point x="242" y="59" type="curve" smooth="yes"/>
      <point x="173" y="59"/>
      <point x="128" y="102"/>
      <point x="128" y="197" type="curve" smooth="yes"/>
      <point x="128" y="206" type="line"/>
      <point x="55" y="206" type="line"/>
      <point x="55" y="196" type="line" smooth="yes"/>
      <point x="55" y="60"/>
      <point x="132" y="-8"/>
    </contour>
  </outline>
</glyph>
<glyph name="Yucyr" format="2">
  <advance width="689"/>
  <unicode hex="042E"/>
  <guideline x="397" y="0" angle="90" name="h1"/>
  <anchor x="397" y="760" name="top"/>
  <outline>
    <component base="O" xOffset="200"/>
    <contour>
      <point x="61" y="0" type="line"/>
      <point x="136" y="0" type="line"/>
      <point x="136" y="327" type="line"/>
      <point x="293" y="327" type="line"/>
      <point x="293" y="393" type="line"/>
      <point x="136" y="393" type="line"/>
      <point x="136" y="707" type="line"/>
      <point x="61" y="707" type="line"/>
    </contour>
  </outline>
</glyph>
<glyph name="Yacyr" format="2">
  <advance width="477"/>
  <unicode hex="042F"/>
  <guideline x="255" y="0" angle="90" name="h1"/>
  <anchor x="256" y="760" name="top"/>
  <outline>
    <contour>
      <point x="31" y="0" type="line"/>
      <point x="110" y="0" type="line"/>
      <point x="227" y="309" type="line"/>
      <point x="341" y="309" type="line"/>
      <point x="341" y="0" type="line"/>
      <point x="416" y="0" type="line"/>
      <point x="416" y="707" type="line"/>
      <point x="229" y="707" type="line" smooth="yes"/>
      <point x="106" y="707"/>
      <point x="51" y="642"/>
      <point x="51" y="507" type="curve" smooth="yes"/>
      <point x="51" y="406"/>
      <point x="86" y="344"/>
      <point x="155" y="321" type="curve"/>
    </contour>
    <contour>
      <point x="126" y="507" type="curve" smooth="yes"/>
      <point x="126" y="597"/>
      <point x="156" y="640"/>
      <point x="230" y="640" type="curve" smooth="yes"/>
      <point x="341" y="640" type="line"/>
      <point x="341" y="375" type="line"/>
      <point x="230" y="375" type="line" smooth="yes"/>
      <point x="158" y="375"/>
      <point x="126" y="419"/>
    </contour>
  </outline>
</glyph>
<glyph name="vecyr" format="2">
  <advance width="423"/>
  <unicode hex="0432"/>
  <outline>
    <contour>
      <point x="60" y="0" type="line"/>
      <point x="203" y="0" type="line" smooth="yes"/>
      <point x="305" y="0"/>
      <point x="364" y="55"/>
      <point x="364" y="149" type="curve" smooth="yes"/>
      <point x="364" y="224"/>
      <point x="342" y="269"/>
      <point x="294" y="291" type="curve"/>
      <point x="328" y="314"/>
      <point x="344" y="346"/>
      <point x="344" y="400" type="curve" smooth="yes"/>
      <point x="344" y="478"/>
      <point x="294" y="529"/>
      <point x="219" y="529" type="curve" smooth="yes"/>
      <point x="60" y="529" type="line"/>
    </contour>
    <contour>
      <point x="129" y="63" type="line"/>
      <point x="129" y="255" type="line"/>
      <point x="218" y="255" type="line" smooth="yes"/>
      <point x="264" y="255"/>
      <point x="295" y="218"/>
      <point x="295" y="163" type="curve" smooth="yes"/>
      <point x="295" y="104"/>
      <point x="264" y="63"/>
      <point x="218" y="63" type="curve" smooth="yes"/>
    </contour>
    <contour>
      <point x="129" y="308" type="line"/>
      <point x="129" y="466" type="line"/>
      <point x="198" y="466" type="line" smooth="yes"/>
      <point x="247" y="466"/>
      <point x="275" y="438"/>
      <point x="275" y="389" type="curve" smooth="yes"/>
      <point x="275" y="345"/>
      <point x="240" y="308"/>
      <point x="198" y="308" type="curve" smooth="yes"/>
    </contour>
  </outline>
</glyph>
<glyph name="decyr" format="2">
  <advance width="473"/>
  <unicode hex="0434"/>
  <guideline x="140" y="529" angle="265.217"/>
  <guideline x="189" y="258" angle="85.7792"/>
  <outline>
    <contour>
      <point x="20" y="-170" type="line"/>
      <point x="89" y="-170" type="line"/>
      <point x="89" y="0" type="line"/>
      <point x="384" y="0" type="line"/>
      <point x="384" y="-170" type="line"/>
      <point x="453" y="-170" type="line"/>
      <point x="453" y="63" type="line"/>
      <point x="394" y="63" type="line"/>
      <point x="394" y="529" type="line"/>
      <point x="140" y="529" type="line"/>
      <point x="120" y="290" type="line" smooth="yes"/>
      <point x="108" y="152"/>
      <point x="95" y="63"/>
      <point x="60" y="63" type="curve"/>
      <point x="20" y="63" type="line"/>
    </contour>
    <contour>
      <point x="153" y="63" type="line"/>
      <point x="176" y="120"/>
      <point x="185" y="203"/>
      <point x="189" y="258" type="curve" smooth="yes"/>
      <point x="204" y="466" type="line"/>
      <point x="325" y="466" type="line"/>
      <point x="325" y="63" type="line"/>
    </contour>
  </outline>
</glyph>
<glyph name="icyr" format="2">
  <advance width="438"/>
  <unicode hex="0438"/>
  <guideline x="214" y="0" angle="90" name="h1"/>
  <anchor x="214" y="590" name="top"/>
  <outline>
    <contour>
      <point x="60" y="0" type="line"/>
      <point x="139" y="0" type="line"/>
      <point x="309" y="399" type="line"/>
      <point x="309" y="0" type="line"/>
      <point x="378" y="0" type="line"/>
      <point x="378" y="529" type="line"/>
      <point x="299" y="529" type="line"/>
      <point x="129" y="130" type="line"/>
      <point x="129" y="529" type="line"/>
      <point x="60" y="529" type="line"/>
    </contour>
  </outline>
</glyph>
<glyph name="kacyr" format="2">
  <advance width="417"/>
  <unicode hex="043A"/>
  <guideline x="211" y="258" angle="58.0517"/>
  <guideline x="172" y="249" angle="301.402"/>
  <guideline x="0" y="343" angle="0"/>
  <guideline x="0" y="258" angle="0"/>
  <guideline x="303" y="529" angle="237.358"/>
  <guideline x="403" y="0" angle="120.991"/>
  <guideline x="0" y="277" angle="0"/>
  <guideline x="303" y="529" angle="237.297"/>
  <guideline x="211" y="258" angle="58.0517"/>
  <guideline x="214" y="0" angle="90" name="h1"/>
  <anchor x="214" y="590" name="top"/>
  <outline>
    <contour>
      <point x="60" y="529" type="line"/>
      <point x="130" y="529" type="line"/>
      <point x="130" y="313" type="line"/>
      <point x="164" y="313" type="line"/>
      <point x="303" y="529" type="line"/>
      <point x="380" y="529" type="line"/>
      <point x="230" y="288" type="line"/>
      <point x="403" y="0" type="line"/>
      <point x="324" y="0" type="line"/>
      <point x="172" y="249" type="line"/>
      <point x="173" y="250" type="line"/>
      <point x="130" y="250" type="line"/>
      <point x="130" y="0" type="line"/>
      <point x="60" y="0" type="line"/>
    </contour>
  </outline>
</glyph>
<glyph name="elcyr" format="2">
  <advance width="405"/>
  <unicode hex="043B"/>
  <guideline x="91" y="529" angle="265.217"/>
  <guideline x="140" y="258" angle="85.7792"/>
  <outline>
    <contour>
      <point x="11" y="0" type="line"/>
      <point x="86" y="0"/>
      <point x="123" y="31"/>
      <point x="128" y="99" type="curve" smooth="yes"/>
      <point x="155" y="466" type="line"/>
      <point x="276" y="466" type="line"/>
      <point x="276" y="0" type="line"/>
      <point x="345" y="0" type="line"/>
      <point x="345" y="529" type="line"/>
      <point x="91" y="529" type="line"/>
      <point x="57" y="123" type="line" smooth="yes"/>
      <point x="54" y="87"/>
      <point x="46" y="63"/>
      <point x="11" y="63" type="curve"/>
    </contour>
  </outline>
</glyph>
<glyph name="emcyr" format="2">
  <advance width="582"/>
  <unicode hex="043C"/>
  <outline>
    <contour>
      <point x="60" y="0" type="line"/>
      <point x="129" y="0" type="line"/>
      <point x="129" y="399" type="line"/>
      <point x="279" y="60" type="line"/>
      <point x="303" y="60" type="line"/>
      <point x="453" y="399" type="line"/>
      <point x="453" y="0" type="line"/>
      <point x="522" y="0" type="line"/>
      <point x="522" y="529" type="line"/>
      <point x="443" y="529" type="line"/>
      <point x="290" y="180" type="line"/>
      <point x="139" y="529" type="line"/>
      <point x="60" y="529" type="line"/>
    </contour>
  </outline>
</glyph>
<glyph name="encyr" format="2">
  <advance width="424"/>
  <unicode hex="043D"/>
  <outline>
    <contour>
      <point x="60" y="0" type="line"/>
      <point x="129" y="0" type="line"/>
      <point x="129" y="250" type="line"/>
      <point x="295" y="250" type="line"/>
      <point x="295" y="0" type="line"/>
      <point x="364" y="0" type="line"/>
      <point x="364" y="529" type="line"/>
      <point x="295" y="529" type="line"/>
      <point x="295" y="313" type="line"/>
      <point x="129" y="313" type="line"/>
      <point x="129" y="529" type="line"/>
      <point x="60" y="529" type="line"/>
    </contour>
  </outline>
</glyph>
<glyph name="tecyr" format="2">
  <advance width="362"/>
  <unicode hex="0442"/>
  <guideline x="195" y="0" angle="90" name="h1"/>
  <anchor x="181" y="590" name="top"/>
  <outline>
    <contour>
      <point x="146" y="0" type="line"/>
      <point x="216" y="0" type="line"/>
      <point x="216" y="466" type="line"/>
      <point x="356" y="466" type="line"/>
      <point x="356" y="529" type="line"/>
      <point x="6" y="529" type="line"/>
      <point x="6" y="466" type="line"/>
      <point x="146" y="466" type="line"/>
    </contour>
  </outline>
</glyph>
<glyph name="efcyr" format="2">
  <advance width="653"/>
  <unicode hex="0444"/>
  <outline>
    <contour>
      <point x="292" y="-156" type="line"/>
      <point x="362" y="-156" type="line"/>
      <point x="362" y="47" type="line"/>
      <point x="385" y="10"/>
      <point x="418" y="-8"/>
      <point x="463" y="-8" type="curve" smooth="yes"/>
      <point x="552" y="-8"/>
      <point x="603" y="57"/>
      <point x="603" y="172" type="curve" smooth="yes"/>
      <point x="603" y="357" type="line" smooth="yes"/>
      <point x="603" y="472"/>
      <point x="552" y="538"/>
      <point x="462" y="538" type="curve" smooth="yes"/>
      <point x="419" y="538"/>
      <point x="385" y="517"/>
      <point x="362" y="478" type="curve"/>
      <point x="362" y="707" type="line"/>
      <point x="292" y="707" type="line"/>
      <point x="292" y="478" type="line"/>
      <point x="269" y="517"/>
      <point x="235" y="538"/>
      <point x="192" y="538" type="curve" smooth="yes"/>
      <point x="102" y="538"/>
      <point x="51" y="472"/>
      <point x="51" y="357" type="curve" smooth="yes"/>
      <point x="51" y="172" type="line" smooth="yes"/>
      <point x="51" y="57"/>
      <point x="102" y="-8"/>
      <point x="191" y="-8" type="curve" smooth="yes"/>
      <point x="236" y="-8"/>
      <point x="269" y="10"/>
      <point x="292" y="47" type="curve"/>
    </contour>
    <contour>
      <point x="121" y="180" type="curve" smooth="yes"/>
      <point x="121" y="349" type="line" smooth="yes"/>
      <point x="121" y="433"/>
      <point x="149" y="475"/>
      <point x="204" y="475" type="curve" smooth="yes"/>
      <point x="262" y="475"/>
      <point x="292" y="431"/>
      <point x="292" y="348" type="curve" smooth="yes"/>
      <point x="292" y="179" type="line" smooth="yes"/>
      <point x="292" y="98"/>
      <point x="261" y="54"/>
      <point x="204" y="54" type="curve" smooth="yes"/>
      <point x="149" y="54"/>
      <point x="121" y="96"/>
    </contour>
    <contour>
      <point x="362" y="179" type="curve" smooth="yes"/>
      <point x="362" y="348" type="line" smooth="yes"/>
      <point x="362" y="431"/>
      <point x="392" y="475"/>
      <point x="450" y="475" type="curve" smooth="yes"/>
      <point x="505" y="475"/>
      <point x="533" y="433"/>
      <point x="533" y="349" type="curve" smooth="yes"/>
      <point x="533" y="180" type="line" smooth="yes"/>
      <point x="533" y="96"/>
      <point x="505" y="54"/>
      <point x="450" y="54" type="curve" smooth="yes"/>
      <point x="393" y="54"/>
      <point x="362" y="98"/>
    </contour>
  </outline>
</glyph>
<glyph name="tsecyr" format="2">
  <advance width="433"/>
  <unicode hex="0446"/>
  <outline>
    <contour>
      <point x="60" y="529" type="line"/>
      <point x="129" y="529" type="line"/>
      <point x="129" y="63" type="line"/>
      <point x="295" y="63" type="line"/>
      <point x="295" y="529" type="line"/>
      <point x="364" y="529" type="line"/>
      <point x="364" y="63" type="line"/>
      <point x="423" y="63" type="line"/>
      <point x="423" y="-170" type="line"/>
      <point x="354" y="-170" type="line"/>
      <point x="354" y="0" type="line"/>
      <point x="60" y="0" type="line"/>
    </contour>
  </outline>
</glyph>
<glyph name="shacyr" format="2">
  <advance width="581"/>
  <unicode hex="0448"/>
  <outline>
    <contour>
      <point x="60" y="0" type="line"/>
      <point x="521" y="0" type="line"/>
      <point x="521" y="529" type="line"/>
      <point x="452" y="529" type="line"/>
      <point x="452" y="63" type="line"/>
      <point x="325" y="63" type="line"/>
      <point x="325" y="529" type="line"/>
      <point x="256" y="529" type="line"/>
      <point x="256" y="63" type="line"/>
      <point x="129" y="63" type="line"/>
      <point x="129" y="529" type="line"/>
      <point x="60" y="529" type="line"/>
    </contour>
  </outline>
</glyph>
<glyph name="shchacyr" format="2">
  <advance width="590"/>
  <unicode hex="0449"/>
  <outline>
    <contour>
      <point x="511" y="-170" type="line"/>
      <point x="580" y="-170" type="line"/>
      <point x="580" y="63" type="line"/>
      <point x="521" y="63" type="line"/>
      <point x="521" y="529" type="line"/>
      <point x="452" y="529" type="line"/>
      <point x="452" y="63" type="line"/>
      <point x="325" y="63" type="line"/>
      <point x="325" y="529" type="line"/>
      <point x="256" y="529" type="line"/>
      <point x="256" y="63" type="line"/>
      <point x="129" y="63" type="line"/>
      <point x="129" y="529" type="line"/>
      <point x="60" y="529" type="line"/>
      <point x="60" y="0" type="line"/>
      <point x="511" y="0" type="line"/>
    </contour>
  </outline>
</glyph>
<glyph name="softcyr" format="2">
  <advance width="414"/>
  <unicode hex="044C"/>
  <outline>
    <contour>
      <point x="60" y="0" type="line"/>
      <point x="203" y="0" type="line" smooth="yes"/>
      <point x="305" y="0"/>
      <point x="364" y="56"/>
      <point x="364" y="163" type="curve" smooth="yes"/>
      <point x="364" y="267"/>
      <point x="319" y="313"/>
      <point x="218" y="313" type="curve" smooth="yes"/>
      <point x="129" y="313" type="line"/>
      <point x="129" y="529" type="line"/>
      <point x="60" y="529" type="line"/>
    </contour>
    <contour>
      <point x="129" y="63" type="line"/>
      <point x="129" y="250" type="line"/>
      <point x="218" y="250" type="line" smooth="yes"/>
      <point x="264" y="250"/>
      <point x="295" y="214"/>
      <point x="295" y="160" type="curve" smooth="yes"/>
      <point x="295" y="103"/>
      <point x="264" y="63"/>
      <point x="218" y="63" type="curve" smooth="yes"/>
    </contour>
  </outline>
</glyph>
<glyph name="ereversedcyr" format="2">
  <advance width="417"/>
  <unicode hex="044D"/>
  <guideline x="210" y="0" angle="90" name="h1"/>
  <anchor x="210" y="590" name="top"/>
  <outline>
    <contour>
      <point x="206" y="-8" type="curve" smooth="yes"/>
      <point x="308" y="-8"/>
      <point x="367" y="48"/>
      <point x="367" y="172" type="curve" smooth="yes"/>
      <point x="367" y="357" type="line" smooth="yes"/>
      <point x="367" y="481"/>
      <point x="309" y="538"/>
      <point x="207" y="538" type="curve" smooth="yes"/>
      <point x="107" y="538"/>
      <point x="50" y="483"/>
      <point x="50" y="369" type="curve" smooth="yes"/>
      <point x="50" y="354" type="line"/>
      <point x="120" y="354" type="line"/>
      <point x="120" y="369" type="line" smooth="yes"/>
      <point x="120" y="440"/>
      <point x="149" y="475"/>
      <point x="206" y="475" type="curve" smooth="yes"/>
      <point x="266" y="475"/>
      <point x="297" y="441"/>
      <point x="297" y="349" type="curve" smooth="yes"/>
      <point x="297" y="313" type="line"/>
      <point x="189" y="313" type="line"/>
      <point x="189" y="250" type="line"/>
      <point x="297" y="250" type="line"/>
      <point x="297" y="180" type="line" smooth="yes"/>
      <point x="297" y="88"/>
      <point x="265" y="54"/>
      <point x="207" y="54" type="curve" smooth="yes"/>
      <point x="149" y="54"/>
      <point x="120" y="90"/>
      <point x="120" y="161" type="curve" smooth="yes"/>
      <point x="120" y="175" type="line"/>
      <point x="50" y="175" type="line"/>
      <point x="50" y="162" type="line" smooth="yes"/>
      <point x="50" y="47"/>
      <point x="109" y="-8"/>
    </contour>
  </outline>
</glyph>
<glyph name="yacyr" format="2">
  <advance width="439"/>
  <unicode hex="044F"/>
  <guideline x="241" y="0" angle="90" name="h1"/>
  <anchor x="241" y="590" name="top"/>
  <outline>
    <contour>
      <point x="60" y="0" type="line"/>
      <point x="127" y="0" type="line"/>
      <point x="211" y="205" type="line"/>
      <point x="310" y="205" type="line"/>
      <point x="310" y="0" type="line"/>
      <point x="379" y="0" type="line"/>
      <point x="379" y="529" type="line"/>
      <point x="215" y="529" type="line" smooth="yes"/>
      <point x="136" y="529"/>
      <point x="64" y="467"/>
      <point x="64" y="370" type="curve" smooth="yes"/>
      <point x="64" y="294"/>
      <point x="97" y="241"/>
      <point x="149" y="214" type="curve"/>
    </contour>
    <contour>
      <point x="133" y="368" type="curve" smooth="yes"/>
      <point x="133" y="434"/>
      <point x="181" y="466"/>
      <point x="236" y="466" type="curve" smooth="yes"/>
      <point x="310" y="466" type="line"/>
      <point x="310" y="268" type="line"/>
      <point x="215" y="268" type="line" smooth="yes"/>
      <point x="173" y="268"/>
      <point x="133" y="302"/>
    </contour>
  </outline>
</glyph>
<glyph name="djecyr" format="2">
  <advance width="425"/>
  <unicode hex="0452"/>
  <guideline x="257" y="0" angle="90" name="h1"/>
  <anchor x="257" y="590" name="top"/>
  <outline>
    <contour>
      <point x="207" y="-156" type="line"/>
      <point x="225" y="-156" type="line" smooth="yes"/>
      <point x="317" y="-156"/>
      <point x="366" y="-106"/>
      <point x="366" y="-15" type="curve" smooth="yes"/>
      <point x="366" y="383" type="line" smooth="yes"/>
      <point x="366" y="481"/>
      <point x="317" y="538"/>
      <point x="232" y="538" type="curve" smooth="yes"/>
      <point x="190" y="538"/>
      <point x="151" y="517"/>
      <point x="130" y="483" type="curve"/>
      <point x="130" y="593" type="line"/>
      <point x="293" y="593" type="line"/>
      <point x="293" y="639" type="line"/>
      <point x="130" y="639" type="line"/>
      <point x="130" y="707" type="line"/>
      <point x="60" y="707" type="line"/>
      <point x="60" y="639" type="line"/>
      <point x="11" y="639" type="line"/>
      <point x="11" y="593" type="line"/>
      <point x="60" y="593" type="line"/>
      <point x="60" y="0" type="line"/>
      <point x="130" y="0" type="line"/>
      <point x="130" y="380" type="line" smooth="yes"/>
      <point x="130" y="439"/>
      <point x="162" y="475"/>
      <point x="213" y="475" type="curve" smooth="yes"/>
      <point x="265" y="475"/>
      <point x="296" y="440"/>
      <point x="296" y="380" type="curve" smooth="yes"/>
      <point x="296" y="-12" type="line" smooth="yes"/>
      <point x="296" y="-66"/>
      <point x="272" y="-93"/>
      <point x="223" y="-93" type="curve" smooth="yes"/>
      <point x="207" y="-93" type="line"/>
    </contour>
  </outline>
</glyph>
<glyph name="eukrcyr" format="2">
  <advance width="418"/>
  <unicode hex="0454"/>
  <outline>
    <contour>
      <point x="212" y="-8" type="curve" smooth="yes"/>
      <point x="313" y="-8"/>
      <point x="368" y="52"/>
      <point x="368" y="162" type="curve" smooth="yes"/>
      <point x="368" y="175" type="line"/>
      <point x="298" y="175" type="line"/>
      <point x="298" y="161" type="line" smooth="yes"/>
      <point x="298" y="90"/>
      <point x="269" y="54"/>
      <point x="211" y="54" type="curve" smooth="yes"/>
      <point x="149" y="54"/>
      <point x="121" y="93"/>
      <point x="121" y="180" type="curve" smooth="yes"/>
      <point x="121" y="250" type="line"/>
      <point x="229" y="250" type="line"/>
      <point x="229" y="313" type="line"/>
      <point x="121" y="313" type="line"/>
      <point x="121" y="349" type="line" smooth="yes"/>
      <point x="121" y="437"/>
      <point x="149" y="475"/>
      <point x="212" y="475" type="curve" smooth="yes"/>
      <point x="269" y="475"/>
      <point x="298" y="440"/>
      <point x="298" y="369" type="curve" smooth="yes"/>
      <point x="298" y="354" type="line"/>
      <point x="368" y="354" type="line"/>
      <point x="368" y="369" type="line" smooth="yes"/>
      <point x="368" y="479"/>
      <point x="314" y="538"/>
      <point x="211" y="538" type="curve" smooth="yes"/>
      <point x="106" y="538"/>
      <point x="51" y="476"/>
      <point x="51" y="357" type="curve" smooth="yes"/>
      <point x="51" y="172" type="line" smooth="yes"/>
      <point x="51" y="53"/>
      <point x="106" y="-8"/>
    </contour>
  </outline>
</glyph>
<glyph name="njecyr" format="2">
  <advance width="644"/>
  <unicode hex="045A"/>
  <outline>
    <contour>
      <point x="60" y="0" type="line"/>
      <point x="129" y="0" type="line"/>
      <point x="129" y="250" type="line"/>
      <point x="295" y="250" type="line"/>
      <point x="295" y="0" type="line"/>
      <point x="433" y="0" type="line" smooth="yes"/>
      <point x="535" y="0"/>
      <point x="594" y="56"/>
      <point x="594" y="163" type="curve" smooth="yes"/>
      <point x="594" y="267"/>
      <point x="549" y="313"/>
      <point x="448" y="313" type="curve" smooth="yes"/>
      <point x="364" y="313" type="line"/>
      <point x="364" y="529" type="line"/>
      <point x="295" y="529" type="line"/>
      <point x="295" y="313" type="line"/>
      <point x="129" y="313" type="line"/>
      <point x="129" y="529" type="line"/>
      <point x="60" y="529" type="line"/>
    </contour>
    <contour>
      <point x="364" y="63" type="line"/>
      <point x="364" y="250" type="line"/>
      <point x="448" y="250" type="line" smooth="yes"/>
      <point x="494" y="250"/>
      <point x="525" y="214"/>
      <point x="525" y="160" type="curve" smooth="yes"/>
      <point x="525" y="103"/>
      <point x="494" y="63"/>
      <point x="448" y="63" type="curve" smooth="yes"/>
    </contour>
  </outline>
</glyph>
<glyph name="gheupturncyrillic" format="2">
  <advance width="350"/>
  <unicode hex="0491"/>
  <outline>
    <component base="gecyr"/>
    <contour>
      <point x="270" y="529" type="line"/>
      <point x="270" y="659" type="line"/>
      <point x="330" y="659" type="line"/>
      <point x="330" y="529" type="line"/>
    </contour>
  </outline>
</glyph>
<glyph name="ustraightcyrillic" format="2">
  <advance width="331"/>
  <unicode hex="04AF"/>
  <outline>
    <contour>
      <point x="203" y="115" type="line"/>
      <point x="203" y="-159" type="line"/>
      <point x="129" y="-159" type="line"/>
      <point x="129" y="115" type="line"/>
      <point x="4" y="528" type="line"/>
      <point x="86" y="528" type="line"/>
      <point x="166" y="234" type="line"/>
      <point x="245" y="528" type="line"/>
      <point x="327" y="528" type="line"/>
    </contour>
  </outline>
</glyph>
<glyph name="Germandbls" format="2">
  <advance width="513"/>
  <unicode hex="1E9E"/>
  <outline>
    <contour>
      <point x="198" y="-3" type="line"/>
      <point x="275" y="-3" type="line" smooth="yes"/>
      <point x="400" y="-3"/>
      <point x="463" y="66"/>
      <point x="463" y="199" type="curve" smooth="yes"/>
      <point x="463" y="327"/>
      <point x="372" y="401"/>
      <point x="282" y="401" type="curve"/>
      <point x="397" y="597" type="line"/>
      <point x="351" y="683"/>
      <point x="278" y="714"/>
      <point x="236" y="714" type="curve" smooth="yes"/>
      <point x="101" y="716"/>
      <point x="60" y="649"/>
      <point x="60" y="487" type="curve"/>
      <point x="60" y="1" type="line"/>
      <point x="129" y="1" type="line"/>
      <point x="129" y="496" type="line" smooth="yes"/>
      <point x="129" y="580"/>
      <point x="168" y="652"/>
      <point x="236" y="652" type="curve" smooth="yes"/>
      <point x="257" y="652"/>
      <point x="286" y="638"/>
      <point x="326" y="594" type="curve"/>
      <point x="211" y="403" type="line"/>
      <point x="211" y="330" type="line"/>
      <point x="285" y="330" type="line" smooth="yes"/>
      <point x="343" y="330"/>
      <point x="394" y="290"/>
      <point x="394" y="197" type="curve" smooth="yes"/>
      <point x="394" y="87"/>
      <point x="343" y="64"/>
      <point x="287" y="64" type="curve" smooth="yes"/>
      <point x="198" y="64" type="line"/>
    </contour>
  </outline>
</glyph>
<glyph name="quoteleft" format="2">
  <advance width="153"/>
  <unicode hex="2018"/>
  <outline>
    <contour>
      <point x="42" y="501" type="line"/>
      <point x="112" y="501" type="line"/>
      <point x="112" y="740" type="line"/>
      <point x="42" y="680" type="line"/>
    </contour>
  </outline>
</glyph>
<glyph name="quoteright" format="2">
  <advance width="153"/>
  <unicode hex="2019"/>
  <outline>
    <contour>
      <point x="42" y="467" type="line"/>
      <point x="112" y="527" type="line"/>
      <point x="112" y="707" type="line"/>
      <point x="42" y="707" type="line"/>
    </contour>
  </outline>
</glyph>
<glyph name="dagger" format="2">
  <advance width="483"/>
  <unicode hex="2020"/>
  <outline>
    <contour>
      <point x="205" y="-156" type="line"/>
      <point x="280" y="-156" type="line"/>
      <point x="280" y="388" type="line"/>
      <point x="423" y="388" type="line"/>
      <point x="423" y="456" type="line"/>
      <point x="280" y="456" type="line"/>
      <point x="280" y="707" type="line"/>
      <point x="205" y="707" type="line"/>
      <point x="205" y="456" type="line"/>
      <point x="60" y="456" type="line"/>
      <point x="60" y="388" type="line"/>
      <point x="205" y="388" type="line"/>
    </contour>
  </outline>
</glyph>
